SplineFontDB: 3.0
FontName: MonospaceTypewriter
FullName: MonospaceTypewriter
FamilyName: MonospaceTypewriter
Weight: Medium
Copyright: Copyright (c)  M Klein  1.2004
Version: 1.0 2004-01-24
ItalicAngle: 0
UnderlinePosition: -125
UnderlineWidth: 50
Ascent: 800
Descent: 200
InvalidEm: 0
sfntRevision: 0x00010000
LayerCount: 2
Layer: 0 1 "Back" 1
Layer: 1 1 "Fore" 0
XUID: [1021 961 784639173 25798]
StyleMap: 0x0040
FSType: 0
OS2Version: 0
OS2_WeightWidthSlopeOnly: 0
OS2_UseTypoMetrics: 0
CreationTime: 1074936349
ModificationTime: 1568640933
PfmFamily: 17
TTFWeight: 500
TTFWidth: 5
LineGap: 94
VLineGap: 0
Panose: 2 0 6 6 4 0 0 2 0 4
OS2TypoAscent: 1047
OS2TypoAOffset: 0
OS2TypoDescent: -200
OS2TypoDOffset: 0
OS2TypoLinegap: 94
OS2WinAscent: 1047
OS2WinAOffset: 0
OS2WinDescent: 250
OS2WinDOffset: 0
HheadAscent: 1047
HheadAOffset: 0
HheadDescent: -200
HheadDOffset: 0
OS2SubXSize: 204
OS2SubYSize: 204
OS2SubXOff: 0
OS2SubYOff: 286
OS2SupXSize: 204
OS2SupYSize: 204
OS2SupXOff: 0
OS2SupYOff: 286
OS2StrikeYSize: 102
OS2StrikeYPos: 512
OS2Vendor: 'MKÿÿ'
OS2UnicodeRanges: 80000003.00000000.00000000.00000000
MarkAttachClasses: 1
DEI: 91125
ShortTable: maxp 16
  1
  0
  230
  106
  7
  0
  0
  2
  0
  0
  8
  0
  512
  0
  0
  0
EndShort
LangName: 1033 "" "" "Regular" "MonospaceTypewriter" "" "1.0 2004-01-24"
Encoding: UnicodeBmp
UnicodeInterp: none
NameList: AGL For New Fonts
DisplaySize: -96
AntiAlias: 1
FitToEm: 0
WinInfo: 11168 8 6
BeginPrivate: 0
EndPrivate
Grid
-1000 1252 m 0
 2000 1252 l 1024
-1000 357 m 0
 2000 357 l 1024
  Named: "bbot"
-1000 444 m 0
 2000 444 l 1024
  Named: "btop"
-1000 200 m 0
 2000 200 l 1024
  Named: "h200"
-1000 100 m 0
 406 100 l 0
 706 100 l 0
 2000 100 l 1024
  Named: "h100"
317 -700 m 1024
  Named: "v317"
269 -700 m 1024
  Named: "v269"
563 -700 m 1024
  Named: "v563"
24 -700 m 1024
  Named: "v24"
294 -700 m 1024
  Named: "v293"
EndSplineSet
BeginChars: 65537 277

StartChar: breve
Encoding: 5 5 1
Width: 587
Flags: W
LayerCount: 2
Fore
SplineSet
429 806 m 1,0,-1
 379 806 l 1,1,2
 377 765 377 765 355.5 748 c 128,-1,3
 334 731 334 731 294 731 c 0,4,5
 252 731 252 731 231.5 748.5 c 128,-1,6
 211 766 211 766 208 806 c 1,7,-1
 158 806 l 1,8,9
 163 728 163 728 196 692 c 128,-1,10
 229 656 229 656 294 656 c 0,11,12
 360 656 360 656 392 691.5 c 128,-1,13
 424 727 424 727 429 806 c 1,0,-1
EndSplineSet
EndChar

StartChar: dotaccent
Encoding: 6 6 2
Width: 587
Flags: W
LayerCount: 2
Fore
SplineSet
338 667 m 1,0,-1
 338 784 l 1,1,-1
 249 784 l 1,2,-1
 249 667 l 1,3,-1
 338 667 l 1,0,-1
EndSplineSet
EndChar

StartChar: ring
Encoding: 8 8 3
Width: 587
Flags: W
LayerCount: 2
Fore
SplineSet
410 760 m 0,0,1
 410 788 410 788 401 813 c 128,-1,2
 392 838 392 838 376 856 c 128,-1,3
 360 874 360 874 339 884.5 c 128,-1,4
 318 895 318 895 293 895 c 0,5,6
 269 895 269 895 247.5 884.5 c 128,-1,7
 226 874 226 874 210.5 855.5 c 128,-1,8
 195 837 195 837 186 812.5 c 128,-1,9
 177 788 177 788 177 760 c 0,10,11
 177 731 177 731 186 706.5 c 128,-1,12
 195 682 195 682 210.5 663.5 c 128,-1,13
 226 645 226 645 247.5 634.5 c 128,-1,14
 269 624 269 624 293 624 c 0,15,16
 318 624 318 624 339 634.5 c 128,-1,17
 360 645 360 645 376 663.5 c 128,-1,18
 392 682 392 682 401 706.5 c 128,-1,19
 410 731 410 731 410 760 c 0,0,1
356 760 m 0,20,21
 356 729 356 729 337.5 708 c 128,-1,22
 319 687 319 687 293 687 c 256,23,24
 267 687 267 687 249 708 c 128,-1,25
 231 729 231 729 231 760 c 0,26,27
 231 790 231 790 249 811.5 c 128,-1,28
 267 833 267 833 293 833 c 256,29,30
 319 833 319 833 337.5 811.5 c 128,-1,31
 356 790 356 790 356 760 c 0,20,21
EndSplineSet
EndChar

StartChar: hungarumlaut
Encoding: 10 10 4
Width: 587
Flags: W
LayerCount: 2
Fore
SplineSet
434 825 m 1,0,-1
 352 825 l 1,1,-1
 275 637 l 1,2,-1
 320 637 l 1,3,-1
 434 825 l 1,0,-1
301 825 m 1,4,-1
 219 825 l 1,5,-1
 156 637 l 1,6,-1
 200 637 l 1,7,-1
 301 825 l 1,4,-1
EndSplineSet
EndChar

StartChar: ogonek
Encoding: 11 11 5
Width: 587
Flags: W
LayerCount: 2
Fore
SplineSet
366 -191 m 1,0,-1
 366 -114 l 1,1,-1
 327 -114 l 2,2,3
 302 -114 302 -114 292 -105 c 128,-1,4
 282 -96 282 -96 282 -72 c 0,5,6
 282 -42 282 -42 297.5 -13.5 c 128,-1,7
 313 15 313 15 345 47 c 1,8,-1
 308 47 l 1,9,10
 266 6 266 6 243.5 -28 c 128,-1,11
 221 -62 221 -62 221 -101 c 0,12,13
 221 -191 221 -191 326 -191 c 2,14,-1
 366 -191 l 1,0,-1
EndSplineSet
EndChar

StartChar: caron
Encoding: 12 12 6
Width: 587
Flags: W
LayerCount: 2
Fore
SplineSet
430 825 m 1,0,-1
 374 825 l 1,1,-1
 294 702 l 1,2,-1
 213 825 l 1,3,-1
 157 825 l 1,4,-1
 248 637 l 1,5,-1
 340 637 l 1,6,-1
 430 825 l 1,0,-1
EndSplineSet
EndChar

StartChar: dotlessi
Encoding: 13 13 7
Width: 587
Flags: W
LayerCount: 2
Fore
SplineSet
508 10 m 1,0,-1
 508 91 l 1,1,-1
 335 91 l 1,2,-1
 335 581 l 1,3,-1
 252 581 l 1,4,-1
 252 498 l 1,5,-1
 251 498 l 1,6,-1
 251 91 l 1,7,-1
 80 91 l 1,8,-1
 80 10 l 1,9,-1
 508 10 l 1,0,-1
EndSplineSet
EndChar

StartChar: fraction
Encoding: 25 25 8
Width: 587
Flags: W
LayerCount: 2
Fore
SplineSet
441 789 m 1,0,-1
 375 789 l 1,1,-1
 146 -97 l 1,2,-1
 211 -97 l 1,3,-1
 441 789 l 1,0,-1
EndSplineSet
EndChar

StartChar: fi
Encoding: 26 26 9
Width: 587
Flags: W
LayerCount: 2
Fore
SplineSet
538 680 m 1,0,-1
 538 789 l 1,1,-1
 455 789 l 1,2,-1
 455 680 l 1,3,-1
 538 680 l 1,0,-1
538 0 m 1,4,-1
 538 571 l 1,5,-1
 455 571 l 1,6,-1
 455 0 l 1,7,-1
 538 0 l 1,4,-1
369 701 m 1,8,-1
 369 784 l 1,9,10
 352 787 352 787 338 788 c 128,-1,11
 324 789 324 789 311 789 c 0,12,13
 142 789 142 789 142 625 c 2,14,-1
 142 521 l 1,15,-1
 47 521 l 1,16,-1
 47 439 l 1,17,-1
 142 439 l 1,18,-1
 142 0 l 1,19,-1
 226 0 l 1,20,-1
 226 439 l 1,21,-1
 342 439 l 1,22,-1
 342 521 l 1,23,-1
 226 521 l 1,24,-1
 226 607 l 2,25,26
 226 654 226 654 251.5 679 c 128,-1,27
 277 704 277 704 326 704 c 0,28,29
 343 704 343 704 369 701 c 1,8,-1
EndSplineSet
EndChar

StartChar: fl
Encoding: 27 27 10
Width: 587
Flags: W
LayerCount: 2
Fore
SplineSet
538 0 m 1,0,-1
 538 789 l 1,1,-1
 455 789 l 1,2,-1
 455 0 l 1,3,-1
 538 0 l 1,0,-1
369 701 m 1,4,-1
 369 784 l 1,5,6
 352 787 352 787 338 788 c 128,-1,7
 324 789 324 789 311 789 c 0,8,9
 142 789 142 789 142 625 c 2,10,-1
 142 521 l 1,11,-1
 47 521 l 1,12,-1
 47 439 l 1,13,-1
 142 439 l 1,14,-1
 142 0 l 1,15,-1
 226 0 l 1,16,-1
 226 439 l 1,17,-1
 342 439 l 1,18,-1
 342 521 l 1,19,-1
 226 521 l 1,20,-1
 226 607 l 2,21,22
 226 654 226 654 251.5 679 c 128,-1,23
 277 704 277 704 326 704 c 0,24,25
 343 704 343 704 369 701 c 1,4,-1
EndSplineSet
EndChar

StartChar: Lslash
Encoding: 28 28 11
Width: 587
Flags: W
LayerCount: 2
Fore
SplineSet
556 1 m 1,0,-1
 556 94 l 1,1,-1
 220 94 l 1,2,-1
 220 386 l 1,3,-1
 429 561 l 1,4,-1
 392 617 l 1,5,-1
 220 475 l 1,6,-1
 220 765 l 1,7,-1
 132 765 l 1,8,-1
 132 406 l 1,9,-1
 29 317 l 1,10,-1
 65 261 l 1,11,-1
 132 319 l 1,12,-1
 132 1 l 1,13,-1
 556 1 l 1,0,-1
EndSplineSet
EndChar

StartChar: lslash
Encoding: 29 29 12
Width: 587
Flags: W
LayerCount: 2
Fore
SplineSet
507 0 m 1,0,-1
 507 81 l 1,1,-1
 336 81 l 1,2,-1
 336 394 l 1,3,-1
 471 500 l 1,4,-1
 430 561 l 1,5,-1
 336 485 l 1,6,-1
 336 790 l 1,7,-1
 121 790 l 1,8,-1
 121 709 l 1,9,-1
 252 709 l 1,10,-1
 252 420 l 1,11,-1
 109 305 l 1,12,-1
 148 242 l 1,13,-1
 252 328 l 1,14,-1
 252 81 l 1,15,-1
 80 81 l 1,16,-1
 80 0 l 1,17,-1
 507 0 l 1,0,-1
EndSplineSet
EndChar

StartChar: Zcaron
Encoding: 30 30 13
Width: 587
Flags: W
LayerCount: 2
Fore
SplineSet
422 997 m 1,0,-1
 366 997 l 1,1,-1
 286 875 l 1,2,-1
 206 997 l 1,3,-1
 150 997 l 1,4,-1
 241 810 l 1,5,-1
 332 810 l 1,6,-1
 422 997 l 1,0,-1
522 1 m 1,7,-1
 522 94 l 1,8,-1
 154 94 l 1,9,-1
 522 678 l 1,10,-1
 522 765 l 1,11,-1
 75 765 l 1,12,-1
 75 672 l 1,13,-1
 424 672 l 1,14,-1
 49 89 l 1,15,-1
 49 1 l 1,16,-1
 522 1 l 1,7,-1
EndSplineSet
EndChar

StartChar: zcaron
Encoding: 31 31 14
Width: 587
Flags: W
LayerCount: 2
Fore
SplineSet
419 825 m 1,0,-1
 363 825 l 1,1,-1
 283 702 l 1,2,-1
 202 825 l 1,3,-1
 146 825 l 1,4,-1
 237 637 l 1,5,-1
 329 637 l 1,6,-1
 419 825 l 1,0,-1
489 9 m 1,7,-1
 489 91 l 1,8,-1
 181 91 l 1,9,-1
 476 525 l 1,10,-1
 476 600 l 1,11,-1
 90 600 l 1,12,-1
 90 518 l 1,13,-1
 373 518 l 1,14,-1
 76 83 l 1,15,-1
 76 9 l 1,16,-1
 489 9 l 1,7,-1
EndSplineSet
EndChar

StartChar: exclam
Encoding: 33 33 16
Width: 587
Flags: W
LayerCount: 2
Fore
SplineSet
340 541 m 1,0,-1
 340 766 l 1,1,-1
 247 766 l 1,2,-1
 247 541 l 1,3,-1
 270 229 l 1,4,-1
 319 229 l 1,5,-1
 340 541 l 1,0,-1
359 1 m 1,6,-1
 359 165 l 1,7,-1
 227 165 l 1,8,-1
 227 1 l 1,9,-1
 359 1 l 1,6,-1
EndSplineSet
EndChar

StartChar: quotedbl
Encoding: 34 34 17
Width: 587
Flags: W
LayerCount: 2
Fore
SplineSet
394 469 m 1,0,-1
 394 769 l 1,1,-1
 331 769 l 1,2,-1
 331 469 l 1,3,-1
 394 469 l 1,0,-1
257 469 m 1,4,-1
 257 769 l 1,5,-1
 193 769 l 1,6,-1
 193 469 l 1,7,-1
 257 469 l 1,4,-1
EndSplineSet
EndChar

StartChar: numbersign
Encoding: 35 35 18
Width: 587
Flags: W
LayerCount: 2
Fore
SplineSet
530 461 m 1,0,-1
 530 540 l 1,1,-1
 451 540 l 1,2,-1
 496 784 l 1,3,-1
 429 784 l 1,4,-1
 382 540 l 1,5,-1
 250 540 l 1,6,-1
 295 784 l 1,7,-1
 229 784 l 1,8,-1
 182 540 l 1,9,-1
 94 540 l 1,10,-1
 94 461 l 1,11,-1
 169 461 l 1,12,-1
 142 321 l 1,13,-1
 57 321 l 1,14,-1
 57 241 l 1,15,-1
 129 241 l 1,16,-1
 84 -2 l 1,17,-1
 149 -2 l 1,18,-1
 196 241 l 1,19,-1
 329 241 l 1,20,-1
 284 -2 l 1,21,-1
 350 -2 l 1,22,-1
 395 241 l 1,23,-1
 491 241 l 1,24,-1
 491 321 l 1,25,-1
 409 321 l 1,26,-1
 435 461 l 1,27,-1
 530 461 l 1,0,-1
369 461 m 1,28,-1
 343 319 l 1,29,-1
 209 319 l 1,30,-1
 236 461 l 1,31,-1
 369 461 l 1,28,-1
EndSplineSet
EndChar

StartChar: dollar
Encoding: 36 36 19
Width: 587
Flags: W
LayerCount: 2
Fore
SplineSet
525 216 m 0,0,1
 525 265 525 265 513 300 c 128,-1,2
 501 335 501 335 476 360 c 128,-1,3
 451 385 451 385 411.5 402 c 128,-1,4
 372 419 372 419 318 433 c 1,5,-1
 318 675 l 1,6,7
 367 672 367 672 393.5 642.5 c 128,-1,8
 420 613 420 613 426 559 c 1,9,-1
 509 559 l 1,10,11
 508 647 508 647 459 698 c 128,-1,12
 410 749 410 749 318 758 c 1,13,-1
 318 830 l 1,14,-1
 269 830 l 1,15,-1
 269 758 l 1,16,17
 224 755 224 755 188.5 739 c 128,-1,18
 153 723 153 723 128 696 c 128,-1,19
 103 669 103 669 89.5 632 c 128,-1,20
 76 595 76 595 76 551 c 0,21,22
 76 385 76 385 269 350 c 1,23,-1
 269 77 l 1,24,25
 211 80 211 80 178 120.5 c 128,-1,26
 145 161 145 161 145 230 c 2,27,-1
 145 241 l 1,28,-1
 62 241 l 1,29,-1
 62 231 l 2,30,31
 62 120 62 120 112.5 64 c 128,-1,32
 163 8 163 8 269 -5 c 1,33,-1
 269 -100 l 1,34,-1
 318 -100 l 1,35,-1
 318 -4 l 1,36,37
 420 8 420 8 472.5 65 c 128,-1,38
 525 122 525 122 525 216 c 0,0,1
269 442 m 1,39,40
 212 453 212 453 185.5 480.5 c 128,-1,41
 159 508 159 508 159 559 c 256,42,43
 159 610 159 610 188.5 642 c 128,-1,44
 218 674 218 674 269 675 c 1,45,-1
 269 442 l 1,39,40
439 205 m 0,46,47
 439 149 439 149 408 114.5 c 128,-1,48
 377 80 377 80 318 73 c 1,49,-1
 318 335 l 1,50,51
 381 318 381 318 410 288.5 c 128,-1,52
 439 259 439 259 439 205 c 0,46,47
EndSplineSet
EndChar

StartChar: percent
Encoding: 37 37 20
Width: 587
Flags: W
LayerCount: 2
Fore
SplineSet
319 598 m 0,0,1
 319 634 319 634 307.5 665.5 c 128,-1,2
 296 697 296 697 275.5 720 c 128,-1,3
 255 743 255 743 228 756.5 c 128,-1,4
 201 770 201 770 171 770 c 0,5,6
 140 770 140 770 113 757 c 128,-1,7
 86 744 86 744 66 720.5 c 128,-1,8
 46 697 46 697 34.5 665.5 c 128,-1,9
 23 634 23 634 23 598 c 256,10,11
 23 562 23 562 34.5 531 c 128,-1,12
 46 500 46 500 66 476.5 c 128,-1,13
 86 453 86 453 113 440 c 128,-1,14
 140 427 140 427 171 427 c 256,15,16
 202 427 202 427 229 440.5 c 128,-1,17
 256 454 256 454 276 477.5 c 128,-1,18
 296 501 296 501 307.5 532 c 128,-1,19
 319 563 319 563 319 598 c 0,0,1
550 475 m 1,20,-1
 531 527 l 1,21,-1
 47 302 l 1,22,-1
 64 251 l 1,23,-1
 550 475 l 1,20,-1
564 173 m 0,24,25
 564 208 564 208 552 239 c 128,-1,26
 540 270 540 270 520 293.5 c 128,-1,27
 500 317 500 317 472.5 330.5 c 128,-1,28
 445 344 445 344 415 344 c 0,29,30
 384 344 384 344 357.5 330.5 c 128,-1,31
 331 317 331 317 311 294 c 128,-1,32
 291 271 291 271 279.5 240 c 128,-1,33
 268 209 268 209 268 173 c 0,34,35
 268 136 268 136 279.5 104.5 c 128,-1,36
 291 73 291 73 311 50 c 128,-1,37
 331 27 331 27 357.5 14 c 128,-1,38
 384 1 384 1 415 1 c 256,39,40
 446 1 446 1 473 14.5 c 128,-1,41
 500 28 500 28 520 51.5 c 128,-1,42
 540 75 540 75 552 106 c 128,-1,43
 564 137 564 137 564 173 c 0,24,25
256 598 m 256,44,45
 256 556 256 556 231 527.5 c 128,-1,46
 206 499 206 499 171 499 c 0,47,48
 135 499 135 499 110 527.5 c 128,-1,49
 85 556 85 556 85 598 c 0,50,51
 85 619 85 619 91.5 637 c 128,-1,52
 98 655 98 655 110 668.5 c 128,-1,53
 122 682 122 682 137.5 689.5 c 128,-1,54
 153 697 153 697 171 697 c 0,55,56
 206 697 206 697 231 668.5 c 128,-1,57
 256 640 256 640 256 598 c 256,44,45
501 173 m 0,58,59
 501 132 501 132 476.5 103 c 128,-1,60
 452 74 452 74 415 74 c 0,61,62
 380 74 380 74 355.5 102.5 c 128,-1,63
 331 131 331 131 331 173 c 0,64,65
 331 194 331 194 337.5 212 c 128,-1,66
 344 230 344 230 355.5 243.5 c 128,-1,67
 367 257 367 257 382 264.5 c 128,-1,68
 397 272 397 272 415 272 c 256,69,70
 433 272 433 272 448.5 264.5 c 128,-1,71
 464 257 464 257 475.5 243.5 c 128,-1,72
 487 230 487 230 494 212 c 128,-1,73
 501 194 501 194 501 173 c 0,58,59
EndSplineSet
EndChar

StartChar: ampersand
Encoding: 38 38 21
Width: 587
Flags: W
LayerCount: 2
Fore
SplineSet
557 1 m 1,0,-1
 443 172 l 1,1,2
 465 220 465 220 476 268.5 c 128,-1,3
 487 317 487 317 489 372 c 1,4,-1
 405 372 l 1,5,6
 404 340 404 340 400.5 312.5 c 128,-1,7
 397 285 397 285 388 260 c 1,8,-1
 280 419 l 1,9,10
 386 503 386 503 386 616 c 0,11,12
 386 653 386 653 375.5 684 c 128,-1,13
 365 715 365 715 346.5 737 c 128,-1,14
 328 759 328 759 303 771.5 c 128,-1,15
 278 784 278 784 250 784 c 0,16,17
 217 784 217 784 190 771 c 128,-1,18
 163 758 163 758 143.5 734.5 c 128,-1,19
 124 711 124 711 113.5 680 c 128,-1,20
 103 649 103 649 103 613 c 0,21,22
 103 528 103 528 166 432 c 1,23,24
 131 407 131 407 105.5 382.5 c 128,-1,25
 80 358 80 358 63.5 330.5 c 128,-1,26
 47 303 47 303 39 271.5 c 128,-1,27
 31 240 31 240 31 203 c 0,28,29
 31 156 31 156 44 116 c 128,-1,30
 57 76 57 76 81 46.5 c 128,-1,31
 105 17 105 17 138 0 c 128,-1,32
 171 -17 171 -17 211 -17 c 0,33,34
 268 -17 268 -17 311.5 7 c 128,-1,35
 355 31 355 31 393 86 c 1,36,-1
 448 1 l 1,37,-1
 557 1 l 1,0,-1
312 613 m 0,38,39
 312 578 312 578 292 544.5 c 128,-1,40
 272 511 272 511 234 485 c 1,41,42
 208 521 208 521 194.5 551 c 128,-1,43
 181 581 181 581 181 613 c 0,44,45
 181 648 181 648 201 674 c 128,-1,46
 221 700 221 700 250 700 c 0,47,48
 276 700 276 700 294 675 c 128,-1,49
 312 650 312 650 312 613 c 0,38,39
349 161 m 1,50,51
 327 123 327 123 295 102.5 c 128,-1,52
 263 82 263 82 226 82 c 0,53,54
 200 82 200 82 179.5 92.5 c 128,-1,55
 159 103 159 103 144 121.5 c 128,-1,56
 129 140 129 140 121 165 c 128,-1,57
 113 190 113 190 113 219 c 0,58,59
 113 266 113 266 137 302 c 128,-1,60
 161 338 161 338 210 373 c 1,61,-1
 349 161 l 1,50,51
EndSplineSet
EndChar

StartChar: quotesingle
Encoding: 39 39 22
Width: 587
Flags: W
LayerCount: 2
Fore
SplineSet
325 469 m 1,0,-1
 325 769 l 1,1,-1
 262 769 l 1,2,-1
 262 469 l 1,3,-1
 325 469 l 1,0,-1
EndSplineSet
EndChar

StartChar: parenleft
Encoding: 40 40 23
Width: 587
Flags: W
LayerCount: 2
Fore
SplineSet
401 -202 m 1,0,1
 341 -90 341 -90 309.5 37 c 128,-1,2
 278 164 278 164 278 295 c 256,3,4
 278 426 278 426 309.5 553 c 128,-1,5
 341 680 341 680 401 792 c 1,6,-1
 342 792 l 1,7,8
 262 672 262 672 224.5 551.5 c 128,-1,9
 187 431 187 431 187 295 c 0,10,11
 187 160 187 160 224.5 39 c 128,-1,12
 262 -82 262 -82 342 -202 c 1,13,-1
 401 -202 l 1,0,1
EndSplineSet
EndChar

StartChar: parenright
Encoding: 41 41 24
Width: 587
Flags: W
LayerCount: 2
Fore
SplineSet
400 295 m 0,0,1
 400 431 400 431 362 551.5 c 128,-1,2
 324 672 324 672 245 792 c 1,3,-1
 186 792 l 1,4,5
 246 680 246 680 277 553 c 128,-1,6
 308 426 308 426 308 295 c 256,7,8
 308 164 308 164 277 37 c 128,-1,9
 246 -90 246 -90 186 -202 c 1,10,-1
 245 -202 l 1,11,12
 324 -82 324 -82 362 39 c 128,-1,13
 400 160 400 160 400 295 c 0,0,1
EndSplineSet
EndChar

StartChar: asterisk
Encoding: 42 42 25
Width: 587
Flags: W
LayerCount: 2
Fore
SplineSet
481 558 m 1,0,-1
 455 642 l 1,1,-1
 326 587 l 1,2,-1
 326 749 l 1,3,-1
 261 749 l 1,4,-1
 261 587 l 1,5,-1
 131 642 l 1,6,-1
 106 558 l 1,7,-1
 243 518 l 1,8,-1
 148 384 l 1,9,-1
 212 333 l 1,10,-1
 293 474 l 1,11,-1
 376 331 l 1,12,-1
 439 384 l 1,13,-1
 343 518 l 1,14,-1
 481 558 l 1,0,-1
EndSplineSet
EndChar

StartChar: plus
Encoding: 43 43 26
Width: 587
Flags: W
LayerCount: 2
Fore
SplineSet
514 355 m 1,0,-1
 514 430 l 1,1,-1
 327 430 l 1,2,-1
 327 669 l 1,3,-1
 261 669 l 1,4,-1
 261 430 l 1,5,-1
 73 430 l 1,6,-1
 73 355 l 1,7,-1
 261 355 l 1,8,-1
 261 116 l 1,9,-1
 327 116 l 1,10,-1
 327 355 l 1,11,-1
 514 355 l 1,0,-1
EndSplineSet
EndChar

StartChar: comma
Encoding: 44 44 27
Width: 587
Flags: W
LayerCount: 2
Fore
SplineSet
370 27 m 2,0,-1
 370 204 l 1,1,-1
 239 204 l 1,2,-1
 239 39 l 1,3,-1
 303 39 l 1,4,-1
 303 18 l 2,5,6
 303 -44 303 -44 283.5 -73 c 128,-1,7
 264 -102 264 -102 216 -109 c 1,8,-1
 216 -184 l 1,9,10
 291 -179 291 -179 330.5 -126 c 128,-1,11
 370 -73 370 -73 370 27 c 2,0,-1
EndSplineSet
EndChar

StartChar: hyphen
Encoding: 45 45 28
Width: 587
Flags: W
LayerCount: 2
Fore
SplineSet
408 261 m 1,0,-1
 408 348 l 1,1,-1
 179 348 l 1,2,-1
 179 261 l 1,3,-1
 408 261 l 1,0,-1
EndSplineSet
EndChar

StartChar: period
Encoding: 46 46 29
Width: 587
Flags: W
LayerCount: 2
Fore
SplineSet
359 29 m 1,0,-1
 359 192 l 1,1,-1
 228 192 l 1,2,-1
 228 29 l 1,3,-1
 359 29 l 1,0,-1
EndSplineSet
EndChar

StartChar: slash
Encoding: 47 47 30
Width: 587
Flags: W
LayerCount: 2
Fore
SplineSet
441 789 m 1,0,-1
 375 789 l 1,1,-1
 146 -97 l 1,2,-1
 211 -97 l 1,3,-1
 441 789 l 1,0,-1
EndSplineSet
EndChar

StartChar: zero
Encoding: 48 48 31
Width: 587
Flags: W
LayerCount: 2
Fore
SplineSet
522 375 m 256,0,1
 522 573 522 573 464 672 c 128,-1,2
 406 771 406 771 294 771 c 256,3,4
 182 771 182 771 123.5 671.5 c 128,-1,5
 65 572 65 572 65 375 c 256,6,7
 65 178 65 178 123.5 79 c 128,-1,8
 182 -20 182 -20 294 -20 c 256,9,10
 406 -20 406 -20 464 78.5 c 128,-1,11
 522 177 522 177 522 375 c 256,0,1
431 375 m 256,12,13
 431 220 431 220 400 145 c 128,-1,14
 369 70 369 70 294 70 c 0,15,16
 220 70 220 70 188 145 c 128,-1,17
 156 220 156 220 156 375 c 256,18,19
 156 530 156 530 188 605 c 128,-1,20
 220 680 220 680 294 680 c 0,21,22
 369 680 369 680 400 605 c 128,-1,23
 431 530 431 530 431 375 c 256,12,13
EndSplineSet
EndChar

StartChar: one
Encoding: 49 49 32
Width: 587
Flags: W
LayerCount: 2
Fore
SplineSet
412 1 m 1,0,-1
 412 770 l 1,1,-1
 348 770 l 1,2,3
 339 691 339 691 297 657.5 c 128,-1,4
 255 624 255 624 172 623 c 1,5,-1
 172 544 l 1,6,-1
 326 544 l 1,7,-1
 326 1 l 1,8,-1
 412 1 l 1,0,-1
EndSplineSet
EndChar

StartChar: two
Encoding: 50 50 33
Width: 587
Flags: W
LayerCount: 2
Fore
SplineSet
520 1 m 1,0,-1
 520 96 l 1,1,-1
 162 96 l 1,2,3
 169 124 169 124 182.5 147.5 c 128,-1,4
 196 171 196 171 216 191.5 c 128,-1,5
 236 212 236 212 262.5 230.5 c 128,-1,6
 289 249 289 249 321 268 c 2,7,-1
 377 301 l 2,8,9
 451 345 451 345 485.5 404.5 c 128,-1,10
 520 464 520 464 520 542 c 0,11,12
 520 593 520 593 504.5 635 c 128,-1,13
 489 677 489 677 460.5 707 c 128,-1,14
 432 737 432 737 391.5 753.5 c 128,-1,15
 351 770 351 770 302 770 c 0,16,17
 252 770 252 770 211.5 752 c 128,-1,18
 171 734 171 734 142 700.5 c 128,-1,19
 113 667 113 667 97.5 618 c 128,-1,20
 82 569 82 569 82 508 c 2,21,-1
 82 493 l 1,22,-1
 168 493 l 1,23,-1
 168 502 l 2,24,25
 168 587 168 587 203 633 c 128,-1,26
 238 679 238 679 298 679 c 0,27,28
 359 679 359 679 394.5 641 c 128,-1,29
 430 603 430 603 430 543 c 0,30,31
 430 489 430 489 406.5 450 c 128,-1,32
 383 411 383 411 333 379 c 2,33,-1
 277 344 l 2,34,35
 224 311 224 311 184.5 277 c 128,-1,36
 145 243 145 243 119 203.5 c 128,-1,37
 93 164 93 164 80 115.5 c 128,-1,38
 67 67 67 67 67 4 c 2,39,-1
 67 1 l 1,40,-1
 520 1 l 1,0,-1
EndSplineSet
EndChar

StartChar: three
Encoding: 51 51 34
Width: 587
Flags: W
LayerCount: 2
Fore
SplineSet
524 223 m 0,0,1
 524 295 524 295 496.5 342 c 128,-1,2
 469 389 469 389 415 411 c 1,3,4
 499 454 499 454 499 565 c 0,5,6
 499 662 499 662 444.5 716.5 c 128,-1,7
 390 771 390 771 286 771 c 0,8,9
 239 771 239 771 200.5 754 c 128,-1,10
 162 737 162 737 135 705 c 128,-1,11
 108 673 108 673 93 628 c 128,-1,12
 78 583 78 583 78 526 c 2,13,-1
 78 518 l 1,14,-1
 163 518 l 1,15,16
 163 681 163 681 291 681 c 0,17,18
 348 681 348 681 377.5 650 c 128,-1,19
 407 619 407 619 407 561 c 0,20,21
 407 499 407 499 375.5 470.5 c 128,-1,22
 344 442 344 442 281 442 c 0,23,24
 279 442 279 442 269 442 c 0,25,26
 260 442 260 442 244 443 c 1,27,-1
 244 356 l 1,28,29
 255 357 255 357 266.5 357.5 c 128,-1,30
 278 358 278 358 291 358 c 0,31,32
 360 358 360 358 395.5 322 c 128,-1,33
 431 286 431 286 431 223 c 0,34,35
 431 153 431 153 394 112.5 c 128,-1,36
 357 72 357 72 292 72 c 0,37,38
 225 72 225 72 188.5 116.5 c 128,-1,39
 152 161 152 161 150 242 c 1,40,-1
 63 242 l 1,41,-1
 63 234 l 2,42,43
 63 176 63 176 78.5 129 c 128,-1,44
 94 82 94 82 123.5 49 c 128,-1,45
 153 16 153 16 194 -2 c 128,-1,46
 235 -20 235 -20 286 -20 c 0,47,48
 341 -20 341 -20 385 -2.5 c 128,-1,49
 429 15 429 15 460 47.5 c 128,-1,50
 491 80 491 80 507.5 124.5 c 128,-1,51
 524 169 524 169 524 223 c 0,0,1
EndSplineSet
EndChar

StartChar: four
Encoding: 52 52 35
Width: 587
Flags: W
LayerCount: 2
Fore
SplineSet
528 191 m 1,0,-1
 528 279 l 1,1,-1
 434 279 l 1,2,-1
 434 749 l 1,3,-1
 348 749 l 1,4,-1
 59 288 l 1,5,-1
 59 191 l 1,6,-1
 348 191 l 1,7,-1
 348 2 l 1,8,-1
 434 2 l 1,9,-1
 434 191 l 1,10,-1
 528 191 l 1,0,-1
348 279 m 1,11,-1
 139 279 l 1,12,-1
 348 621 l 1,13,-1
 348 279 l 1,11,-1
EndSplineSet
EndChar

StartChar: five
Encoding: 53 53 36
Width: 587
Flags: W
LayerCount: 2
Fore
SplineSet
523 251 m 0,0,1
 523 307 523 307 507 353.5 c 128,-1,2
 491 400 491 400 461.5 433.5 c 128,-1,3
 432 467 432 467 390.5 485.5 c 128,-1,4
 349 504 349 504 298 504 c 0,5,6
 220 504 220 504 172 454 c 1,7,-1
 198 660 l 1,8,-1
 487 660 l 1,9,-1
 487 750 l 1,10,-1
 135 750 l 1,11,-1
 82 345 l 1,12,-1
 158 345 l 1,13,14
 207 416 207 416 284 416 c 0,15,16
 352 416 352 416 391.5 369.5 c 128,-1,17
 431 323 431 323 431 245 c 0,18,19
 431 207 431 207 420.5 176 c 128,-1,20
 410 145 410 145 391 123 c 128,-1,21
 372 101 372 101 344.5 88.5 c 128,-1,22
 317 76 317 76 284 76 c 0,23,24
 230 76 230 76 195 109 c 128,-1,25
 160 142 160 142 152 202 c 1,26,-1
 63 202 l 1,27,28
 67 153 67 153 84.5 112.5 c 128,-1,29
 102 72 102 72 131.5 42.5 c 128,-1,30
 161 13 161 13 200.5 -3 c 128,-1,31
 240 -19 240 -19 287 -19 c 0,32,33
 339 -19 339 -19 382.5 0.5 c 128,-1,34
 426 20 426 20 457.5 55.5 c 128,-1,35
 489 91 489 91 506 141 c 128,-1,36
 523 191 523 191 523 251 c 0,0,1
EndSplineSet
EndChar

StartChar: six
Encoding: 54 54 37
Width: 587
Flags: W
LayerCount: 2
Fore
SplineSet
525 236 m 0,0,1
 525 295 525 295 509 342 c 128,-1,2
 493 389 493 389 465 421.5 c 128,-1,3
 437 454 437 454 398.5 471.5 c 128,-1,4
 360 489 360 489 314 489 c 0,5,6
 214 489 214 489 157 405 c 1,7,8
 169 682 169 682 313 682 c 0,9,10
 367 682 367 682 397 651 c 128,-1,11
 427 620 427 620 432 560 c 1,12,-1
 520 560 l 1,13,14
 515 661 515 661 460.5 716 c 128,-1,15
 406 771 406 771 312 771 c 0,16,17
 195 771 195 771 128.5 661.5 c 128,-1,18
 62 552 62 552 62 341 c 0,19,20
 62 163 62 163 124 71.5 c 128,-1,21
 186 -20 186 -20 301 -20 c 0,22,23
 352 -20 352 -20 393.5 -1 c 128,-1,24
 435 18 435 18 464 52 c 128,-1,25
 493 86 493 86 509 133 c 128,-1,26
 525 180 525 180 525 236 c 0,0,1
433 235 m 0,27,28
 433 159 433 159 396.5 113 c 128,-1,29
 360 67 360 67 300 67 c 0,30,31
 238 67 238 67 201.5 112 c 128,-1,32
 165 157 165 157 165 234 c 256,33,34
 165 311 165 311 202 355 c 128,-1,35
 239 399 239 399 304 399 c 0,36,37
 361 399 361 399 397 356 c 128,-1,38
 433 313 433 313 433 235 c 0,27,28
EndSplineSet
EndChar

StartChar: seven
Encoding: 55 55 38
Width: 587
Flags: W
LayerCount: 2
Fore
SplineSet
520 658 m 1,0,-1
 520 749 l 1,1,-1
 67 749 l 1,2,-1
 67 649 l 1,3,-1
 428 649 l 1,4,5
 312 504 312 504 245.5 346 c 128,-1,6
 179 188 179 188 158 2 c 1,7,-1
 254 2 l 1,8,9
 274 191 274 191 340.5 353.5 c 128,-1,10
 407 516 407 516 520 658 c 1,0,-1
EndSplineSet
EndChar

StartChar: eight
Encoding: 56 56 39
Width: 587
Flags: W
LayerCount: 2
Fore
SplineSet
521 221 m 0,0,1
 521 366 521 366 411 413 c 1,2,3
 498 459 498 459 498 574 c 0,4,5
 498 616 498 616 483.5 652.5 c 128,-1,6
 469 689 469 689 442.5 715 c 128,-1,7
 416 741 416 741 378 756 c 128,-1,8
 340 771 340 771 293 771 c 256,9,10
 246 771 246 771 208 756 c 128,-1,11
 170 741 170 741 143.5 715 c 128,-1,12
 117 689 117 689 102.5 652.5 c 128,-1,13
 88 616 88 616 88 574 c 0,14,15
 88 459 88 459 176 413 c 1,16,17
 66 366 66 366 66 221 c 0,18,19
 66 168 66 168 81.5 123.5 c 128,-1,20
 97 79 97 79 126 47 c 128,-1,21
 155 15 155 15 197 -2.5 c 128,-1,22
 239 -20 239 -20 293 -20 c 256,23,24
 347 -20 347 -20 389.5 -2.5 c 128,-1,25
 432 15 432 15 461 47 c 128,-1,26
 490 79 490 79 505.5 123.5 c 128,-1,27
 521 168 521 168 521 221 c 0,0,1
408 565 m 0,28,29
 408 511 408 511 377.5 477.5 c 128,-1,30
 347 444 347 444 293 444 c 0,31,32
 240 444 240 444 209.5 477.5 c 128,-1,33
 179 511 179 511 179 565 c 0,34,35
 179 621 179 621 209 652 c 128,-1,36
 239 683 239 683 293 683 c 256,37,38
 347 683 347 683 377.5 652 c 128,-1,39
 408 621 408 621 408 565 c 0,28,29
429 223 m 0,40,41
 429 154 429 154 393 113 c 128,-1,42
 357 72 357 72 293 72 c 0,43,44
 230 72 230 72 194 113 c 128,-1,45
 158 154 158 154 158 223 c 0,46,47
 158 289 158 289 194 326.5 c 128,-1,48
 230 364 230 364 293 364 c 0,49,50
 357 364 357 364 393 326.5 c 128,-1,51
 429 289 429 289 429 223 c 0,40,41
EndSplineSet
EndChar

StartChar: nine
Encoding: 57 57 40
Width: 587
Flags: W
LayerCount: 2
Fore
SplineSet
525 410 m 0,0,1
 525 588 525 588 463 679.5 c 128,-1,2
 401 771 401 771 286 771 c 0,3,4
 235 771 235 771 193.5 752 c 128,-1,5
 152 733 152 733 123 699 c 128,-1,6
 94 665 94 665 78 618 c 128,-1,7
 62 571 62 571 62 515 c 0,8,9
 62 456 62 456 78 409 c 128,-1,10
 94 362 94 362 122 329.5 c 128,-1,11
 150 297 150 297 188.5 279.5 c 128,-1,12
 227 262 227 262 273 262 c 0,13,14
 373 262 373 262 430 346 c 1,15,16
 417 69 417 69 274 69 c 0,17,18
 220 69 220 69 188.5 101 c 128,-1,19
 157 133 157 133 155 191 c 1,20,-1
 68 191 l 1,21,22
 68 143 68 143 82.5 104.5 c 128,-1,23
 97 66 97 66 123.5 38 c 128,-1,24
 150 10 150 10 188 -5 c 128,-1,25
 226 -20 226 -20 273 -20 c 0,26,27
 394 -20 394 -20 459.5 90 c 128,-1,28
 525 200 525 200 525 410 c 0,0,1
422 517 m 256,29,30
 422 440 422 440 385.5 396.5 c 128,-1,31
 349 353 349 353 283 353 c 0,32,33
 226 353 226 353 190 395.5 c 128,-1,34
 154 438 154 438 154 516 c 0,35,36
 154 592 154 592 190 638 c 128,-1,37
 226 684 226 684 286 684 c 0,38,39
 349 684 349 684 385.5 639 c 128,-1,40
 422 594 422 594 422 517 c 256,29,30
EndSplineSet
EndChar

StartChar: colon
Encoding: 58 58 41
Width: 587
Flags: W
LayerCount: 2
Fore
SplineSet
359 436 m 1,0,-1
 359 600 l 1,1,-1
 228 600 l 1,2,-1
 228 436 l 1,3,-1
 359 436 l 1,0,-1
359 9 m 1,4,-1
 359 173 l 1,5,-1
 228 173 l 1,6,-1
 228 9 l 1,7,-1
 359 9 l 1,4,-1
EndSplineSet
EndChar

StartChar: semicolon
Encoding: 59 59 42
Width: 587
Flags: W
LayerCount: 2
Fore
SplineSet
370 446 m 1,0,-1
 370 610 l 1,1,-1
 239 610 l 1,2,-1
 239 446 l 1,3,-1
 370 446 l 1,0,-1
370 7 m 2,4,-1
 370 184 l 1,5,-1
 239 184 l 1,6,-1
 239 19 l 1,7,-1
 303 19 l 1,8,-1
 303 -2 l 2,9,10
 303 -63 303 -63 283.5 -92 c 128,-1,11
 264 -121 264 -121 216 -128 c 1,12,-1
 216 -203 l 1,13,14
 291 -198 291 -198 330.5 -145.5 c 128,-1,15
 370 -93 370 -93 370 7 c 2,4,-1
EndSplineSet
EndChar

StartChar: less
Encoding: 60 60 43
Width: 587
Flags: W
LayerCount: 2
Fore
SplineSet
514 124 m 1,0,-1
 514 212 l 1,1,-1
 165 392 l 1,2,-1
 514 575 l 1,3,-1
 514 661 l 1,4,-1
 73 427 l 1,5,-1
 73 358 l 1,6,-1
 514 124 l 1,0,-1
EndSplineSet
EndChar

StartChar: equal
Encoding: 61 61 44
Width: 587
Flags: W
LayerCount: 2
Fore
SplineSet
514 459 m 1,0,-1
 514 535 l 1,1,-1
 73 535 l 1,2,-1
 73 459 l 1,3,-1
 514 459 l 1,0,-1
514 247 m 1,4,-1
 514 322 l 1,5,-1
 73 322 l 1,6,-1
 73 247 l 1,7,-1
 514 247 l 1,4,-1
EndSplineSet
EndChar

StartChar: greater
Encoding: 62 62 45
Width: 587
Flags: W
LayerCount: 2
Fore
SplineSet
514 358 m 1,0,-1
 514 427 l 1,1,-1
 73 661 l 1,2,-1
 73 575 l 1,3,-1
 423 392 l 1,4,-1
 73 212 l 1,5,-1
 73 124 l 1,6,-1
 514 358 l 1,0,-1
EndSplineSet
EndChar

StartChar: question
Encoding: 63 63 46
Width: 587
Flags: W
LayerCount: 2
Fore
SplineSet
498 592 m 0,0,1
 498 634 498 634 484 669.5 c 128,-1,2
 470 705 470 705 444.5 730.5 c 128,-1,3
 419 756 419 756 382.5 770.5 c 128,-1,4
 346 785 346 785 301 785 c 0,5,6
 198 785 198 785 143.5 725 c 128,-1,7
 89 665 89 665 89 556 c 2,8,-1
 89 543 l 1,9,-1
 172 543 l 1,10,11
 176 699 176 699 298 699 c 0,12,13
 350 699 350 699 378.5 668.5 c 128,-1,14
 407 638 407 638 407 587 c 0,15,16
 407 554 407 554 394 526 c 128,-1,17
 381 498 381 498 355 470 c 2,18,-1
 319 432 l 2,19,20
 284 394 284 394 265 352.5 c 128,-1,21
 246 311 246 311 246 256 c 0,22,23
 246 249 246 249 246.5 242.5 c 128,-1,24
 247 236 247 236 247 228 c 1,25,-1
 330 228 l 1,26,27
 329 235 329 235 329 241 c 0,28,29
 329 248 329 248 329 253 c 0,30,31
 329 278 329 278 332.5 296.5 c 128,-1,32
 336 315 336 315 343.5 330.5 c 128,-1,33
 351 346 351 346 362 359.5 c 128,-1,34
 373 373 373 373 388 389 c 2,35,-1
 427 428 l 2,36,37
 498 500 498 500 498 592 c 0,0,1
353 0 m 1,38,-1
 353 164 l 1,39,-1
 221 164 l 1,40,-1
 221 0 l 1,41,-1
 353 0 l 1,38,-1
EndSplineSet
EndChar

StartChar: at
Encoding: 64 64 47
Width: 587
Flags: W
LayerCount: 2
Fore
SplineSet
541 191 m 1,0,-1
 541 255 l 1,1,2
 536 253 536 253 531.5 254.5 c 128,-1,3
 527 256 527 256 525 256 c 0,4,5
 502 256 502 256 502 287 c 2,6,-1
 502 306 l 1,7,-1
 502 468 l 2,8,9
 502 542 502 542 494.5 596 c 128,-1,10
 487 650 487 650 464 690 c 0,11,12
 437 735 437 735 393.5 760.5 c 128,-1,13
 350 786 350 786 293 786 c 0,14,15
 48 786 48 786 48 368 c 0,16,17
 48 172 48 172 103.5 76 c 128,-1,18
 159 -20 159 -20 277 -20 c 0,19,20
 293 -20 293 -20 316 -20.5 c 128,-1,21
 339 -21 339 -21 353.5 -21.5 c 128,-1,22
 368 -22 368 -22 370 -22 c 2,23,-1
 370 51 l 2,24,25
 368 51 368 51 355 51.5 c 128,-1,26
 342 52 342 52 321.5 52.5 c 128,-1,27
 301 53 301 53 288 53 c 0,28,29
 241 53 241 53 209 72.5 c 128,-1,30
 177 92 177 92 157.5 132.5 c 128,-1,31
 138 173 138 173 129 235 c 128,-1,32
 120 297 120 297 120 383 c 0,33,34
 120 715 120 715 290 715 c 0,35,36
 323 715 323 715 348.5 704 c 128,-1,37
 374 693 374 693 391.5 674.5 c 128,-1,38
 409 656 409 656 418 632 c 128,-1,39
 427 608 427 608 427 582 c 0,40,41
 427 565 427 565 417 558 c 128,-1,42
 407 551 407 551 389 547 c 128,-1,43
 371 543 371 543 347 540.5 c 128,-1,44
 323 538 323 538 295 530 c 0,45,46
 236 513 236 513 207 469.5 c 128,-1,47
 178 426 178 426 178 349 c 0,48,49
 178 267 178 267 210.5 221 c 128,-1,50
 243 175 243 175 300 175 c 0,51,52
 342 175 342 175 375.5 199 c 128,-1,53
 409 223 409 223 439 271 c 1,54,-1
 439 264 l 2,55,56
 439 225 439 225 455 206.5 c 128,-1,57
 471 188 471 188 506 188 c 0,58,59
 512 188 512 188 520.5 187 c 128,-1,60
 529 186 529 186 541 191 c 1,0,-1
430 404 m 2,61,62
 430 326 430 326 397 287.5 c 128,-1,63
 364 249 364 249 318 249 c 0,64,65
 286 249 286 249 268.5 275 c 128,-1,66
 251 301 251 301 251 353 c 0,67,68
 251 403 251 403 267.5 429.5 c 128,-1,69
 284 456 284 456 322 469 c 0,70,71
 351 478 351 478 378.5 481.5 c 128,-1,72
 406 485 406 485 430 500 c 1,73,-1
 430 404 l 2,61,62
EndSplineSet
EndChar

StartChar: A
Encoding: 65 65 48
Width: 587
Flags: W
LayerCount: 2
Fore
SplineSet
583 1 m 1,0,-1
 341 766 l 1,1,-1
 245 766 l 1,2,-1
 4 1 l 1,3,-1
 92 1 l 1,4,-1
 161 226 l 1,5,-1
 424 226 l 1,6,-1
 493 1 l 1,7,-1
 583 1 l 1,0,-1
395 309 m 1,8,-1
 191 309 l 1,9,-1
 293 656 l 1,10,-1
 395 309 l 1,8,-1
EndSplineSet
EndChar

StartChar: B
Encoding: 66 66 49
Width: 587
Flags: W
LayerCount: 2
Fore
SplineSet
522 230 m 0,0,1
 522 302 522 302 491.5 349.5 c 128,-1,2
 461 397 461 397 403 414 c 1,3,4
 448 440 448 440 470.5 477.5 c 128,-1,5
 493 515 493 515 493 573 c 0,6,7
 493 668 493 668 444.5 716.5 c 128,-1,8
 396 765 396 765 300 765 c 2,9,-1
 65 765 l 1,10,-1
 65 1 l 1,11,-1
 313 1 l 2,12,13
 414 1 414 1 468 61.5 c 128,-1,14
 522 122 522 122 522 230 c 0,0,1
406 562 m 0,15,16
 406 505 406 505 375 474 c 128,-1,17
 344 443 344 443 282 443 c 2,18,-1
 153 443 l 1,19,-1
 153 673 l 1,20,-1
 289 673 l 2,21,22
 349 673 349 673 377.5 647.5 c 128,-1,23
 406 622 406 622 406 562 c 0,15,16
431 228 m 0,24,25
 431 93 431 93 303 93 c 2,26,-1
 153 93 l 1,27,-1
 153 355 l 1,28,-1
 294 355 l 2,29,30
 363 355 363 355 397 325 c 128,-1,31
 431 295 431 295 431 228 c 0,24,25
EndSplineSet
EndChar

StartChar: C
Encoding: 67 67 50
Width: 587
Flags: W
LayerCount: 2
Fore
SplineSet
534 285 m 1,0,-1
 443 285 l 1,1,2
 432 180 432 180 392.5 126.5 c 128,-1,3
 353 73 353 73 297 73 c 0,4,5
 230 73 230 73 187 152 c 128,-1,6
 144 231 144 231 144 383 c 256,7,8
 144 535 144 535 186.5 614.5 c 128,-1,9
 229 694 229 694 297 694 c 0,10,11
 346 694 346 694 382 653.5 c 128,-1,12
 418 613 418 613 433 535 c 1,13,-1
 523 535 l 1,14,15
 515 594 515 594 495.5 640.5 c 128,-1,16
 476 687 476 687 446.5 719.5 c 128,-1,17
 417 752 417 752 379 769 c 128,-1,18
 341 786 341 786 297 786 c 0,19,20
 241 786 241 786 196 759.5 c 128,-1,21
 151 733 151 733 119.5 681.5 c 128,-1,22
 88 630 88 630 70.5 555 c 128,-1,23
 53 480 53 480 53 383 c 0,24,25
 53 287 53 287 70.5 212 c 128,-1,26
 88 137 88 137 119.5 85.5 c 128,-1,27
 151 34 151 34 196 7 c 128,-1,28
 241 -20 241 -20 297 -20 c 0,29,30
 345 -20 345 -20 386 0.5 c 128,-1,31
 427 21 427 21 457.5 60 c 128,-1,32
 488 99 488 99 508 155.5 c 128,-1,33
 528 212 528 212 534 285 c 1,0,-1
EndSplineSet
EndChar

StartChar: D
Encoding: 68 68 51
Width: 587
Flags: W
LayerCount: 2
Fore
SplineSet
526 383 m 0,0,1
 526 765 526 765 281 765 c 2,2,-1
 62 765 l 1,3,-1
 62 1 l 1,4,-1
 281 1 l 2,5,6
 398 1 398 1 462 99 c 128,-1,7
 526 197 526 197 526 383 c 0,0,1
435 383 m 0,8,9
 435 235 435 235 396 164 c 128,-1,10
 357 93 357 93 274 93 c 2,11,-1
 150 93 l 1,12,-1
 150 673 l 1,13,-1
 274 673 l 2,14,15
 316 673 316 673 346.5 657 c 128,-1,16
 377 641 377 641 396.5 606.5 c 128,-1,17
 416 572 416 572 425.5 516.5 c 128,-1,18
 435 461 435 461 435 383 c 0,8,9
EndSplineSet
EndChar

StartChar: E
Encoding: 69 69 52
Width: 587
Flags: W
LayerCount: 2
Fore
SplineSet
503 1 m 1,0,-1
 503 94 l 1,1,-1
 172 94 l 1,2,-1
 172 357 l 1,3,-1
 467 357 l 1,4,-1
 467 444 l 1,5,-1
 172 444 l 1,6,-1
 172 672 l 1,7,-1
 495 672 l 1,8,-1
 495 765 l 1,9,-1
 85 765 l 1,10,-1
 85 1 l 1,11,-1
 503 1 l 1,0,-1
EndSplineSet
EndChar

StartChar: F
Encoding: 70 70 53
Width: 587
Flags: W
LayerCount: 2
Fore
SplineSet
509 672 m 1,0,-1
 509 765 l 1,1,-1
 79 765 l 1,2,-1
 79 1 l 1,3,-1
 168 1 l 1,4,-1
 168 357 l 1,5,-1
 445 357 l 1,6,-1
 445 444 l 1,7,-1
 168 444 l 1,8,-1
 168 672 l 1,9,-1
 509 672 l 1,0,-1
EndSplineSet
EndChar

StartChar: G
Encoding: 71 71 54
Width: 587
Flags: W
LayerCount: 2
Fore
SplineSet
537 1 m 1,0,-1
 537 414 l 1,1,-1
 297 414 l 1,2,-1
 297 325 l 1,3,-1
 445 325 l 1,4,-1
 445 319 l 2,5,6
 445 263 445 263 434 217.5 c 128,-1,7
 423 172 423 172 403.5 140.5 c 128,-1,8
 384 109 384 109 357 92 c 128,-1,9
 330 75 330 75 299 75 c 0,10,11
 229 75 229 75 184.5 154.5 c 128,-1,12
 140 234 140 234 140 386 c 256,13,14
 140 538 140 538 183 618 c 128,-1,15
 226 698 226 698 304 698 c 0,16,17
 357 698 357 698 391 656 c 128,-1,18
 425 614 425 614 435 535 c 1,19,-1
 529 535 l 1,20,21
 517 654 517 654 458.5 720 c 128,-1,22
 400 786 400 786 309 786 c 0,23,24
 250 786 250 786 202 758.5 c 128,-1,25
 154 731 154 731 120 679 c 128,-1,26
 86 627 86 627 67.5 552 c 128,-1,27
 49 477 49 477 49 383 c 0,28,29
 49 288 49 288 68 213.5 c 128,-1,30
 87 139 87 139 120 87 c 128,-1,31
 153 35 153 35 197.5 7.5 c 128,-1,32
 242 -20 242 -20 293 -20 c 0,33,34
 407 -20 407 -20 474 104 c 1,35,-1
 490 1 l 1,36,-1
 537 1 l 1,0,-1
EndSplineSet
EndChar

StartChar: H
Encoding: 72 72 55
Width: 587
Flags: W
LayerCount: 2
Fore
SplineSet
513 1 m 1,0,-1
 513 765 l 1,1,-1
 426 765 l 1,2,-1
 426 453 l 1,3,-1
 162 453 l 1,4,-1
 162 765 l 1,5,-1
 74 765 l 1,6,-1
 74 1 l 1,7,-1
 162 1 l 1,8,-1
 162 360 l 1,9,-1
 426 360 l 1,10,-1
 426 1 l 1,11,-1
 513 1 l 1,0,-1
EndSplineSet
EndChar

StartChar: I
Encoding: 73 73 56
Width: 587
Flags: W
LayerCount: 2
Fore
SplineSet
459 1 m 1,0,-1
 459 89 l 1,1,-1
 337 89 l 1,2,-1
 337 677 l 1,3,-1
 459 677 l 1,4,-1
 459 765 l 1,5,-1
 128 765 l 1,6,-1
 128 677 l 1,7,-1
 250 677 l 1,8,-1
 250 89 l 1,9,-1
 128 89 l 1,10,-1
 128 1 l 1,11,-1
 459 1 l 1,0,-1
EndSplineSet
EndChar

StartChar: J
Encoding: 74 74 57
Width: 587
Flags: W
LayerCount: 2
Fore
SplineSet
510 251 m 2,0,-1
 510 766 l 1,1,-1
 423 766 l 1,2,-1
 423 255 l 2,3,4
 423 208 423 208 417 174 c 128,-1,5
 411 140 411 140 396.5 118 c 128,-1,6
 382 96 382 96 357 85 c 128,-1,7
 332 74 332 74 293 74 c 0,8,9
 221 74 221 74 190.5 116.5 c 128,-1,10
 160 159 160 159 160 253 c 0,11,12
 160 266 160 266 160.5 279.5 c 128,-1,13
 161 293 161 293 162 308 c 1,14,-1
 76 308 l 1,15,16
 75 293 75 293 74.5 279.5 c 128,-1,17
 74 266 74 266 74 252 c 0,18,19
 74 110 74 110 125 45.5 c 128,-1,20
 176 -19 176 -19 292 -19 c 0,21,22
 350 -19 350 -19 391.5 -3.5 c 128,-1,23
 433 12 433 12 459 45 c 128,-1,24
 485 78 485 78 497.5 129 c 128,-1,25
 510 180 510 180 510 251 c 2,0,-1
EndSplineSet
EndChar

StartChar: K
Encoding: 75 75 58
Width: 587
Flags: W
LayerCount: 2
Fore
SplineSet
541 1 m 1,0,-1
 275 444 l 1,1,-1
 533 765 l 1,2,-1
 428 765 l 1,3,-1
 135 402 l 1,4,-1
 135 765 l 1,5,-1
 48 765 l 1,6,-1
 48 1 l 1,7,-1
 135 1 l 1,8,-1
 135 273 l 1,9,-1
 213 370 l 1,10,-1
 435 1 l 1,11,-1
 541 1 l 1,0,-1
EndSplineSet
EndChar

StartChar: L
Encoding: 76 76 59
Width: 587
Flags: W
LayerCount: 2
Fore
SplineSet
506 1 m 1,0,-1
 506 89 l 1,1,-1
 170 89 l 1,2,-1
 170 765 l 1,3,-1
 82 765 l 1,4,-1
 82 1 l 1,5,-1
 506 1 l 1,0,-1
EndSplineSet
EndChar

StartChar: M
Encoding: 77 77 60
Width: 587
Flags: W
LayerCount: 2
Fore
SplineSet
531 1 m 1,0,-1
 531 765 l 1,1,-1
 415 765 l 1,2,-1
 293 91 l 1,3,-1
 173 765 l 1,4,-1
 56 765 l 1,5,-1
 56 1 l 1,6,-1
 129 1 l 1,7,-1
 129 694 l 1,8,-1
 253 1 l 1,9,-1
 334 1 l 1,10,-1
 457 694 l 1,11,-1
 457 1 l 1,12,-1
 531 1 l 1,0,-1
EndSplineSet
EndChar

StartChar: N
Encoding: 78 78 61
Width: 587
Flags: W
LayerCount: 2
Fore
SplineSet
510 1 m 1,0,-1
 510 765 l 1,1,-1
 430 765 l 1,2,-1
 430 139 l 1,3,-1
 190 765 l 1,4,-1
 77 765 l 1,5,-1
 77 1 l 1,6,-1
 156 1 l 1,7,-1
 156 617 l 1,8,-1
 398 1 l 1,9,-1
 510 1 l 1,0,-1
EndSplineSet
EndChar

StartChar: O
Encoding: 79 79 62
Width: 587
Flags: W
LayerCount: 2
Fore
SplineSet
538 383 m 256,0,1
 538 479 538 479 520.5 554 c 128,-1,2
 503 629 503 629 471 680.5 c 128,-1,3
 439 732 439 732 394 759 c 128,-1,4
 349 786 349 786 293 786 c 256,5,6
 237 786 237 786 192 759.5 c 128,-1,7
 147 733 147 733 115 681.5 c 128,-1,8
 83 630 83 630 66 555 c 128,-1,9
 49 480 49 480 49 383 c 0,10,11
 49 287 49 287 66.5 212 c 128,-1,12
 84 137 84 137 115.5 85.5 c 128,-1,13
 147 34 147 34 192 7 c 128,-1,14
 237 -20 237 -20 293 -20 c 256,15,16
 349 -20 349 -20 394 7 c 128,-1,17
 439 34 439 34 471 85.5 c 128,-1,18
 503 137 503 137 520.5 212 c 128,-1,19
 538 287 538 287 538 383 c 256,0,1
446 383 m 256,20,21
 446 232 446 232 404 152.5 c 128,-1,22
 362 73 362 73 293 73 c 0,23,24
 225 73 225 73 183 152 c 128,-1,25
 141 231 141 231 141 383 c 256,26,27
 141 535 141 535 183 614.5 c 128,-1,28
 225 694 225 694 293 694 c 0,29,30
 362 694 362 694 404 614 c 128,-1,31
 446 534 446 534 446 383 c 256,20,21
EndSplineSet
EndChar

StartChar: P
Encoding: 80 80 63
Width: 587
Flags: W
LayerCount: 2
Fore
SplineSet
508 545 m 0,0,1
 508 654 508 654 457.5 709.5 c 128,-1,2
 407 765 407 765 308 765 c 2,3,-1
 259 765 l 1,4,-1
 80 765 l 1,5,-1
 80 1 l 1,6,-1
 167 1 l 1,7,-1
 167 324 l 1,8,-1
 264 324 l 2,9,10
 319 324 319 324 362 330 c 128,-1,11
 405 336 405 336 440 368 c 0,12,13
 508 428 508 428 508 545 c 0,0,1
416 545 m 0,14,15
 416 506 416 506 407 480.5 c 128,-1,16
 398 455 398 455 381 440 c 128,-1,17
 364 425 364 425 338 418.5 c 128,-1,18
 312 412 312 412 278 412 c 2,19,-1
 167 412 l 1,20,-1
 167 671 l 1,21,-1
 284 671 l 2,22,23
 317 671 317 671 342 665 c 128,-1,24
 367 659 367 659 383.5 644.5 c 128,-1,25
 400 630 400 630 408 606 c 128,-1,26
 416 582 416 582 416 545 c 0,14,15
EndSplineSet
EndChar

StartChar: Q
Encoding: 81 81 64
Width: 587
Flags: W
LayerCount: 2
Fore
SplineSet
538 383 m 256,0,1
 538 479 538 479 520.5 554 c 128,-1,2
 503 629 503 629 471 680.5 c 128,-1,3
 439 732 439 732 394 759 c 128,-1,4
 349 786 349 786 293 786 c 256,5,6
 237 786 237 786 192 759.5 c 128,-1,7
 147 733 147 733 115 681.5 c 128,-1,8
 83 630 83 630 66 555 c 128,-1,9
 49 480 49 480 49 383 c 0,10,11
 49 287 49 287 66.5 212 c 128,-1,12
 84 137 84 137 115.5 85.5 c 128,-1,13
 147 34 147 34 192 7 c 128,-1,14
 237 -20 237 -20 293 -20 c 256,15,16
 349 -20 349 -20 394 7 c 128,-1,17
 439 34 439 34 471 85.5 c 128,-1,18
 503 137 503 137 520.5 212 c 128,-1,19
 538 287 538 287 538 383 c 256,0,1
446 383 m 256,20,21
 446 232 446 232 404 152.5 c 128,-1,22
 362 73 362 73 293 73 c 0,23,24
 225 73 225 73 183 152 c 128,-1,25
 141 231 141 231 141 383 c 256,26,27
 141 535 141 535 183 614.5 c 128,-1,28
 225 694 225 694 293 694 c 0,29,30
 362 694 362 694 404 614 c 128,-1,31
 446 534 446 534 446 383 c 256,20,21
478 -149 m 1,32,-1
 493 -64 l 1,33,-1
 267 -24 l 1,34,-1
 251 -109 l 1,35,-1
 478 -149 l 1,32,-1
EndSplineSet
EndChar

StartChar: R
Encoding: 82 82 65
Width: 587
Flags: W
LayerCount: 2
Fore
SplineSet
514 1 m 1,0,-1
 514 22 l 1,1,2
 498 33 498 33 492.5 54 c 128,-1,3
 487 75 487 75 485 110 c 2,4,-1
 478 233 l 2,5,6
 476 263 476 263 473 285.5 c 128,-1,7
 470 308 470 308 462.5 325 c 128,-1,8
 455 342 455 342 441.5 354 c 128,-1,9
 428 366 428 366 406 374 c 1,10,11
 493 420 493 420 493 547 c 0,12,13
 493 653 493 653 443 709 c 128,-1,14
 393 765 393 765 294 765 c 2,15,-1
 243 765 l 1,16,-1
 73 765 l 1,17,-1
 73 1 l 1,18,-1
 162 1 l 1,19,-1
 162 329 l 1,20,-1
 252 329 l 2,21,22
 292 329 292 329 318.5 325 c 128,-1,23
 345 321 345 321 360.5 308.5 c 128,-1,24
 376 296 376 296 383 271 c 128,-1,25
 390 246 390 246 392 204 c 2,26,-1
 397 105 l 2,27,28
 402 26 402 26 414 1 c 1,29,-1
 514 1 l 1,0,-1
402 545 m 0,30,31
 402 468 402 468 366.5 439 c 128,-1,32
 331 410 331 410 263 410 c 2,33,-1
 162 410 l 1,34,-1
 162 671 l 1,35,-1
 269 671 l 2,36,37
 302 671 302 671 327 665 c 128,-1,38
 352 659 352 659 368.5 644.5 c 128,-1,39
 385 630 385 630 393.5 606 c 128,-1,40
 402 582 402 582 402 545 c 0,30,31
EndSplineSet
EndChar

StartChar: S
Encoding: 83 83 66
Width: 587
Flags: W
LayerCount: 2
Fore
SplineSet
530 222 m 256,0,1
 530 277 530 277 516 313 c 128,-1,2
 502 349 502 349 476 372 c 128,-1,3
 450 395 450 395 412 410 c 128,-1,4
 374 425 374 425 325 438 c 0,5,6
 282 450 282 450 251.5 459.5 c 128,-1,7
 221 469 221 469 202 483 c 128,-1,8
 183 497 183 497 174.5 518 c 128,-1,9
 166 539 166 539 166 573 c 0,10,11
 166 628 166 628 199.5 661 c 128,-1,12
 233 694 233 694 290 694 c 0,13,14
 350 694 350 694 385.5 654 c 128,-1,15
 421 614 421 614 426 537 c 1,16,-1
 512 537 l 1,17,-1
 512 539 l 2,18,19
 512 657 512 657 453 721 c 128,-1,20
 394 785 394 785 287 785 c 0,21,22
 240 785 240 785 201.5 768.5 c 128,-1,23
 163 752 163 752 135 722 c 128,-1,24
 107 692 107 692 92 650.5 c 128,-1,25
 77 609 77 609 77 558 c 0,26,27
 77 508 77 508 89.5 475.5 c 128,-1,28
 102 443 102 443 125.5 420.5 c 128,-1,29
 149 398 149 398 183 382.5 c 128,-1,30
 217 367 217 367 260 353 c 0,31,32
 304 339 304 339 338 328.5 c 128,-1,33
 372 318 372 318 395.5 304.5 c 128,-1,34
 419 291 419 291 431 269.5 c 128,-1,35
 443 248 443 248 443 211 c 0,36,37
 443 147 443 147 403 110 c 128,-1,38
 363 73 363 73 299 73 c 0,39,40
 228 73 228 73 185.5 120.5 c 128,-1,41
 143 168 143 168 143 253 c 1,42,-1
 57 253 l 1,43,44
 62 121 62 121 123.5 50.5 c 128,-1,45
 185 -20 185 -20 295 -20 c 0,46,47
 350 -20 350 -20 393.5 -2.5 c 128,-1,48
 437 15 437 15 467.5 46.5 c 128,-1,49
 498 78 498 78 514 122.5 c 128,-1,50
 530 167 530 167 530 222 c 256,0,1
EndSplineSet
EndChar

StartChar: T
Encoding: 84 84 67
Width: 587
Flags: W
LayerCount: 2
Fore
SplineSet
537 672 m 1,0,-1
 537 765 l 1,1,-1
 50 765 l 1,2,-1
 50 672 l 1,3,-1
 250 672 l 1,4,-1
 250 1 l 1,5,-1
 338 1 l 1,6,-1
 338 672 l 1,7,-1
 537 672 l 1,0,-1
EndSplineSet
EndChar

StartChar: U
Encoding: 85 85 68
Width: 587
Flags: W
LayerCount: 2
Fore
SplineSet
521 293 m 2,0,-1
 521 766 l 1,1,-1
 432 766 l 1,2,-1
 432 287 l 2,3,4
 432 180 432 180 398.5 127 c 128,-1,5
 365 74 365 74 293 74 c 256,6,7
 221 74 221 74 187.5 126.5 c 128,-1,8
 154 179 154 179 154 287 c 2,9,-1
 154 766 l 1,10,-1
 66 766 l 1,11,-1
 66 293 l 2,12,13
 66 135 66 135 121.5 58 c 128,-1,14
 177 -19 177 -19 293 -19 c 0,15,16
 410 -19 410 -19 465.5 57 c 128,-1,17
 521 133 521 133 521 293 c 2,0,-1
EndSplineSet
EndChar

StartChar: V
Encoding: 86 86 69
Width: 587
Flags: W
LayerCount: 2
Fore
SplineSet
551 766 m 1,0,-1
 461 766 l 1,1,-1
 296 116 l 1,2,-1
 126 766 l 1,3,-1
 35 766 l 1,4,-1
 248 1 l 1,5,-1
 343 1 l 1,6,-1
 551 766 l 1,0,-1
EndSplineSet
EndChar

StartChar: W
Encoding: 87 87 70
Width: 587
Flags: W
LayerCount: 2
Fore
SplineSet
587 766 m 1,0,-1
 511 766 l 1,1,-1
 429 126 l 1,2,-1
 345 766 l 1,3,-1
 242 766 l 1,4,-1
 160 126 l 1,5,-1
 78 766 l 1,6,-1
 0 766 l 1,7,-1
 114 1 l 1,8,-1
 198 1 l 1,9,-1
 293 663 l 1,10,-1
 391 1 l 1,11,-1
 471 1 l 1,12,-1
 587 766 l 1,0,-1
EndSplineSet
EndChar

StartChar: X
Encoding: 88 88 71
Width: 587
Flags: W
LayerCount: 2
Fore
SplineSet
546 1 m 1,0,-1
 340 394 l 1,1,-1
 536 766 l 1,2,-1
 440 766 l 1,3,-1
 294 483 l 1,4,-1
 152 766 l 1,5,-1
 52 766 l 1,6,-1
 247 393 l 1,7,-1
 41 1 l 1,8,-1
 141 1 l 1,9,-1
 292 310 l 1,10,-1
 445 1 l 1,11,-1
 546 1 l 1,0,-1
EndSplineSet
EndChar

StartChar: Y
Encoding: 89 89 72
Width: 587
Flags: W
LayerCount: 2
Fore
SplineSet
559 766 m 1,0,-1
 460 766 l 1,1,-1
 298 404 l 1,2,-1
 133 766 l 1,3,-1
 28 766 l 1,4,-1
 254 304 l 1,5,-1
 254 1 l 1,6,-1
 342 1 l 1,7,-1
 342 310 l 1,8,-1
 559 766 l 1,0,-1
EndSplineSet
EndChar

StartChar: Z
Encoding: 90 90 73
Width: 587
Flags: W
LayerCount: 2
Fore
SplineSet
530 1 m 1,0,-1
 530 94 l 1,1,-1
 161 94 l 1,2,-1
 530 678 l 1,3,-1
 530 765 l 1,4,-1
 83 765 l 1,5,-1
 83 672 l 1,6,-1
 431 672 l 1,7,-1
 57 89 l 1,8,-1
 57 1 l 1,9,-1
 530 1 l 1,0,-1
EndSplineSet
EndChar

StartChar: bracketleft
Encoding: 91 91 74
Width: 587
Flags: W
LayerCount: 2
Fore
SplineSet
386 -184 m 1,0,-1
 386 -110 l 1,1,-1
 284 -110 l 1,2,-1
 284 700 l 1,3,-1
 386 700 l 1,4,-1
 386 774 l 1,5,-1
 201 774 l 1,6,-1
 201 -184 l 1,7,-1
 386 -184 l 1,0,-1
EndSplineSet
EndChar

StartChar: backslash
Encoding: 92 92 75
Width: 587
Flags: W
LayerCount: 2
Fore
SplineSet
441 -97 m 1,0,-1
 212 789 l 1,1,-1
 146 789 l 1,2,-1
 376 -97 l 1,3,-1
 441 -97 l 1,0,-1
EndSplineSet
EndChar

StartChar: bracketright
Encoding: 93 93 76
Width: 587
Flags: W
LayerCount: 2
Fore
SplineSet
386 -184 m 1,0,-1
 386 774 l 1,1,-1
 200 774 l 1,2,-1
 200 700 l 1,3,-1
 302 700 l 1,4,-1
 302 -110 l 1,5,-1
 200 -110 l 1,6,-1
 200 -184 l 1,7,-1
 386 -184 l 1,0,-1
EndSplineSet
EndChar

StartChar: asciicircum
Encoding: 94 94 77
Width: 587
Flags: W
LayerCount: 2
Fore
SplineSet
459 501 m 0,0,1
 459 512 459 512 453 521 c 2,2,-1
 325 710 l 2,3,4
 315 723 315 723 293 723 c 0,5,6
 272 723 272 723 263 710 c 2,7,-1
 134 521 l 2,8,9
 128 512 128 512 128 501 c 0,10,11
 128 489 128 489 136 481.5 c 128,-1,12
 144 474 144 474 152 474 c 0,13,14
 159 474 159 474 164 479 c 2,15,-1
 293 629 l 1,16,-1
 423 479 l 2,17,18
 427 474 427 474 435 474 c 256,19,20
 443 474 443 474 451 481.5 c 128,-1,21
 459 489 459 489 459 501 c 0,0,1
EndSplineSet
EndChar

StartChar: underscore
Encoding: 95 95 78
Width: 587
Flags: W
LayerCount: 2
Fore
SplineSet
579 -204 m 1,0,-1
 579 -126 l 1,1,-1
 8 -126 l 1,2,-1
 8 -204 l 1,3,-1
 579 -204 l 1,0,-1
EndSplineSet
EndChar

StartChar: grave
Encoding: 96 96 79
Width: 587
Flags: W
LayerCount: 2
Fore
SplineSet
387 637 m 1,0,-1
 292 825 l 1,1,-1
 199 825 l 1,2,-1
 331 637 l 1,3,-1
 387 637 l 1,0,-1
EndSplineSet
EndChar

StartChar: a
Encoding: 97 97 80
Width: 587
Flags: W
LayerCount: 2
Fore
SplineSet
516 7 m 1,0,-1
 516 82 l 1,1,2
 504 78 504 78 496 78 c 0,3,4
 475 78 475 78 470 93 c 128,-1,5
 465 108 465 108 465 137 c 2,6,-1
 465 442 l 2,7,8
 465 533 465 533 421 577 c 128,-1,9
 377 621 377 621 280 621 c 0,10,11
 192 621 192 621 142 571 c 128,-1,12
 92 521 92 521 92 435 c 2,13,-1
 92 428 l 1,14,-1
 167 428 l 1,15,16
 167 535 167 535 278 535 c 0,17,18
 384 535 384 535 384 445 c 0,19,20
 384 414 384 414 381 398.5 c 128,-1,21
 378 383 378 383 365.5 375.5 c 128,-1,22
 353 368 353 368 327 365 c 128,-1,23
 301 362 301 362 256 356 c 0,24,25
 209 349 209 349 174 336.5 c 128,-1,26
 139 324 139 324 116 301.5 c 128,-1,27
 93 279 93 279 82 245.5 c 128,-1,28
 71 212 71 212 71 164 c 0,29,30
 71 83 71 83 111 37 c 128,-1,31
 151 -9 151 -9 223 -9 c 0,32,33
 318 -9 318 -9 391 86 c 1,34,-1
 391 83 l 2,35,36
 391 -2 391 -2 469 -2 c 0,37,38
 492 -2 492 -2 516 7 c 1,0,-1
381 216 m 2,39,40
 381 184 381 184 370 158.5 c 128,-1,41
 359 133 359 133 339.5 114.5 c 128,-1,42
 320 96 320 96 294 86 c 128,-1,43
 268 76 268 76 238 76 c 0,44,45
 155 76 155 76 155 173 c 0,46,47
 155 218 155 218 174 239.5 c 128,-1,48
 193 261 193 261 235 270 c 0,49,50
 275 278 275 278 312 283.5 c 128,-1,51
 349 289 349 289 381 309 c 1,52,-1
 381 216 l 2,39,40
EndSplineSet
EndChar

StartChar: b
Encoding: 98 98 81
Width: 587
Flags: W
LayerCount: 2
Fore
SplineSet
508 297 m 0,0,1
 508 372 508 372 493.5 430.5 c 128,-1,2
 479 489 479 489 452.5 529.5 c 128,-1,3
 426 570 426 570 389.5 591.5 c 128,-1,4
 353 613 353 613 309 613 c 0,5,6
 216 613 216 613 163 502 c 1,7,-1
 163 791 l 1,8,-1
 80 791 l 1,9,-1
 80 1 l 1,10,-1
 163 1 l 1,11,-1
 163 92 l 1,12,13
 188 37 188 37 224.5 8.5 c 128,-1,14
 261 -20 261 -20 309 -20 c 0,15,16
 353 -20 353 -20 389.5 1.5 c 128,-1,17
 426 23 426 23 452.5 64 c 128,-1,18
 479 105 479 105 493.5 164 c 128,-1,19
 508 223 508 223 508 297 c 0,0,1
423 297 m 256,20,21
 423 185 423 185 387.5 126 c 128,-1,22
 352 67 352 67 295 67 c 0,23,24
 232 67 232 67 198 125 c 128,-1,25
 164 183 164 183 164 297 c 256,26,27
 164 411 164 411 198 468.5 c 128,-1,28
 232 526 232 526 295 526 c 0,29,30
 352 526 352 526 387.5 467.5 c 128,-1,31
 423 409 423 409 423 297 c 256,20,21
EndSplineSet
EndChar

StartChar: c
Encoding: 99 99 82
Width: 587
Flags: W
LayerCount: 2
Fore
SplineSet
506 220 m 1,0,-1
 426 220 l 1,1,2
 419 151 419 151 385.5 113 c 128,-1,3
 352 75 352 75 301 75 c 0,4,5
 235 75 235 75 201 133 c 128,-1,6
 167 191 167 191 167 306 c 0,7,8
 167 420 167 420 202.5 478 c 128,-1,9
 238 536 238 536 301 536 c 0,10,11
 357 536 357 536 388 501.5 c 128,-1,12
 419 467 419 467 422 404 c 1,13,-1
 505 404 l 1,14,15
 503 453 503 453 488 493 c 128,-1,16
 473 533 473 533 446.5 561.5 c 128,-1,17
 420 590 420 590 383 605.5 c 128,-1,18
 346 621 346 621 301 621 c 0,19,20
 251 621 251 621 210 599.5 c 128,-1,21
 169 578 169 578 140.5 537.5 c 128,-1,22
 112 497 112 497 96.5 437.5 c 128,-1,23
 81 378 81 378 81 303 c 0,24,25
 81 155 81 155 138 71.5 c 128,-1,26
 195 -12 195 -12 298 -12 c 0,27,28
 343 -12 343 -12 380 4.5 c 128,-1,29
 417 21 417 21 444 51 c 128,-1,30
 471 81 471 81 487 124 c 128,-1,31
 503 167 503 167 506 220 c 1,0,-1
EndSplineSet
EndChar

StartChar: d
Encoding: 100 100 83
Width: 587
Flags: W
LayerCount: 2
Fore
SplineSet
507 1 m 1,0,-1
 507 791 l 1,1,-1
 425 791 l 1,2,-1
 425 502 l 1,3,4
 371 613 371 613 277 613 c 0,5,6
 233 613 233 613 197 591.5 c 128,-1,7
 161 570 161 570 134.5 529.5 c 128,-1,8
 108 489 108 489 93.5 430.5 c 128,-1,9
 79 372 79 372 79 297 c 0,10,11
 79 223 79 223 93.5 164 c 128,-1,12
 108 105 108 105 134 64 c 128,-1,13
 160 23 160 23 196.5 1.5 c 128,-1,14
 233 -20 233 -20 277 -20 c 0,15,16
 373 -20 373 -20 424 92 c 1,17,-1
 424 1 l 1,18,-1
 507 1 l 1,0,-1
423 297 m 256,19,20
 423 183 423 183 389 125 c 128,-1,21
 355 67 355 67 292 67 c 0,22,23
 235 67 235 67 199.5 126 c 128,-1,24
 164 185 164 185 164 297 c 256,25,26
 164 409 164 409 199.5 467.5 c 128,-1,27
 235 526 235 526 292 526 c 0,28,29
 355 526 355 526 389 468.5 c 128,-1,30
 423 411 423 411 423 297 c 256,19,20
EndSplineSet
EndChar

StartChar: e
Encoding: 101 101 84
Width: 587
Flags: W
LayerCount: 2
Fore
SplineSet
505 322 m 0,0,1
 505 466 505 466 448.5 543.5 c 128,-1,2
 392 621 392 621 293 621 c 0,3,4
 246 621 246 621 207 599.5 c 128,-1,5
 168 578 168 578 140.5 537.5 c 128,-1,6
 113 497 113 497 97.5 438 c 128,-1,7
 82 379 82 379 82 305 c 0,8,9
 82 230 82 230 97 171 c 128,-1,10
 112 112 112 112 139.5 71.5 c 128,-1,11
 167 31 167 31 205 9.5 c 128,-1,12
 243 -12 243 -12 290 -12 c 0,13,14
 330 -12 330 -12 364.5 1.5 c 128,-1,15
 399 15 399 15 425.5 40 c 128,-1,16
 452 65 452 65 470 100 c 128,-1,17
 488 135 488 135 495 179 c 1,18,-1
 413 179 l 1,19,20
 402 129 402 129 372.5 102 c 128,-1,21
 343 75 343 75 301 75 c 0,22,23
 242 75 242 75 206 126.5 c 128,-1,24
 170 178 170 178 170 273 c 2,25,-1
 170 276 l 1,26,-1
 504 276 l 1,27,28
 505 288 505 288 505 299 c 256,29,30
 505 310 505 310 505 322 c 0,0,1
417 353 m 1,31,-1
 170 353 l 1,32,33
 173 440 173 440 206 488 c 128,-1,34
 239 536 239 536 296 536 c 256,35,36
 353 536 353 536 385 487.5 c 128,-1,37
 417 439 417 439 417 353 c 1,31,-1
EndSplineSet
EndChar

StartChar: f
Encoding: 102 102 85
Width: 587
Flags: W
LayerCount: 2
Fore
SplineSet
506 434 m 1,0,-1
 506 511 l 1,1,-1
 316 511 l 1,2,-1
 316 607 l 2,3,4
 316 659 316 659 345 682 c 128,-1,5
 374 705 374 705 435 705 c 0,6,7
 452 705 452 705 469.5 704 c 128,-1,8
 487 703 487 703 506 701 c 1,9,-1
 506 784 l 1,10,11
 453 790 453 790 416 790 c 0,12,13
 322 790 322 790 277.5 751 c 128,-1,14
 233 712 233 712 233 625 c 2,15,-1
 233 511 l 1,16,-1
 80 511 l 1,17,-1
 80 434 l 1,18,-1
 233 434 l 1,19,-1
 233 0 l 1,20,-1
 316 0 l 1,21,-1
 316 434 l 1,22,-1
 506 434 l 1,0,-1
EndSplineSet
EndChar

StartChar: g
Encoding: 103 103 86
Width: 587
Flags: W
LayerCount: 2
Fore
SplineSet
507 45 m 2,0,-1
 507 609 l 1,1,-1
 428 609 l 1,2,-1
 428 514 l 1,3,4
 371 630 371 630 277 630 c 0,5,6
 233 630 233 630 197 608.5 c 128,-1,7
 161 587 161 587 134.5 546.5 c 128,-1,8
 108 506 108 506 93.5 447.5 c 128,-1,9
 79 389 79 389 79 314 c 256,10,11
 79 239 79 239 93.5 180.5 c 128,-1,12
 108 122 108 122 134.5 81.5 c 128,-1,13
 161 41 161 41 197 19.5 c 128,-1,14
 233 -2 233 -2 277 -2 c 0,15,16
 303 -2 303 -2 323.5 5 c 128,-1,17
 344 12 344 12 361.5 25.5 c 128,-1,18
 379 39 379 39 395 60 c 128,-1,19
 411 81 411 81 428 109 c 1,20,-1
 428 25 l 2,21,22
 428 -51 428 -51 399.5 -88.5 c 128,-1,23
 371 -126 371 -126 299 -126 c 0,24,25
 181 -126 181 -126 181 -35 c 1,26,-1
 101 -35 l 1,27,-1
 101 -40 l 2,28,29
 101 -118 101 -118 151 -163.5 c 128,-1,30
 201 -209 201 -209 295 -209 c 0,31,32
 412 -209 412 -209 459.5 -146.5 c 128,-1,33
 507 -84 507 -84 507 45 c 2,0,-1
426 314 m 0,34,35
 426 202 426 202 391 143.5 c 128,-1,36
 356 85 356 85 293 85 c 0,37,38
 235 85 235 85 200 143.5 c 128,-1,39
 165 202 165 202 165 314 c 0,40,41
 165 427 165 427 200 485 c 128,-1,42
 235 543 235 543 293 543 c 0,43,44
 356 543 356 543 391 485 c 128,-1,45
 426 427 426 427 426 314 c 0,34,35
EndSplineSet
EndChar

StartChar: h
Encoding: 104 104 87
Width: 587
Flags: W
LayerCount: 2
Fore
SplineSet
492 0 m 1,0,-1
 492 359 l 1,1,-1
 492 388 l 2,2,3
 492 432 492 432 489 467 c 128,-1,4
 486 502 486 502 471 531 c 0,5,6
 451 570 451 570 415.5 591 c 128,-1,7
 380 612 380 612 327 612 c 0,8,9
 276 612 276 612 238.5 584 c 128,-1,10
 201 556 201 556 179 505 c 1,11,-1
 179 790 l 1,12,-1
 95 790 l 1,13,-1
 95 0 l 1,14,-1
 179 0 l 1,15,-1
 179 341 l 2,16,17
 179 430 179 430 215 477.5 c 128,-1,18
 251 525 251 525 315 525 c 0,19,20
 371 525 371 525 389.5 485 c 128,-1,21
 408 445 408 445 408 369 c 2,22,-1
 408 0 l 1,23,-1
 492 0 l 1,0,-1
EndSplineSet
EndChar

StartChar: i
Encoding: 105 105 88
Width: 587
Flags: W
LayerCount: 2
Fore
SplineSet
338 680 m 1,0,-1
 338 790 l 1,1,-1
 249 790 l 1,2,-1
 249 680 l 1,3,-1
 338 680 l 1,0,-1
508 0 m 1,4,-1
 508 77 l 1,5,-1
 335 77 l 1,6,-1
 335 571 l 1,7,-1
 252 571 l 1,8,9
 252 456 252 456 251.5 329 c 128,-1,10
 251 202 251 202 251 77 c 1,11,-1
 80 77 l 1,12,-1
 80 0 l 1,13,-1
 508 0 l 1,4,-1
EndSplineSet
EndChar

StartChar: j
Encoding: 106 106 89
Width: 587
Flags: W
LayerCount: 2
Fore
SplineSet
411 690 m 1,0,-1
 411 800 l 1,1,-1
 327 800 l 1,2,-1
 327 690 l 1,3,-1
 411 690 l 1,0,-1
411 -30 m 2,4,-1
 411 581 l 1,5,-1
 196 581 l 1,6,-1
 196 499 l 1,7,-1
 327 499 l 1,8,-1
 327 -22 l 2,9,10
 327 -54 327 -54 324 -75 c 128,-1,11
 321 -96 321 -96 311.5 -109 c 128,-1,12
 302 -122 302 -122 284 -127 c 128,-1,13
 266 -132 266 -132 237 -132 c 0,14,15
 223 -132 223 -132 207 -130.5 c 128,-1,16
 191 -129 191 -129 174 -127 c 1,17,-1
 174 -214 l 1,18,19
 199 -216 199 -216 220 -217.5 c 128,-1,20
 241 -219 241 -219 259 -219 c 0,21,22
 303 -219 303 -219 332.5 -208 c 128,-1,23
 362 -197 362 -197 379.5 -174 c 128,-1,24
 397 -151 397 -151 404 -115.5 c 128,-1,25
 411 -80 411 -80 411 -30 c 2,4,-1
EndSplineSet
EndChar

StartChar: k
Encoding: 107 107 90
Width: 587
Flags: W
LayerCount: 2
Fore
SplineSet
504 591 m 1,0,-1
 399 591 l 1,1,-1
 168 325 l 1,2,-1
 168 790 l 1,3,-1
 84 790 l 1,4,-1
 84 0 l 1,5,-1
 168 0 l 1,6,-1
 168 208 l 1,7,-1
 255 306 l 1,8,-1
 405 0 l 1,9,-1
 499 0 l 1,10,-1
 312 373 l 1,11,-1
 504 591 l 1,0,-1
EndSplineSet
EndChar

StartChar: l
Encoding: 108 108 91
Width: 587
Flags: W
LayerCount: 2
Fore
SplineSet
507 0 m 1,0,-1
 507 77 l 1,1,-1
 336 77 l 1,2,-1
 336 790 l 1,3,-1
 121 790 l 1,4,-1
 121 713 l 1,5,-1
 252 713 l 1,6,-1
 252 77 l 1,7,-1
 80 77 l 1,8,-1
 80 0 l 1,9,-1
 507 0 l 1,0,-1
EndSplineSet
EndChar

StartChar: m
Encoding: 109 109 92
Width: 587
Flags: W
LayerCount: 2
Fore
SplineSet
524 8 m 1,0,-1
 524 416 l 2,1,2
 524 464 524 464 520 502 c 128,-1,3
 516 540 516 540 505 566 c 128,-1,4
 494 592 494 592 474.5 606 c 128,-1,5
 455 620 455 620 425 620 c 0,6,7
 392 620 392 620 367 598.5 c 128,-1,8
 342 577 342 577 322 534 c 1,9,10
 311 576 311 576 287 598 c 128,-1,11
 263 620 263 620 228 620 c 0,12,13
 198 620 198 620 174.5 598.5 c 128,-1,14
 151 577 151 577 137 536 c 1,15,-1
 137 599 l 1,16,-1
 63 599 l 1,17,-1
 63 8 l 1,18,-1
 140 8 l 1,19,-1
 140 403 l 2,20,21
 140 471 140 471 159 506 c 128,-1,22
 178 541 178 541 209 541 c 0,23,24
 238 541 238 541 247.5 510.5 c 128,-1,25
 257 480 257 480 257 423 c 2,26,-1
 257 8 l 1,27,-1
 330 8 l 1,28,-1
 330 403 l 2,29,30
 330 470 330 470 349.5 505.5 c 128,-1,31
 369 541 369 541 400 541 c 0,32,33
 429 541 429 541 438 510.5 c 128,-1,34
 447 480 447 480 447 423 c 2,35,-1
 447 8 l 1,36,-1
 524 8 l 1,0,-1
EndSplineSet
EndChar

StartChar: n
Encoding: 110 110 93
Width: 587
Flags: W
LayerCount: 2
Fore
SplineSet
492 8 m 1,0,-1
 492 367 l 1,1,-1
 492 397 l 2,2,3
 492 440 492 440 489 475 c 128,-1,4
 486 510 486 510 471 540 c 0,5,6
 451 578 451 578 415.5 599 c 128,-1,7
 380 620 380 620 327 620 c 0,8,9
 225 620 225 620 175 509 c 1,10,-1
 175 599 l 1,11,-1
 95 599 l 1,12,-1
 95 8 l 1,13,-1
 179 8 l 1,14,-1
 179 349 l 2,15,16
 179 438 179 438 215 485.5 c 128,-1,17
 251 533 251 533 315 533 c 0,18,19
 371 533 371 533 389.5 493 c 128,-1,20
 408 453 408 453 408 377 c 2,21,-1
 408 8 l 1,22,-1
 492 8 l 1,0,-1
EndSplineSet
EndChar

StartChar: o
Encoding: 111 111 94
Width: 587
Flags: W
LayerCount: 2
Fore
SplineSet
515 304 m 256,0,1
 515 456 515 456 456 538.5 c 128,-1,2
 397 621 397 621 293 621 c 0,3,4
 190 621 190 621 131 538 c 128,-1,5
 72 455 72 455 72 304 c 0,6,7
 72 229 72 229 87.5 170 c 128,-1,8
 103 111 103 111 131.5 70.5 c 128,-1,9
 160 30 160 30 201 9 c 128,-1,10
 242 -12 242 -12 293 -12 c 0,11,12
 397 -12 397 -12 456 70 c 128,-1,13
 515 152 515 152 515 304 c 256,0,1
429 305 m 0,14,15
 429 191 429 191 393.5 132.5 c 128,-1,16
 358 74 358 74 293 74 c 0,17,18
 229 74 229 74 193.5 132.5 c 128,-1,19
 158 191 158 191 158 305 c 256,20,21
 158 419 158 419 193 477 c 128,-1,22
 228 535 228 535 293 535 c 256,23,24
 358 535 358 535 393.5 477.5 c 128,-1,25
 429 420 429 420 429 305 c 0,14,15
EndSplineSet
EndChar

StartChar: p
Encoding: 112 112 95
Width: 587
Flags: W
LayerCount: 2
Fore
SplineSet
508 315 m 256,0,1
 508 390 508 390 493.5 448.5 c 128,-1,2
 479 507 479 507 452.5 547.5 c 128,-1,3
 426 588 426 588 389.5 609 c 128,-1,4
 353 630 353 630 309 630 c 0,5,6
 260 630 260 630 225.5 603.5 c 128,-1,7
 191 577 191 577 163 518 c 1,8,-1
 163 609 l 1,9,-1
 80 609 l 1,10,-1
 80 -210 l 1,11,-1
 163 -210 l 1,12,-1
 163 109 l 1,13,14
 192 49 192 49 226 23.5 c 128,-1,15
 260 -2 260 -2 309 -2 c 0,16,17
 353 -2 353 -2 389.5 19.5 c 128,-1,18
 426 41 426 41 452.5 81.5 c 128,-1,19
 479 122 479 122 493.5 181 c 128,-1,20
 508 240 508 240 508 315 c 256,0,1
423 315 m 256,21,22
 423 203 423 203 387.5 144 c 128,-1,23
 352 85 352 85 295 85 c 0,24,25
 232 85 232 85 198 143 c 128,-1,26
 164 201 164 201 164 315 c 0,27,28
 164 428 164 428 198 485.5 c 128,-1,29
 232 543 232 543 295 543 c 0,30,31
 352 543 352 543 387.5 485 c 128,-1,32
 423 427 423 427 423 315 c 256,21,22
EndSplineSet
EndChar

StartChar: q
Encoding: 113 113 96
Width: 587
Flags: W
LayerCount: 2
Fore
SplineSet
507 -210 m 1,0,-1
 507 609 l 1,1,-1
 424 609 l 1,2,-1
 424 518 l 1,3,4
 396 577 396 577 361.5 603.5 c 128,-1,5
 327 630 327 630 277 630 c 0,6,7
 233 630 233 630 197 609 c 128,-1,8
 161 588 161 588 134.5 547.5 c 128,-1,9
 108 507 108 507 93.5 448.5 c 128,-1,10
 79 390 79 390 79 315 c 256,11,12
 79 240 79 240 93.5 181 c 128,-1,13
 108 122 108 122 134.5 81.5 c 128,-1,14
 161 41 161 41 197 19.5 c 128,-1,15
 233 -2 233 -2 277 -2 c 0,16,17
 327 -2 327 -2 361 23.5 c 128,-1,18
 395 49 395 49 424 109 c 1,19,-1
 424 -210 l 1,20,-1
 507 -210 l 1,0,-1
423 315 m 0,21,22
 423 201 423 201 389 143 c 128,-1,23
 355 85 355 85 292 85 c 0,24,25
 235 85 235 85 199.5 144 c 128,-1,26
 164 203 164 203 164 315 c 256,27,28
 164 427 164 427 199.5 485 c 128,-1,29
 235 543 235 543 292 543 c 0,30,31
 355 543 355 543 389 485.5 c 128,-1,32
 423 428 423 428 423 315 c 0,21,22
EndSplineSet
EndChar

StartChar: r
Encoding: 114 114 97
Width: 587
Flags: W
LayerCount: 2
Fore
SplineSet
525 415 m 1,0,1
 522 620 522 620 359 620 c 0,2,3
 308 620 308 620 271.5 589.5 c 128,-1,4
 235 559 235 559 209 501 c 1,5,-1
 209 599 l 1,6,-1
 126 599 l 1,7,-1
 126 8 l 1,8,-1
 210 8 l 1,9,-1
 210 346 l 2,10,11
 210 440 210 440 244.5 489 c 128,-1,12
 279 538 279 538 342 538 c 0,13,14
 390 538 390 538 415.5 506 c 128,-1,15
 441 474 441 474 441 415 c 1,16,-1
 525 415 l 1,0,1
EndSplineSet
EndChar

StartChar: s
Encoding: 115 115 98
Width: 587
Flags: W
LayerCount: 2
Fore
SplineSet
498 183 m 0,0,1
 498 224 498 224 488 252 c 128,-1,2
 478 280 478 280 458.5 299.5 c 128,-1,3
 439 319 439 319 410.5 331 c 128,-1,4
 382 343 382 343 345 353 c 2,5,-1
 264 375 l 2,6,7
 225 386 225 386 204.5 401.5 c 128,-1,8
 184 417 184 417 184 452 c 0,9,10
 184 494 184 494 210 516 c 128,-1,11
 236 538 236 538 289 538 c 0,12,13
 340 538 340 538 369.5 513 c 128,-1,14
 399 488 399 488 401 443 c 1,15,-1
 483 443 l 1,16,-1
 483 445 l 2,17,18
 483 484 483 484 469.5 516.5 c 128,-1,19
 456 549 456 549 430.5 572.5 c 128,-1,20
 405 596 405 596 369.5 608.5 c 128,-1,21
 334 621 334 621 289 621 c 0,22,23
 243 621 243 621 208 608 c 128,-1,24
 173 595 173 595 149 572 c 128,-1,25
 125 549 125 549 113 517.5 c 128,-1,26
 101 486 101 486 101 449 c 0,27,28
 101 411 101 411 109.5 384 c 128,-1,29
 118 357 118 357 136 337.5 c 128,-1,30
 154 318 154 318 180.5 304.5 c 128,-1,31
 207 291 207 291 243 281 c 2,32,-1
 336 254 l 2,33,34
 355 249 355 249 369.5 243 c 128,-1,35
 384 237 384 237 394 228 c 128,-1,36
 404 219 404 219 409 205.5 c 128,-1,37
 414 192 414 192 414 172 c 0,38,39
 414 128 414 128 383.5 101 c 128,-1,40
 353 74 353 74 296 74 c 0,41,42
 179 74 179 74 170 193 c 1,43,-1
 89 193 l 1,44,45
 91 94 91 94 141.5 41 c 128,-1,46
 192 -12 192 -12 289 -12 c 0,47,48
 391 -12 391 -12 444.5 41 c 128,-1,49
 498 94 498 94 498 183 c 0,0,1
EndSplineSet
EndChar

StartChar: t
Encoding: 116 116 99
Width: 587
Flags: W
LayerCount: 2
Fore
SplineSet
502 -12 m 1,0,-1
 502 71 l 1,1,2
 457 65 457 65 430 65 c 0,3,4
 389 65 389 65 365 74 c 128,-1,5
 341 83 341 83 329 101.5 c 128,-1,6
 317 120 317 120 314 147.5 c 128,-1,7
 311 175 311 175 311 212 c 2,8,-1
 311 497 l 1,9,-1
 502 497 l 1,10,-1
 502 574 l 1,11,-1
 311 574 l 1,12,-1
 311 747 l 1,13,-1
 228 717 l 1,14,-1
 228 574 l 1,15,-1
 83 574 l 1,16,-1
 83 497 l 1,17,-1
 228 497 l 1,18,-1
 228 196 l 2,19,20
 228 141 228 141 234.5 100.5 c 128,-1,21
 241 60 241 60 260 34 c 128,-1,22
 279 8 279 8 313.5 -5 c 128,-1,23
 348 -18 348 -18 404 -18 c 0,24,25
 442 -18 442 -18 502 -12 c 1,0,-1
EndSplineSet
EndChar

StartChar: u
Encoding: 117 117 100
Width: 587
Flags: W
LayerCount: 2
Fore
SplineSet
492 10 m 1,0,-1
 492 601 l 1,1,-1
 408 601 l 1,2,-1
 408 260 l 2,3,4
 408 171 408 171 372 124 c 128,-1,5
 336 77 336 77 272 77 c 0,6,7
 220 77 220 77 199.5 113 c 128,-1,8
 179 149 179 149 179 221 c 2,9,-1
 179 232 l 1,10,-1
 179 601 l 1,11,-1
 95 601 l 1,12,-1
 95 242 l 1,13,-1
 95 212 l 2,14,15
 95 169 95 169 98 134 c 128,-1,16
 101 99 101 99 116 69 c 0,17,18
 136 31 136 31 171.5 10 c 128,-1,19
 207 -11 207 -11 260 -11 c 0,20,21
 360 -11 360 -11 412 100 c 1,22,-1
 412 10 l 1,23,-1
 492 10 l 1,0,-1
EndSplineSet
EndChar

StartChar: v
Encoding: 118 118 101
Width: 587
Flags: W
LayerCount: 2
Fore
SplineSet
525 600 m 1,0,-1
 439 600 l 1,1,-1
 295 124 l 1,2,-1
 149 600 l 1,3,-1
 62 600 l 1,4,-1
 251 9 l 1,5,-1
 339 9 l 1,6,-1
 525 600 l 1,0,-1
EndSplineSet
EndChar

StartChar: w
Encoding: 119 119 102
Width: 587
Flags: W
LayerCount: 2
Fore
SplineSet
575 600 m 1,0,-1
 494 600 l 1,1,-1
 409 138 l 1,2,-1
 344 600 l 1,3,-1
 242 600 l 1,4,-1
 177 138 l 1,5,-1
 92 600 l 1,6,-1
 12 600 l 1,7,-1
 138 9 l 1,8,-1
 217 9 l 1,9,-1
 293 511 l 1,10,-1
 369 9 l 1,11,-1
 449 9 l 1,12,-1
 575 600 l 1,0,-1
EndSplineSet
EndChar

StartChar: x
Encoding: 120 120 103
Width: 587
Flags: W
LayerCount: 2
Fore
SplineSet
526 9 m 1,0,-1
 343 314 l 1,1,-1
 515 600 l 1,2,-1
 418 600 l 1,3,-1
 294 385 l 1,4,-1
 169 600 l 1,5,-1
 71 600 l 1,6,-1
 240 313 l 1,7,-1
 61 9 l 1,8,-1
 159 9 l 1,9,-1
 290 239 l 1,10,-1
 425 9 l 1,11,-1
 526 9 l 1,0,-1
EndSplineSet
EndChar

StartChar: y
Encoding: 121 121 104
Width: 587
Flags: W
LayerCount: 2
Fore
SplineSet
529 610 m 1,0,-1
 439 610 l 1,1,-1
 293 124 l 1,2,-1
 150 610 l 1,3,-1
 58 610 l 1,4,-1
 252 -13 l 1,5,-1
 235 -73 l 2,6,7
 227 -100 227 -100 209.5 -111.5 c 128,-1,8
 192 -123 192 -123 164 -123 c 0,9,10
 131 -123 131 -123 87 -112 c 1,11,-1
 87 -200 l 1,12,13
 107 -206 107 -206 127 -207.5 c 128,-1,14
 147 -209 147 -209 168 -209 c 0,15,16
 203 -209 203 -209 226.5 -200.5 c 128,-1,17
 250 -192 250 -192 267 -173 c 128,-1,18
 284 -154 284 -154 296.5 -125.5 c 128,-1,19
 309 -97 309 -97 322 -56 c 2,20,-1
 529 610 l 1,0,-1
EndSplineSet
EndChar

StartChar: z
Encoding: 122 122 105
Width: 587
Flags: W
LayerCount: 2
Fore
SplineSet
500 9 m 1,0,-1
 500 91 l 1,1,-1
 192 91 l 1,2,-1
 487 525 l 1,3,-1
 487 600 l 1,4,-1
 101 600 l 1,5,-1
 101 518 l 1,6,-1
 384 518 l 1,7,-1
 87 83 l 1,8,-1
 87 9 l 1,9,-1
 500 9 l 1,0,-1
EndSplineSet
EndChar

StartChar: braceleft
Encoding: 123 123 106
Width: 587
Flags: W
LayerCount: 2
Fore
SplineSet
455 -204 m 1,0,-1
 455 -124 l 1,1,-1
 441 -124 l 2,2,3
 409 -124 409 -124 390 -118 c 128,-1,4
 371 -112 371 -112 360.5 -97.5 c 128,-1,5
 350 -83 350 -83 346.5 -59.5 c 128,-1,6
 343 -36 343 -36 343 -1 c 2,7,-1
 343 120 l 2,8,9
 343 158 343 158 339.5 186.5 c 128,-1,10
 336 215 336 215 326 236 c 128,-1,11
 316 257 316 257 297.5 271.5 c 128,-1,12
 279 286 279 286 249 295 c 1,13,14
 279 304 279 304 297.5 318.5 c 128,-1,15
 316 333 316 333 326 354 c 128,-1,16
 336 375 336 375 339.5 403.5 c 128,-1,17
 343 432 343 432 343 470 c 2,18,-1
 343 591 l 2,19,20
 343 625 343 625 346 649 c 128,-1,21
 349 673 349 673 359 687.5 c 128,-1,22
 369 702 369 702 388 708.5 c 128,-1,23
 407 715 407 715 438 715 c 2,24,-1
 455 715 l 1,25,-1
 455 794 l 1,26,-1
 434 794 l 2,27,28
 379 794 379 794 345.5 785 c 128,-1,29
 312 776 312 776 294 754 c 128,-1,30
 276 732 276 732 270 695 c 128,-1,31
 264 658 264 658 264 603 c 2,32,-1
 264 479 l 2,33,34
 264 400 264 400 238.5 368 c 128,-1,35
 213 336 213 336 150 336 c 2,36,-1
 131 336 l 1,37,-1
 131 255 l 1,38,-1
 150 255 l 2,39,40
 213 255 213 255 238.5 222.5 c 128,-1,41
 264 190 264 190 264 111 c 2,42,-1
 264 -12 l 2,43,44
 264 -67 264 -67 270 -104 c 128,-1,45
 276 -141 276 -141 294 -163 c 128,-1,46
 312 -185 312 -185 345.5 -194.5 c 128,-1,47
 379 -204 379 -204 434 -204 c 2,48,-1
 455 -204 l 1,0,-1
EndSplineSet
EndChar

StartChar: bar
Encoding: 124 124 107
Width: 587
Flags: W
LayerCount: 2
Fore
SplineSet
328 -250 m 1,0,-1
 328 850 l 1,1,-1
 259 850 l 1,2,-1
 259 -250 l 1,3,-1
 328 -250 l 1,0,-1
EndSplineSet
EndChar

StartChar: braceright
Encoding: 125 125 108
Width: 587
Flags: W
LayerCount: 2
Fore
SplineSet
455 255 m 1,0,-1
 455 336 l 1,1,2
 450 336 450 336 445 335.5 c 128,-1,3
 440 335 440 335 435 335 c 0,4,5
 373 335 373 335 348.5 367.5 c 128,-1,6
 324 400 324 400 324 479 c 2,7,-1
 324 603 l 2,8,9
 324 658 324 658 318 695 c 128,-1,10
 312 732 312 732 293.5 754 c 128,-1,11
 275 776 275 776 241.5 785 c 128,-1,12
 208 794 208 794 153 794 c 2,13,-1
 131 794 l 1,14,-1
 131 715 l 1,15,-1
 150 715 l 2,16,17
 181 715 181 715 199.5 708.5 c 128,-1,18
 218 702 218 702 228 687.5 c 128,-1,19
 238 673 238 673 241.5 649.5 c 128,-1,20
 245 626 245 626 245 591 c 2,21,-1
 245 470 l 2,22,23
 245 432 245 432 248 403.5 c 128,-1,24
 251 375 251 375 261 354 c 128,-1,25
 271 333 271 333 289.5 318.5 c 128,-1,26
 308 304 308 304 338 295 c 1,27,28
 308 286 308 286 289.5 271.5 c 128,-1,29
 271 257 271 257 261 236 c 128,-1,30
 251 215 251 215 248 186 c 128,-1,31
 245 157 245 157 245 120 c 2,32,-1
 245 -1 l 2,33,34
 245 -36 245 -36 241.5 -59.5 c 128,-1,35
 238 -83 238 -83 228 -97 c 128,-1,36
 218 -111 218 -111 199.5 -117.5 c 128,-1,37
 181 -124 181 -124 150 -124 c 2,38,-1
 131 -124 l 1,39,-1
 131 -204 l 1,40,-1
 153 -204 l 2,41,42
 208 -204 208 -204 241.5 -194.5 c 128,-1,43
 275 -185 275 -185 293.5 -163 c 128,-1,44
 312 -141 312 -141 318 -104 c 128,-1,45
 324 -67 324 -67 324 -12 c 2,46,-1
 324 111 l 2,47,48
 324 190 324 190 349 222.5 c 128,-1,49
 374 255 374 255 437 255 c 2,50,-1
 455 255 l 1,0,-1
EndSplineSet
EndChar

StartChar: asciitilde
Encoding: 126 126 109
Width: 587
Flags: W
LayerCount: 2
Fore
SplineSet
518 367 m 0,0,1
 518 400 518 400 495 400 c 0,2,3
 487 400 487 400 477 394 c 128,-1,4
 467 388 467 388 454.5 380.5 c 128,-1,5
 442 373 442 373 426 367 c 128,-1,6
 410 361 410 361 390 361 c 0,7,8
 367 361 367 361 343 368 c 128,-1,9
 319 375 319 375 295 384 c 128,-1,10
 271 393 271 393 246.5 400 c 128,-1,11
 222 407 222 407 198 407 c 0,12,13
 172 407 172 407 149 398.5 c 128,-1,14
 126 390 126 390 108 377 c 128,-1,15
 90 364 90 364 79.5 348.5 c 128,-1,16
 69 333 69 333 69 320 c 0,17,18
 69 287 69 287 92 287 c 0,19,20
 100 287 100 287 109.5 293 c 128,-1,21
 119 299 119 299 132 306.5 c 128,-1,22
 145 314 145 314 161 320 c 128,-1,23
 177 326 177 326 197 326 c 0,24,25
 221 326 221 326 244.5 319 c 128,-1,26
 268 312 268 312 292 303 c 128,-1,27
 316 294 316 294 340 287 c 128,-1,28
 364 280 364 280 388 280 c 0,29,30
 413 280 413 280 436.5 288.5 c 128,-1,31
 460 297 460 297 478 310 c 128,-1,32
 496 323 496 323 507 338 c 128,-1,33
 518 353 518 353 518 367 c 0,0,1
EndSplineSet
EndChar

StartChar: quotesinglbase
Encoding: 8218 8218 110
Width: 587
Flags: W
LayerCount: 2
Fore
SplineSet
357 28 m 2,0,-1
 357 175 l 1,1,-1
 248 175 l 1,2,-1
 248 38 l 1,3,-1
 301 38 l 1,4,-1
 301 21 l 2,5,6
 301 -31 301 -31 285 -54.5 c 128,-1,7
 269 -78 269 -78 230 -84 c 1,8,-1
 230 -147 l 1,9,10
 292 -142 292 -142 324.5 -98 c 128,-1,11
 357 -54 357 -54 357 28 c 2,0,-1
EndSplineSet
EndChar

StartChar: florin
Encoding: 402 402 111
Width: 587
Flags: W
LayerCount: 2
Fore
SplineSet
542 797 m 1,0,1
 520 810 520 810 500 815.5 c 128,-1,2
 480 821 480 821 459 821 c 0,3,4
 420 821 420 821 392.5 803 c 128,-1,5
 365 785 365 785 345 748 c 128,-1,6
 325 711 325 711 310.5 654 c 128,-1,7
 296 597 296 597 284 519 c 1,8,-1
 172 519 l 1,9,-1
 172 440 l 1,10,-1
 270 440 l 1,11,-1
 206 40 l 2,12,13
 199 -4 199 -4 192.5 -35.5 c 128,-1,14
 186 -67 186 -67 177 -87 c 128,-1,15
 168 -107 168 -107 154.5 -117 c 128,-1,16
 141 -127 141 -127 122 -127 c 0,17,18
 94 -127 94 -127 66 -107 c 1,19,-1
 44 -193 l 1,20,21
 64 -205 64 -205 84 -211.5 c 128,-1,22
 104 -218 104 -218 127 -218 c 0,23,24
 169 -218 169 -218 197 -198.5 c 128,-1,25
 225 -179 225 -179 245 -141 c 128,-1,26
 265 -103 265 -103 278.5 -46.5 c 128,-1,27
 292 10 292 10 304 85 c 2,28,-1
 361 440 l 1,29,-1
 480 440 l 1,30,-1
 480 519 l 1,31,-1
 374 519 l 1,32,33
 381 574 381 574 388.5 614 c 128,-1,34
 396 654 396 654 406 680.5 c 128,-1,35
 416 707 416 707 430.5 720 c 128,-1,36
 445 733 445 733 467 733 c 256,37,38
 489 733 489 733 520 716 c 1,39,-1
 542 797 l 1,0,1
EndSplineSet
EndChar

StartChar: quotedblbase
Encoding: 8222 8222 112
Width: 587
Flags: W
LayerCount: 2
Fore
SplineSet
455 28 m 2,0,-1
 455 175 l 1,1,-1
 346 175 l 1,2,-1
 346 38 l 1,3,-1
 399 38 l 1,4,-1
 399 21 l 2,5,6
 399 -31 399 -31 383 -54.5 c 128,-1,7
 367 -78 367 -78 328 -84 c 1,8,-1
 328 -147 l 1,9,10
 455 -138 455 -138 455 28 c 2,0,-1
259 28 m 2,11,-1
 259 175 l 1,12,-1
 150 175 l 1,13,-1
 150 38 l 1,14,-1
 204 38 l 1,15,-1
 204 21 l 2,16,17
 204 -31 204 -31 187.5 -54.5 c 128,-1,18
 171 -78 171 -78 131 -84 c 1,19,-1
 131 -147 l 1,20,21
 194 -142 194 -142 226.5 -98 c 128,-1,22
 259 -54 259 -54 259 28 c 2,11,-1
EndSplineSet
EndChar

StartChar: ellipsis
Encoding: 8230 8230 113
Width: 587
Flags: W
LayerCount: 2
Fore
SplineSet
549 86 m 0,0,1
 549 117 549 117 530 139 c 128,-1,2
 511 161 511 161 484 161 c 256,3,4
 457 161 457 161 438 139 c 128,-1,5
 419 117 419 117 419 86 c 0,6,7
 419 53 419 53 438.5 31.5 c 128,-1,8
 458 10 458 10 484 10 c 0,9,10
 512 10 512 10 530.5 32 c 128,-1,11
 549 54 549 54 549 86 c 0,0,1
359 86 m 0,12,13
 359 117 359 117 339.5 139 c 128,-1,14
 320 161 320 161 293 161 c 256,15,16
 266 161 266 161 247 139 c 128,-1,17
 228 117 228 117 228 86 c 0,18,19
 228 53 228 53 247.5 31.5 c 128,-1,20
 267 10 267 10 293 10 c 0,21,22
 321 10 321 10 340 32 c 128,-1,23
 359 54 359 54 359 86 c 0,12,13
168 86 m 0,24,25
 168 117 168 117 148.5 139 c 128,-1,26
 129 161 129 161 102 161 c 256,27,28
 75 161 75 161 56 139 c 128,-1,29
 37 117 37 117 37 86 c 0,30,31
 37 53 37 53 56.5 31.5 c 128,-1,32
 76 10 76 10 102 10 c 0,33,34
 130 10 130 10 149 32 c 128,-1,35
 168 54 168 54 168 86 c 0,24,25
EndSplineSet
EndChar

StartChar: dagger
Encoding: 8224 8224 114
Width: 587
Flags: W
LayerCount: 2
Fore
SplineSet
503 471 m 1,0,-1
 503 555 l 1,1,-1
 333 555 l 1,2,-1
 333 771 l 1,3,-1
 254 771 l 1,4,-1
 254 555 l 1,5,-1
 84 555 l 1,6,-1
 84 471 l 1,7,-1
 254 471 l 1,8,-1
 254 -136 l 1,9,-1
 333 -136 l 1,10,-1
 333 471 l 1,11,-1
 503 471 l 1,0,-1
EndSplineSet
EndChar

StartChar: daggerdbl
Encoding: 8225 8225 115
Width: 587
Flags: W
LayerCount: 2
Fore
SplineSet
503 82 m 1,0,-1
 503 164 l 1,1,-1
 333 164 l 1,2,-1
 333 471 l 1,3,-1
 503 471 l 1,4,-1
 503 555 l 1,5,-1
 333 555 l 1,6,-1
 333 771 l 1,7,-1
 254 771 l 1,8,-1
 254 555 l 1,9,-1
 84 555 l 1,10,-1
 84 471 l 1,11,-1
 254 471 l 1,12,-1
 254 164 l 1,13,-1
 84 164 l 1,14,-1
 84 82 l 1,15,-1
 254 82 l 1,16,-1
 254 -136 l 1,17,-1
 333 -136 l 1,18,-1
 333 82 l 1,19,-1
 503 82 l 1,0,-1
EndSplineSet
EndChar

StartChar: circumflex
Encoding: 710 710 116
Width: 587
Flags: W
LayerCount: 2
Fore
SplineSet
430 637 m 1,0,-1
 340 825 l 1,1,-1
 248 825 l 1,2,-1
 157 637 l 1,3,-1
 213 637 l 1,4,-1
 294 760 l 1,5,-1
 374 637 l 1,6,-1
 430 637 l 1,0,-1
EndSplineSet
EndChar

StartChar: perthousand
Encoding: 8240 8240 117
Width: 587
Flags: W
LayerCount: 2
Fore
SplineSet
274 616 m 256,0,1
 274 648 274 648 263.5 676 c 128,-1,2
 253 704 253 704 234.5 725 c 128,-1,3
 216 746 216 746 192 758 c 128,-1,4
 168 770 168 770 141 770 c 256,5,6
 114 770 114 770 89.5 758 c 128,-1,7
 65 746 65 746 47 725.5 c 128,-1,8
 29 705 29 705 18.5 677 c 128,-1,9
 8 649 8 649 8 616 c 256,10,11
 8 583 8 583 18.5 554.5 c 128,-1,12
 29 526 29 526 47.5 505 c 128,-1,13
 66 484 66 484 90 472.5 c 128,-1,14
 114 461 114 461 141 461 c 256,15,16
 168 461 168 461 192.5 473.5 c 128,-1,17
 217 486 217 486 235 507 c 128,-1,18
 253 528 253 528 263.5 556 c 128,-1,19
 274 584 274 584 274 616 c 256,0,1
526 529 m 1,20,-1
 508 581 l 1,21,-1
 24 357 l 1,22,-1
 41 306 l 1,23,-1
 526 529 l 1,20,-1
579 156 m 256,24,25
 579 188 579 188 568.5 216 c 128,-1,26
 558 244 558 244 540 265 c 128,-1,27
 522 286 522 286 497.5 298 c 128,-1,28
 473 310 473 310 446 310 c 256,29,30
 419 310 419 310 395 298 c 128,-1,31
 371 286 371 286 352.5 265.5 c 128,-1,32
 334 245 334 245 323.5 217 c 128,-1,33
 313 189 313 189 313 156 c 256,34,35
 313 123 313 123 324 94.5 c 128,-1,36
 335 66 335 66 353 45 c 128,-1,37
 371 24 371 24 395 12.5 c 128,-1,38
 419 1 419 1 446 1 c 0,39,40
 474 1 474 1 498 13.5 c 128,-1,41
 522 26 522 26 540 47 c 128,-1,42
 558 68 558 68 568.5 96 c 128,-1,43
 579 124 579 124 579 156 c 256,24,25
293 156 m 256,44,45
 293 188 293 188 282.5 216 c 128,-1,46
 272 244 272 244 254 265 c 128,-1,47
 236 286 236 286 211.5 298 c 128,-1,48
 187 310 187 310 160 310 c 256,49,50
 133 310 133 310 109 298 c 128,-1,51
 85 286 85 286 67 265.5 c 128,-1,52
 49 245 49 245 38.5 217 c 128,-1,53
 28 189 28 189 28 156 c 256,54,55
 28 123 28 123 38.5 94.5 c 128,-1,56
 49 66 49 66 67 45 c 128,-1,57
 85 24 85 24 109 12.5 c 128,-1,58
 133 1 133 1 160 1 c 0,59,60
 188 1 188 1 212 13.5 c 128,-1,61
 236 26 236 26 254 47 c 128,-1,62
 272 68 272 68 282.5 96 c 128,-1,63
 293 124 293 124 293 156 c 256,44,45
217 616 m 0,64,65
 217 578 217 578 194.5 552.5 c 128,-1,66
 172 527 172 527 141 527 c 0,67,68
 109 527 109 527 86.5 552.5 c 128,-1,69
 64 578 64 578 64 616 c 0,70,71
 64 635 64 635 70.5 651.5 c 128,-1,72
 77 668 77 668 87.5 680 c 128,-1,73
 98 692 98 692 112 698.5 c 128,-1,74
 126 705 126 705 141 705 c 256,75,76
 156 705 156 705 170 698 c 128,-1,77
 184 691 184 691 194.5 678.5 c 128,-1,78
 205 666 205 666 211 650 c 128,-1,79
 217 634 217 634 217 616 c 0,64,65
523 156 m 256,80,81
 523 119 523 119 500.5 92.5 c 128,-1,82
 478 66 478 66 446 66 c 0,83,84
 415 66 415 66 392 92.5 c 128,-1,85
 369 119 369 119 369 156 c 0,86,87
 369 175 369 175 375.5 191.5 c 128,-1,88
 382 208 382 208 392.5 220 c 128,-1,89
 403 232 403 232 417 238.5 c 128,-1,90
 431 245 431 245 446 245 c 0,91,92
 478 245 478 245 500.5 219 c 128,-1,93
 523 193 523 193 523 156 c 256,80,81
237 156 m 256,94,95
 237 119 237 119 214.5 92.5 c 128,-1,96
 192 66 192 66 160 66 c 0,97,98
 129 66 129 66 106.5 92.5 c 128,-1,99
 84 119 84 119 84 156 c 0,100,101
 84 194 84 194 107 219.5 c 128,-1,102
 130 245 130 245 160 245 c 0,103,104
 192 245 192 245 214.5 219 c 128,-1,105
 237 193 237 193 237 156 c 256,94,95
EndSplineSet
EndChar

StartChar: Scaron
Encoding: 352 352 118
Width: 587
Flags: W
LayerCount: 2
Fore
SplineSet
422 997 m 1,0,-1
 366 997 l 1,1,-1
 286 875 l 1,2,-1
 206 997 l 1,3,-1
 150 997 l 1,4,-1
 241 810 l 1,5,-1
 332 810 l 1,6,-1
 422 997 l 1,0,-1
522 222 m 256,7,8
 522 277 522 277 508 313 c 128,-1,9
 494 349 494 349 468 372 c 128,-1,10
 442 395 442 395 404 410 c 128,-1,11
 366 425 366 425 317 438 c 0,12,13
 274 450 274 450 244 459.5 c 128,-1,14
 214 469 214 469 195 483 c 128,-1,15
 176 497 176 497 167.5 518 c 128,-1,16
 159 539 159 539 159 573 c 0,17,18
 159 628 159 628 192 661 c 128,-1,19
 225 694 225 694 282 694 c 0,20,21
 342 694 342 694 377.5 654 c 128,-1,22
 413 614 413 614 418 537 c 1,23,-1
 504 537 l 1,24,-1
 504 539 l 2,25,26
 504 657 504 657 445.5 721 c 128,-1,27
 387 785 387 785 279 785 c 0,28,29
 232 785 232 785 193.5 768.5 c 128,-1,30
 155 752 155 752 127.5 722 c 128,-1,31
 100 692 100 692 84.5 650.5 c 128,-1,32
 69 609 69 609 69 558 c 0,33,34
 69 508 69 508 81.5 475.5 c 128,-1,35
 94 443 94 443 118 420.5 c 128,-1,36
 142 398 142 398 176 382.5 c 128,-1,37
 210 367 210 367 253 353 c 0,38,39
 297 339 297 339 331 328.5 c 128,-1,40
 365 318 365 318 388 304.5 c 128,-1,41
 411 291 411 291 423 269.5 c 128,-1,42
 435 248 435 248 435 211 c 0,43,44
 435 147 435 147 395 110 c 128,-1,45
 355 73 355 73 292 73 c 0,46,47
 221 73 221 73 178.5 120.5 c 128,-1,48
 136 168 136 168 136 253 c 1,49,-1
 49 253 l 1,50,51
 54 121 54 121 116 50.5 c 128,-1,52
 178 -20 178 -20 288 -20 c 0,53,54
 342 -20 342 -20 385.5 -2.5 c 128,-1,55
 429 15 429 15 459.5 46.5 c 128,-1,56
 490 78 490 78 506 122.5 c 128,-1,57
 522 167 522 167 522 222 c 256,7,8
EndSplineSet
EndChar

StartChar: guilsinglleft
Encoding: 8249 8249 119
Width: 587
Flags: W
LayerCount: 2
Fore
SplineSet
369 103 m 1,0,-1
 369 206 l 1,1,-1
 270 305 l 1,2,-1
 369 403 l 1,3,-1
 369 506 l 1,4,-1
 218 363 l 1,5,-1
 218 246 l 1,6,-1
 369 103 l 1,0,-1
EndSplineSet
EndChar

StartChar: OE
Encoding: 338 338 120
Width: 587
Flags: W
LayerCount: 2
Fore
SplineSet
593 1 m 1,0,-1
 593 96 l 1,1,-1
 368 96 l 1,2,-1
 368 352 l 1,3,-1
 569 352 l 1,4,-1
 569 444 l 1,5,-1
 368 444 l 1,6,-1
 368 671 l 1,7,-1
 593 671 l 1,8,-1
 593 765 l 1,9,-1
 299 765 l 1,10,-1
 299 729 l 1,11,12
 269 788 269 788 185 788 c 0,13,14
 97 788 97 788 46 686.5 c 128,-1,15
 -5 585 -5 585 -5 390 c 0,16,17
 -5 189 -5 189 47.5 85.5 c 128,-1,18
 100 -18 100 -18 191 -18 c 0,19,20
 262 -18 262 -18 299 38 c 1,21,-1
 299 1 l 1,22,-1
 593 1 l 1,0,-1
279 156 m 1,23,24
 261 111 261 111 242.5 91 c 128,-1,25
 224 71 224 71 194 71 c 0,26,27
 84 71 84 71 84 390 c 0,28,29
 84 700 84 700 193 700 c 0,30,31
 221 700 221 700 241 680 c 128,-1,32
 261 660 261 660 279 619 c 1,33,-1
 279 156 l 1,23,24
EndSplineSet
EndChar

StartChar: quoteleft
Encoding: 8216 8216 121
Width: 587
Flags: W
LayerCount: 2
Fore
SplineSet
357 702 m 1,0,-1
 357 764 l 1,1,2
 295 759 295 759 262.5 715 c 128,-1,3
 230 671 230 671 230 589 c 2,4,-1
 230 442 l 1,5,-1
 339 442 l 1,6,-1
 339 580 l 1,7,-1
 286 580 l 1,8,-1
 286 596 l 2,9,10
 286 648 286 648 302 672 c 128,-1,11
 318 696 318 696 357 702 c 1,0,-1
EndSplineSet
EndChar

StartChar: quoteright
Encoding: 8217 8217 122
Width: 586
Flags: W
LayerCount: 2
Fore
SplineSet
357 598 m 2,0,-1
 357 745 l 1,1,-1
 248 745 l 1,2,-1
 248 608 l 1,3,-1
 301 608 l 1,4,-1
 301 591 l 2,5,6
 301 539 301 539 285 515.5 c 128,-1,7
 269 492 269 492 230 486 c 1,8,-1
 230 424 l 1,9,10
 292 429 292 429 324.5 472.5 c 128,-1,11
 357 516 357 516 357 598 c 2,0,-1
EndSplineSet
EndChar

StartChar: quotedblleft
Encoding: 8220 8220 123
Width: 587
Flags: W
LayerCount: 2
Fore
SplineSet
455 702 m 1,0,-1
 455 764 l 1,1,2
 393 759 393 759 360.5 715 c 128,-1,3
 328 671 328 671 328 589 c 2,4,-1
 328 442 l 1,5,-1
 437 442 l 1,6,-1
 437 580 l 1,7,-1
 384 580 l 1,8,-1
 384 596 l 2,9,10
 384 648 384 648 400 672 c 128,-1,11
 416 696 416 696 455 702 c 1,0,-1
259 702 m 1,12,-1
 259 764 l 1,13,14
 197 759 197 759 164.5 715 c 128,-1,15
 132 671 132 671 132 589 c 2,16,-1
 132 442 l 1,17,-1
 240 442 l 1,18,-1
 240 580 l 1,19,-1
 187 580 l 1,20,-1
 187 596 l 2,21,22
 187 648 187 648 203.5 672 c 128,-1,23
 220 696 220 696 259 702 c 1,12,-1
EndSplineSet
EndChar

StartChar: quotedblright
Encoding: 8221 8221 124
Width: 587
Flags: W
LayerCount: 2
Fore
SplineSet
455 598 m 2,0,-1
 455 745 l 1,1,-1
 346 745 l 1,2,-1
 346 608 l 1,3,-1
 399 608 l 1,4,-1
 399 591 l 2,5,6
 399 539 399 539 383 515.5 c 128,-1,7
 367 492 367 492 328 486 c 1,8,-1
 328 424 l 1,9,10
 455 433 455 433 455 598 c 2,0,-1
259 598 m 2,11,-1
 259 745 l 1,12,-1
 150 745 l 1,13,-1
 150 608 l 1,14,-1
 203 608 l 1,15,-1
 203 591 l 2,16,17
 203 539 203 539 187 515.5 c 128,-1,18
 171 492 171 492 132 486 c 1,19,-1
 132 424 l 1,20,21
 194 429 194 429 226.5 472.5 c 128,-1,22
 259 516 259 516 259 598 c 2,11,-1
EndSplineSet
EndChar

StartChar: bullet
Encoding: 8226 8226 125
Width: 587
Flags: W
LayerCount: 2
Fore
SplineSet
368 370 m 256,0,1
 368 388 368 388 362 403.5 c 128,-1,2
 356 419 356 419 346 431 c 128,-1,3
 336 443 336 443 322 450 c 128,-1,4
 308 457 308 457 293 457 c 0,5,6
 263 457 263 457 241 431.5 c 128,-1,7
 219 406 219 406 219 370 c 256,8,9
 219 334 219 334 241 309 c 128,-1,10
 263 284 263 284 293 284 c 0,11,12
 308 284 308 284 322 291 c 128,-1,13
 336 298 336 298 346 309.5 c 128,-1,14
 356 321 356 321 362 336.5 c 128,-1,15
 368 352 368 352 368 370 c 256,0,1
EndSplineSet
EndChar

StartChar: endash
Encoding: 8211 8211 126
Width: 587
Flags: W
LayerCount: 2
Fore
SplineSet
579 267 m 1,0,-1
 579 342 l 1,1,-1
 8 342 l 1,2,-1
 8 267 l 1,3,-1
 579 267 l 1,0,-1
EndSplineSet
EndChar

StartChar: emdash
Encoding: 8212 8212 127
Width: 587
Flags: W
LayerCount: 2
Fore
SplineSet
579 267 m 1,0,-1
 579 342 l 1,1,-1
 8 342 l 1,2,-1
 8 267 l 1,3,-1
 579 267 l 1,0,-1
EndSplineSet
EndChar

StartChar: tilde
Encoding: 732 732 128
Width: 587
Flags: W
LayerCount: 2
Fore
SplineSet
429 786 m 1,0,-1
 388 786 l 1,1,2
 375 748 375 748 345 748 c 0,3,4
 341 748 341 748 334.5 749 c 128,-1,5
 328 750 328 750 320 753 c 2,6,-1
 275 768 l 2,7,8
 263 772 263 772 247 772 c 0,9,10
 213 772 213 772 190 744 c 128,-1,11
 167 716 167 716 158 662 c 1,12,-1
 199 662 l 1,13,14
 213 700 213 700 241 700 c 0,15,16
 247 700 247 700 264 695 c 2,17,-1
 308 681 l 2,18,19
 326 676 326 676 339 676 c 0,20,21
 374 676 374 676 397 703.5 c 128,-1,22
 420 731 420 731 429 786 c 1,0,-1
EndSplineSet
EndChar

StartChar: trademark
Encoding: 8482 8482 129
Width: 587
Flags: W
LayerCount: 2
Fore
SplineSet
526 389 m 0,0,1
 526 415 526 415 502 418 c 1,2,-1
 497 608 l 1,3,4
 518 613 518 613 518 636 c 0,5,6
 518 650 518 650 511.5 657.5 c 128,-1,7
 505 665 505 665 495 665 c 2,8,-1
 464 665 l 2,9,10
 440 665 440 665 434 640 c 2,11,-1
 406 522 l 1,12,-1
 378 640 l 2,13,14
 372 665 372 665 347 665 c 2,15,-1
 317 665 l 2,16,17
 307 665 307 665 300.5 657.5 c 128,-1,18
 294 650 294 650 294 636 c 0,19,20
 294 612 294 612 314 608 c 1,21,-1
 310 418 l 1,22,23
 286 415 286 415 286 389 c 0,24,25
 286 359 286 359 310 359 c 2,26,-1
 360 359 l 2,27,28
 389 359 389 359 389 389 c 0,29,30
 389 418 389 418 358 418 c 2,31,-1
 354 418 l 1,32,-1
 354 570 l 1,33,-1
 378 469 l 2,34,35
 383 443 383 443 406 443 c 0,36,37
 427 443 427 443 432 469 c 2,38,-1
 456 570 l 1,39,-1
 456 418 l 1,40,-1
 452 418 l 2,41,42
 422 418 422 418 422 389 c 0,43,44
 422 359 422 359 452 359 c 2,45,-1
 502 359 l 2,46,47
 513 359 513 359 519.5 367 c 128,-1,48
 526 375 526 375 526 389 c 0,0,1
272 545 m 2,49,-1
 272 559 l 1,50,-1
 269 637 l 2,51,52
 267 666 267 666 244 666 c 2,53,-1
 87 666 l 2,54,55
 63 666 63 666 63 637 c 2,56,-1
 61 559 l 1,57,-1
 61 554 l 2,58,59
 61 534 61 534 65.5 525.5 c 128,-1,60
 70 517 70 517 84 517 c 256,61,62
 98 517 98 517 103.5 526 c 128,-1,63
 109 535 109 535 109 557 c 2,64,-1
 110 607 l 1,65,-1
 141 607 l 1,66,-1
 141 418 l 1,67,-1
 124 418 l 2,68,69
 107 418 107 418 99 412 c 128,-1,70
 91 406 91 406 91 389 c 0,71,72
 91 375 91 375 97.5 367 c 128,-1,73
 104 359 104 359 115 359 c 2,74,-1
 217 359 l 2,75,76
 228 359 228 359 234 367.5 c 128,-1,77
 240 376 240 376 240 389 c 0,78,79
 240 406 240 406 232.5 412 c 128,-1,80
 225 418 225 418 208 418 c 2,81,-1
 191 418 l 1,82,-1
 191 607 l 1,83,-1
 221 607 l 1,84,-1
 223 557 l 2,85,86
 224 535 224 535 229 526 c 128,-1,87
 234 517 234 517 248 517 c 0,88,89
 258 517 258 517 265 524.5 c 128,-1,90
 272 532 272 532 272 545 c 2,49,-1
EndSplineSet
EndChar

StartChar: scaron
Encoding: 353 353 130
Width: 587
Flags: W
LayerCount: 2
Fore
SplineSet
420 825 m 1,0,-1
 364 825 l 1,1,-1
 284 702 l 1,2,-1
 204 825 l 1,3,-1
 148 825 l 1,4,-1
 239 637 l 1,5,-1
 330 637 l 1,6,-1
 420 825 l 1,0,-1
488 183 m 0,7,8
 488 224 488 224 478 252 c 128,-1,9
 468 280 468 280 448.5 299.5 c 128,-1,10
 429 319 429 319 400.5 331 c 128,-1,11
 372 343 372 343 335 353 c 2,12,-1
 255 375 l 2,13,14
 215 386 215 386 195 401.5 c 128,-1,15
 175 417 175 417 175 452 c 0,16,17
 175 494 175 494 201 516 c 128,-1,18
 227 538 227 538 279 538 c 0,19,20
 330 538 330 538 359.5 513 c 128,-1,21
 389 488 389 488 391 443 c 1,22,-1
 473 443 l 1,23,-1
 473 445 l 2,24,25
 473 484 473 484 459.5 516.5 c 128,-1,26
 446 549 446 549 420.5 572.5 c 128,-1,27
 395 596 395 596 359.5 608.5 c 128,-1,28
 324 621 324 621 279 621 c 256,29,30
 234 621 234 621 199 608 c 128,-1,31
 164 595 164 595 140 572 c 128,-1,32
 116 549 116 549 103.5 517.5 c 128,-1,33
 91 486 91 486 91 449 c 0,34,35
 91 411 91 411 100 384 c 128,-1,36
 109 357 109 357 126.5 337.5 c 128,-1,37
 144 318 144 318 171 304.5 c 128,-1,38
 198 291 198 291 234 281 c 2,39,-1
 327 254 l 2,40,41
 346 249 346 249 360.5 243 c 128,-1,42
 375 237 375 237 385 228 c 128,-1,43
 395 219 395 219 400 205.5 c 128,-1,44
 405 192 405 192 405 172 c 0,45,46
 405 128 405 128 374.5 101 c 128,-1,47
 344 74 344 74 287 74 c 0,48,49
 169 74 169 74 161 193 c 1,50,-1
 80 193 l 1,51,52
 82 94 82 94 132.5 41 c 128,-1,53
 183 -12 183 -12 279 -12 c 0,54,55
 381 -12 381 -12 434.5 41 c 128,-1,56
 488 94 488 94 488 183 c 0,7,8
EndSplineSet
EndChar

StartChar: guilsinglright
Encoding: 8250 8250 131
Width: 587
Flags: W
LayerCount: 2
Fore
SplineSet
369 246 m 1,0,-1
 369 363 l 1,1,-1
 218 506 l 1,2,-1
 218 403 l 1,3,-1
 317 305 l 1,4,-1
 218 206 l 1,5,-1
 218 103 l 1,6,-1
 369 246 l 1,0,-1
EndSplineSet
EndChar

StartChar: oe
Encoding: 339 339 132
Width: 587
Flags: W
LayerCount: 2
Fore
SplineSet
600 320 m 0,0,1
 600 466 600 466 554 543.5 c 128,-1,2
 508 621 508 621 430 621 c 0,3,4
 393 621 393 621 360.5 599 c 128,-1,5
 328 577 328 577 297 534 c 1,6,7
 271 578 271 578 239 599.5 c 128,-1,8
 207 621 207 621 165 621 c 0,9,10
 83 621 83 621 35 538.5 c 128,-1,11
 -13 456 -13 456 -13 304 c 256,12,13
 -13 152 -13 152 34.5 70 c 128,-1,14
 82 -12 82 -12 165 -12 c 0,15,16
 210 -12 210 -12 243 10.5 c 128,-1,17
 276 33 276 33 299 78 c 1,18,19
 327 33 327 33 358 10.5 c 128,-1,20
 389 -12 389 -12 427 -12 c 0,21,22
 491 -12 491 -12 535.5 38 c 128,-1,23
 580 88 580 88 592 179 c 1,24,-1
 516 179 l 1,25,26
 508 127 508 127 486 100.5 c 128,-1,27
 464 74 464 74 435 74 c 0,28,29
 393 74 393 74 367 126 c 128,-1,30
 341 178 341 178 341 276 c 1,31,-1
 599 276 l 1,32,33
 600 288 600 288 600 298 c 0,34,35
 600 309 600 309 600 320 c 0,0,1
519 358 m 1,36,-1
 341 358 l 1,37,38
 343 446 343 446 367.5 490.5 c 128,-1,39
 392 535 392 535 430 535 c 0,40,41
 473 535 473 535 496 490.5 c 128,-1,42
 519 446 519 446 519 358 c 1,36,-1
262 305 m 256,43,44
 262 190 262 190 236 132 c 128,-1,45
 210 74 210 74 164 74 c 0,46,47
 119 74 119 74 92.5 132.5 c 128,-1,48
 66 191 66 191 66 305 c 0,49,50
 66 420 66 420 92 477.5 c 128,-1,51
 118 535 118 535 164 535 c 256,52,53
 210 535 210 535 236 477.5 c 128,-1,54
 262 420 262 420 262 305 c 256,43,44
EndSplineSet
EndChar

StartChar: Ydieresis
Encoding: 376 376 133
Width: 587
Flags: W
LayerCount: 2
Fore
SplineSet
404 842 m 1,0,-1
 404 955 l 1,1,-1
 320 955 l 1,2,-1
 320 842 l 1,3,-1
 404 842 l 1,0,-1
251 842 m 1,4,-1
 251 955 l 1,5,-1
 167 955 l 1,6,-1
 167 842 l 1,7,-1
 251 842 l 1,4,-1
551 766 m 1,8,-1
 452 766 l 1,9,-1
 290 404 l 1,10,-1
 125 766 l 1,11,-1
 20 766 l 1,12,-1
 246 304 l 1,13,-1
 246 1 l 1,14,-1
 334 1 l 1,15,-1
 334 310 l 1,16,-1
 551 766 l 1,8,-1
EndSplineSet
EndChar

StartChar: exclamdown
Encoding: 161 161 134
Width: 587
Flags: W
LayerCount: 2
Fore
SplineSet
360 621 m 1,0,-1
 360 785 l 1,1,-1
 227 785 l 1,2,-1
 227 621 l 1,3,-1
 360 621 l 1,0,-1
339 0 m 1,4,-1
 339 224 l 1,5,-1
 316 537 l 1,6,-1
 267 537 l 1,7,-1
 246 224 l 1,8,-1
 246 0 l 1,9,-1
 339 0 l 1,4,-1
EndSplineSet
EndChar

StartChar: cent
Encoding: 162 162 135
Width: 587
Flags: W
LayerCount: 2
Fore
SplineSet
530 221 m 1,0,-1
 450 221 l 1,1,2
 442 154 442 154 403 115 c 128,-1,3
 364 76 364 76 305 76 c 0,4,5
 293 76 293 76 281.5 78 c 128,-1,6
 270 80 270 80 257 82 c 1,7,-1
 389 514 l 1,8,9
 417 494 417 494 430.5 468.5 c 128,-1,10
 444 443 444 443 446 405 c 1,11,-1
 529 405 l 1,12,13
 528 470 528 470 498.5 519.5 c 128,-1,14
 469 569 469 569 415 597 c 1,15,-1
 448 704 l 1,16,-1
 400 704 l 1,17,-1
 372 612 l 1,18,19
 336 621 336 621 302 621 c 0,20,21
 246 621 246 621 200.5 599.5 c 128,-1,22
 155 578 155 578 123 537 c 128,-1,23
 91 496 91 496 74 437 c 128,-1,24
 57 378 57 378 57 303 c 0,25,26
 57 96 57 96 188 11 c 1,27,-1
 150 -108 l 1,28,-1
 198 -108 l 1,29,-1
 230 -2 l 1,30,31
 252 -6 252 -6 270 -8.5 c 128,-1,32
 288 -11 288 -11 305 -11 c 0,33,34
 352 -11 352 -11 392.5 6 c 128,-1,35
 433 23 433 23 462.5 53.5 c 128,-1,36
 492 84 492 84 510 126.5 c 128,-1,37
 528 169 528 169 530 221 c 1,0,-1
347 530 m 1,38,-1
 214 99 l 1,39,40
 143 158 143 158 143 307 c 0,41,42
 143 420 143 420 185 478.5 c 128,-1,43
 227 537 227 537 302 537 c 0,44,45
 326 537 326 537 347 530 c 1,38,-1
EndSplineSet
EndChar

StartChar: sterling
Encoding: 163 163 136
Width: 587
Flags: W
LayerCount: 2
Fore
SplineSet
531 37 m 1,0,-1
 493 110 l 1,1,2
 473 95 473 95 455 86.5 c 128,-1,3
 437 78 437 78 416 78 c 0,4,5
 401 78 401 78 384.5 83.5 c 128,-1,6
 368 89 368 89 350 96 c 128,-1,7
 332 103 332 103 311.5 108.5 c 128,-1,8
 291 114 291 114 268 114 c 0,9,10
 241 114 241 114 215 109.5 c 128,-1,11
 189 105 189 105 160 88 c 1,12,13
 255 189 255 189 255 278 c 0,14,15
 255 291 255 291 252.5 305.5 c 128,-1,16
 250 320 250 320 245 337 c 1,17,-1
 373 337 l 1,18,-1
 373 399 l 1,19,-1
 222 399 l 1,20,21
 202 445 202 445 186.5 481 c 128,-1,22
 171 517 171 517 171 552 c 0,23,24
 171 579 171 579 180.5 603 c 128,-1,25
 190 627 190 627 206.5 644.5 c 128,-1,26
 223 662 223 662 246.5 672.5 c 128,-1,27
 270 683 270 683 299 683 c 0,28,29
 361 683 361 683 395 644.5 c 128,-1,30
 429 606 429 606 429 533 c 2,31,-1
 429 524 l 1,32,-1
 513 524 l 1,33,34
 514 530 514 530 514 535 c 0,35,36
 514 541 514 541 514 546 c 0,37,38
 514 598 514 598 499 639.5 c 128,-1,39
 484 681 484 681 456 710 c 128,-1,40
 428 739 428 739 388 755 c 128,-1,41
 348 771 348 771 299 771 c 256,42,43
 250 771 250 771 210 753.5 c 128,-1,44
 170 736 170 736 141.5 706 c 128,-1,45
 113 676 113 676 97 637 c 128,-1,46
 81 598 81 598 81 555 c 0,47,48
 81 518 81 518 93 477.5 c 128,-1,49
 105 437 105 437 130 399 c 1,50,-1
 56 399 l 1,51,-1
 56 337 l 1,52,-1
 158 337 l 1,53,54
 166 317 166 317 171 298.5 c 128,-1,55
 176 280 176 280 176 260 c 0,56,57
 176 212 176 212 147 164 c 128,-1,58
 118 116 118 116 61 63 c 1,59,-1
 107 -11 l 1,60,61
 163 34 163 34 226 34 c 0,62,63
 262 34 262 34 289 22 c 2,64,-1
 333 2 l 2,65,66
 349 -5 349 -5 368 -11 c 128,-1,67
 387 -17 387 -17 414 -17 c 0,68,69
 447 -17 447 -17 474.5 -3.5 c 128,-1,70
 502 10 502 10 531 37 c 1,0,-1
EndSplineSet
EndChar

StartChar: currency
Encoding: 164 164 137
AltUni2: 0020ac.ffffffff.0
Width: 587
Flags: W
LayerCount: 2
Fore
SplineSet
534 235 m 1,0,-1
 443 235 l 1,1,2
 437 183 437 183 424 151 c 128,-1,3
 411 119 411 119 392 102 c 128,-1,4
 373 85 373 85 349 79 c 128,-1,5
 325 73 325 73 297 73 c 0,6,7
 241 73 241 73 201.5 128 c 128,-1,8
 162 183 162 183 150 290 c 1,9,-1
 516 290 l 1,10,-1
 516 355 l 1,11,-1
 145 355 l 1,12,13
 145 362 145 362 144.5 368.5 c 128,-1,14
 144 375 144 375 144 383 c 0,15,16
 144 408 144 408 145.5 430.5 c 128,-1,17
 147 453 147 453 149 474 c 1,18,-1
 516 474 l 1,19,-1
 516 540 l 1,20,-1
 160 540 l 1,21,22
 179 616 179 616 214 655 c 128,-1,23
 249 694 249 694 297 694 c 0,24,25
 321 694 321 694 342.5 691.5 c 128,-1,26
 364 689 364 689 381.5 678 c 128,-1,27
 399 667 399 667 412 645.5 c 128,-1,28
 425 624 425 624 433 585 c 1,29,-1
 523 585 l 1,30,31
 515 644 515 644 495.5 682.5 c 128,-1,32
 476 721 476 721 446.5 744 c 128,-1,33
 417 767 417 767 379 776.5 c 128,-1,34
 341 786 341 786 297 786 c 0,35,36
 211 786 211 786 151 723 c 128,-1,37
 91 660 91 660 67 540 c 1,38,-1
 2 540 l 1,39,-1
 2 474 l 1,40,-1
 58 474 l 1,41,42
 56 452 56 452 54.5 429.5 c 128,-1,43
 53 407 53 407 53 383 c 0,44,45
 53 376 53 376 53 369 c 256,46,47
 53 362 53 362 54 355 c 1,48,-1
 2 355 l 1,49,-1
 2 290 l 1,50,-1
 58 290 l 1,51,52
 74 140 74 140 137 60 c 128,-1,53
 200 -20 200 -20 297 -20 c 0,54,55
 345 -20 345 -20 386 -7.5 c 128,-1,56
 427 5 427 5 457.5 34.5 c 128,-1,57
 488 64 488 64 508 113 c 128,-1,58
 528 162 528 162 534 235 c 1,0,-1
EndSplineSet
EndChar

StartChar: yen
Encoding: 165 165 138
Width: 587
Flags: W
LayerCount: 2
Fore
SplineSet
572 298 m 1,0,-1
 572 357 l 1,1,-1
 367 357 l 1,2,-1
 399 417 l 1,3,-1
 572 417 l 1,4,-1
 572 476 l 1,5,-1
 430 476 l 1,6,-1
 572 749 l 1,7,-1
 476 749 l 1,8,-1
 298 397 l 1,9,-1
 120 749 l 1,10,-1
 15 749 l 1,11,-1
 163 476 l 1,12,-1
 15 476 l 1,13,-1
 15 417 l 1,14,-1
 194 417 l 1,15,-1
 227 357 l 1,16,-1
 15 357 l 1,17,-1
 15 298 l 1,18,-1
 255 298 l 1,19,-1
 255 2 l 1,20,-1
 341 2 l 1,21,-1
 341 298 l 1,22,-1
 572 298 l 1,0,-1
EndSplineSet
EndChar

StartChar: brokenbar
Encoding: 166 166 139
Width: 587
Flags: W
LayerCount: 2
Fore
SplineSet
321 372 m 1,0,-1
 321 779 l 1,1,-1
 265 779 l 1,2,-1
 265 372 l 1,3,-1
 321 372 l 1,0,-1
321 -180 m 1,4,-1
 321 229 l 1,5,-1
 265 229 l 1,6,-1
 265 -180 l 1,7,-1
 321 -180 l 1,4,-1
EndSplineSet
EndChar

StartChar: section
Encoding: 167 167 140
Width: 587
Flags: W
LayerCount: 2
Fore
SplineSet
494 309 m 0,0,1
 494 368 494 368 470.5 405 c 128,-1,2
 447 442 447 442 400 471 c 2,3,-1
 285 542 l 2,4,5
 250 564 250 564 233 585 c 128,-1,6
 216 606 216 606 216 636 c 0,7,8
 216 669 216 669 235 689 c 128,-1,9
 254 709 254 709 289 709 c 256,10,11
 324 709 324 709 346.5 684 c 128,-1,12
 369 659 369 659 370 614 c 1,13,-1
 450 614 l 1,14,-1
 450 620 l 2,15,16
 450 701 450 701 407 746 c 128,-1,17
 364 791 364 791 289 791 c 0,18,19
 254 791 254 791 225.5 778.5 c 128,-1,20
 197 766 197 766 177 744 c 128,-1,21
 157 722 157 722 145.5 691 c 128,-1,22
 134 660 134 660 134 624 c 0,23,24
 134 555 134 555 177 515 c 1,25,26
 93 449 93 449 93 361 c 0,27,28
 93 265 93 265 187 208 c 2,29,-1
 272 155 l 2,30,31
 324 122 324 122 350 96 c 128,-1,32
 376 70 376 70 376 33 c 0,33,34
 376 -2 376 -2 354.5 -22.5 c 128,-1,35
 333 -43 333 -43 295 -43 c 0,36,37
 253 -43 253 -43 229.5 -20 c 128,-1,38
 206 3 206 3 206 47 c 2,39,-1
 206 53 l 1,40,-1
 126 53 l 1,41,-1
 126 50 l 2,42,43
 126 9 126 9 138 -23.5 c 128,-1,44
 150 -56 150 -56 171 -79 c 128,-1,45
 192 -102 192 -102 222 -114.5 c 128,-1,46
 252 -127 252 -127 288 -127 c 0,47,48
 325 -127 325 -127 356 -114 c 128,-1,49
 387 -101 387 -101 409.5 -77.5 c 128,-1,50
 432 -54 432 -54 444 -23 c 128,-1,51
 456 8 456 8 456 44 c 0,52,53
 456 116 456 116 408 161 c 1,54,55
 427 170 427 170 443 185.5 c 128,-1,56
 459 201 459 201 470 221 c 128,-1,57
 481 241 481 241 487.5 263.5 c 128,-1,58
 494 286 494 286 494 309 c 0,0,1
411 296 m 0,59,60
 411 268 411 268 399.5 242.5 c 128,-1,61
 388 217 388 217 367 200 c 1,62,-1
 260 273 l 2,63,64
 219 301 219 301 196.5 325.5 c 128,-1,65
 174 350 174 350 174 389 c 0,66,67
 174 418 174 418 185.5 439.5 c 128,-1,68
 197 461 197 461 221 481 c 1,69,-1
 325 412 l 2,70,71
 346 398 346 398 362 386.5 c 128,-1,72
 378 375 378 375 389 361.5 c 128,-1,73
 400 348 400 348 405.5 332.5 c 128,-1,74
 411 317 411 317 411 296 c 0,59,60
EndSplineSet
EndChar

StartChar: dieresis
Encoding: 168 168 141
Width: 587
Flags: W
LayerCount: 2
Fore
SplineSet
412 669 m 1,0,-1
 412 782 l 1,1,-1
 328 782 l 1,2,-1
 328 669 l 1,3,-1
 412 669 l 1,0,-1
259 669 m 1,4,-1
 259 782 l 1,5,-1
 175 782 l 1,6,-1
 175 669 l 1,7,-1
 259 669 l 1,4,-1
EndSplineSet
EndChar

StartChar: copyright
Encoding: 169 169 142
Width: 587
Flags: W
LayerCount: 2
Fore
SplineSet
568 371 m 256,0,1
 568 434 568 434 546.5 493 c 128,-1,2
 525 552 525 552 487 597 c 128,-1,3
 449 642 449 642 398 665.5 c 128,-1,4
 347 689 347 689 293 689 c 0,5,6
 238 689 238 689 188 665 c 128,-1,7
 138 641 138 641 99 595 c 0,8,9
 59 550 59 550 39 492.5 c 128,-1,10
 19 435 19 435 19 371 c 0,11,12
 19 289 19 289 51 219.5 c 128,-1,13
 83 150 83 150 142 105 c 0,14,15
 176 79 176 79 214 65.5 c 128,-1,16
 252 52 252 52 293 52 c 0,17,18
 350 52 350 52 399 76 c 128,-1,19
 448 100 448 100 486 146 c 0,20,21
 526 192 526 192 547 250 c 128,-1,22
 568 308 568 308 568 371 c 256,0,1
522 371 m 0,23,24
 522 319 522 319 505 270.5 c 128,-1,25
 488 222 488 222 455 184 c 0,26,27
 423 146 423 146 380.5 126 c 128,-1,28
 338 106 338 106 293 106 c 256,29,30
 248 106 248 106 207 126 c 128,-1,31
 166 146 166 146 133 184 c 0,32,33
 101 222 101 222 83 270.5 c 128,-1,34
 65 319 65 319 65 371 c 0,35,36
 65 422 65 422 82.5 471 c 128,-1,37
 100 520 100 520 132 558 c 128,-1,38
 164 596 164 596 206 616 c 128,-1,39
 248 636 248 636 293 636 c 0,40,41
 339 636 339 636 381 616.5 c 128,-1,42
 423 597 423 597 455 559 c 0,43,44
 487 522 487 522 504.5 473 c 128,-1,45
 522 424 522 424 522 371 c 0,23,24
422 248 m 0,46,47
 422 279 422 279 394 279 c 0,48,49
 388 279 388 279 379 271.5 c 128,-1,50
 370 264 370 264 357.5 255.5 c 128,-1,51
 345 247 345 247 329 239.5 c 128,-1,52
 313 232 313 232 294 232 c 0,53,54
 252 232 252 232 224.5 268.5 c 128,-1,55
 197 305 197 305 197 368 c 0,56,57
 197 436 197 436 223 472.5 c 128,-1,58
 249 509 249 509 293 509 c 0,59,60
 317 509 317 509 334 496 c 128,-1,61
 351 483 351 483 354 466 c 0,62,63
 357 453 357 453 359 443.5 c 128,-1,64
 361 434 361 434 364 427.5 c 128,-1,65
 367 421 367 421 372.5 417.5 c 128,-1,66
 378 414 378 414 388 414 c 0,67,68
 404 414 404 414 410 422.5 c 128,-1,69
 416 431 416 431 416 450 c 2,70,-1
 416 487 l 2,71,72
 416 531 416 531 412 548 c 128,-1,73
 408 565 408 565 388 565 c 0,74,75
 371 565 371 565 364 553 c 1,76,77
 328 569 328 569 293 569 c 256,78,79
 258 569 258 569 229 553.5 c 128,-1,80
 200 538 200 538 178 510.5 c 128,-1,81
 156 483 156 483 144 445.5 c 128,-1,82
 132 408 132 408 132 364 c 0,83,84
 132 321 132 321 144.5 284.5 c 128,-1,85
 157 248 157 248 178.5 222 c 128,-1,86
 200 196 200 196 229 181 c 128,-1,87
 258 166 258 166 292 166 c 0,88,89
 319 166 319 166 342.5 174.5 c 128,-1,90
 366 183 366 183 383.5 195.5 c 128,-1,91
 401 208 401 208 411.5 222.5 c 128,-1,92
 422 237 422 237 422 248 c 0,46,47
EndSplineSet
EndChar

StartChar: ordfeminine
Encoding: 170 170 143
Width: 587
Flags: W
LayerCount: 2
Fore
SplineSet
469 357 m 1,0,-1
 469 409 l 1,1,2
 463 408 463 408 459 408 c 256,3,4
 455 408 455 408 453 408 c 0,5,6
 435 408 435 408 431.5 418 c 128,-1,7
 428 428 428 428 428 449 c 2,8,-1
 428 650 l 2,9,10
 428 715 428 715 393.5 744.5 c 128,-1,11
 359 774 359 774 284 774 c 0,12,13
 214 774 214 774 174.5 739.5 c 128,-1,14
 135 705 135 705 135 646 c 2,15,-1
 135 640 l 1,16,-1
 193 640 l 1,17,18
 193 715 193 715 282 715 c 0,19,20
 365 715 365 715 365 652 c 0,21,22
 365 633 365 633 362 623.5 c 128,-1,23
 359 614 359 614 349 609 c 128,-1,24
 339 604 339 604 319 601.5 c 128,-1,25
 299 599 299 599 265 595 c 0,26,27
 192 586 192 586 155 558 c 128,-1,28
 118 530 118 530 118 466 c 0,29,30
 118 412 118 412 149.5 379 c 128,-1,31
 181 346 181 346 239 346 c 0,32,33
 310 346 310 346 371 413 c 1,34,35
 371 351 371 351 432 351 c 0,36,37
 449 351 449 351 469 357 c 1,0,-1
449 218 m 1,38,-1
 449 276 l 1,39,-1
 131 276 l 1,40,-1
 131 218 l 1,41,-1
 449 218 l 1,38,-1
365 504 m 2,42,43
 365 460 365 460 332 433 c 128,-1,44
 299 406 299 406 249 406 c 0,45,46
 216 406 216 406 198.5 422.5 c 128,-1,47
 181 439 181 439 181 468 c 0,48,49
 181 502 181 502 197.5 516 c 128,-1,50
 214 530 214 530 249 537 c 0,51,52
 278 542 278 542 307 544.5 c 128,-1,53
 336 547 336 547 365 563 c 1,54,-1
 365 504 l 2,42,43
EndSplineSet
EndChar

StartChar: guillemotleft
Encoding: 171 171 144
Width: 587
Flags: W
LayerCount: 2
Fore
SplineSet
464 103 m 1,0,-1
 464 206 l 1,1,-1
 364 305 l 1,2,-1
 464 403 l 1,3,-1
 464 506 l 1,4,-1
 313 363 l 1,5,-1
 313 246 l 1,6,-1
 464 103 l 1,0,-1
273 103 m 1,7,-1
 273 206 l 1,8,-1
 174 305 l 1,9,-1
 273 403 l 1,10,-1
 273 506 l 1,11,-1
 123 363 l 1,12,-1
 123 246 l 1,13,-1
 273 103 l 1,7,-1
EndSplineSet
EndChar

StartChar: logicalnot
Encoding: 172 172 145
Width: 587
Flags: W
LayerCount: 2
Fore
SplineSet
533 236 m 2,0,-1
 533 473 l 2,1,2
 533 494 533 494 506 494 c 2,3,-1
 90 494 l 2,4,5
 74 494 74 494 64 483 c 128,-1,6
 54 472 54 472 54 455 c 256,7,8
 54 438 54 438 63.5 427 c 128,-1,9
 73 416 73 416 90 416 c 2,10,-1
 463 416 l 1,11,-1
 463 236 l 2,12,13
 463 218 463 218 473.5 205.5 c 128,-1,14
 484 193 484 193 498 193 c 0,15,16
 514 193 514 193 523.5 205 c 128,-1,17
 533 217 533 217 533 236 c 2,0,-1
EndSplineSet
EndChar

StartChar: registered
Encoding: 174 174 146
Width: 587
Flags: W
LayerCount: 2
Fore
SplineSet
568 371 m 256,0,1
 568 434 568 434 546.5 493 c 128,-1,2
 525 552 525 552 487 597 c 128,-1,3
 449 642 449 642 398 665.5 c 128,-1,4
 347 689 347 689 293 689 c 0,5,6
 238 689 238 689 188 665 c 128,-1,7
 138 641 138 641 99 595 c 0,8,9
 59 550 59 550 39 492.5 c 128,-1,10
 19 435 19 435 19 371 c 0,11,12
 19 289 19 289 51 219.5 c 128,-1,13
 83 150 83 150 142 105 c 0,14,15
 176 79 176 79 214 65.5 c 128,-1,16
 252 52 252 52 293 52 c 0,17,18
 350 52 350 52 399 76 c 128,-1,19
 448 100 448 100 486 146 c 0,20,21
 526 192 526 192 547 250 c 128,-1,22
 568 308 568 308 568 371 c 256,0,1
522 371 m 0,23,24
 522 319 522 319 505 270.5 c 128,-1,25
 488 222 488 222 455 184 c 0,26,27
 423 146 423 146 380.5 126 c 128,-1,28
 338 106 338 106 293 106 c 256,29,30
 248 106 248 106 207 126 c 128,-1,31
 166 146 166 146 133 184 c 0,32,33
 101 222 101 222 83 270.5 c 128,-1,34
 65 319 65 319 65 371 c 0,35,36
 65 422 65 422 82.5 471 c 128,-1,37
 100 520 100 520 132 558 c 128,-1,38
 164 596 164 596 206 616 c 128,-1,39
 248 636 248 636 293 636 c 0,40,41
 339 636 339 636 381 616.5 c 128,-1,42
 423 597 423 597 455 559 c 0,43,44
 487 522 487 522 504.5 473 c 128,-1,45
 522 424 522 424 522 371 c 0,23,24
441 226 m 256,46,47
 441 256 441 256 408 256 c 2,48,-1
 405 256 l 1,49,-1
 356 340 l 2,50,51
 353 346 353 346 350 350 c 128,-1,52
 347 354 347 354 345 357 c 1,53,54
 372 368 372 368 387.5 392.5 c 128,-1,55
 403 417 403 417 403 449 c 0,56,57
 403 506 403 506 369.5 532 c 128,-1,58
 336 558 336 558 270 558 c 2,59,-1
 181 558 l 2,60,61
 156 558 156 558 156 528 c 0,62,63
 156 510 156 510 165 505 c 128,-1,64
 174 500 174 500 194 500 c 2,65,-1
 200 500 l 1,66,-1
 200 256 l 1,67,-1
 194 256 l 2,68,69
 174 256 174 256 165 250 c 128,-1,70
 156 244 156 244 156 226 c 0,71,72
 156 196 156 196 181 196 c 2,73,-1
 265 196 l 2,74,75
 282 196 282 196 290 202.5 c 128,-1,76
 298 209 298 209 298 226 c 0,77,78
 298 256 298 256 263 256 c 2,79,-1
 255 256 l 1,80,-1
 255 346 l 1,81,-1
 263 346 l 2,82,83
 279 346 279 346 286 338.5 c 128,-1,84
 293 331 293 331 306 308 c 2,85,-1
 354 224 l 2,86,87
 362 210 362 210 368.5 203 c 128,-1,88
 375 196 375 196 388 196 c 2,89,-1
 415 196 l 2,90,91
 441 196 441 196 441 226 c 256,46,47
343 451 m 256,92,93
 343 402 343 402 281 402 c 2,94,-1
 255 402 l 1,95,-1
 255 500 l 1,96,-1
 282 500 l 2,97,98
 343 500 343 500 343 451 c 256,92,93
EndSplineSet
EndChar

StartChar: macron
Encoding: 175 175 147
Width: 587
Flags: W
LayerCount: 2
Fore
SplineSet
419 688 m 1,0,-1
 419 763 l 1,1,-1
 168 763 l 1,2,-1
 168 688 l 1,3,-1
 419 688 l 1,0,-1
EndSplineSet
EndChar

StartChar: degree
Encoding: 176 176 148
Width: 587
Flags: W
LayerCount: 2
Fore
SplineSet
427 606 m 0,0,1
 427 639 427 639 416.5 667 c 128,-1,2
 406 695 406 695 387.5 716 c 128,-1,3
 369 737 369 737 344.5 749 c 128,-1,4
 320 761 320 761 293 761 c 256,5,6
 266 761 266 761 241.5 749 c 128,-1,7
 217 737 217 737 199 716 c 128,-1,8
 181 695 181 695 170.5 667 c 128,-1,9
 160 639 160 639 160 606 c 0,10,11
 160 574 160 574 170 546 c 128,-1,12
 180 518 180 518 198 497 c 128,-1,13
 216 476 216 476 240.5 464 c 128,-1,14
 265 452 265 452 293 452 c 0,15,16
 322 452 322 452 346.5 464.5 c 128,-1,17
 371 477 371 477 389 498.5 c 128,-1,18
 407 520 407 520 417 548 c 128,-1,19
 427 576 427 576 427 606 c 0,0,1
384 607 m 256,20,21
 384 586 384 586 377 567 c 128,-1,22
 370 548 370 548 358 533 c 128,-1,23
 346 518 346 518 329 509.5 c 128,-1,24
 312 501 312 501 293 501 c 256,25,26
 274 501 274 501 257.5 509.5 c 128,-1,27
 241 518 241 518 229 532.5 c 128,-1,28
 217 547 217 547 210 566 c 128,-1,29
 203 585 203 585 203 607 c 0,30,31
 203 628 203 628 210 647 c 128,-1,32
 217 666 217 666 229.5 680 c 128,-1,33
 242 694 242 694 258.5 702 c 128,-1,34
 275 710 275 710 293 710 c 0,35,36
 312 710 312 710 328.5 702 c 128,-1,37
 345 694 345 694 357.5 680 c 128,-1,38
 370 666 370 666 377 647 c 128,-1,39
 384 628 384 628 384 607 c 256,20,21
EndSplineSet
EndChar

StartChar: plusminus
Encoding: 177 177 149
Width: 587
Flags: W
LayerCount: 2
Fore
SplineSet
514 431 m 1,0,-1
 514 505 l 1,1,-1
 326 505 l 1,2,-1
 326 695 l 1,3,-1
 261 695 l 1,4,-1
 261 505 l 1,5,-1
 73 505 l 1,6,-1
 73 431 l 1,7,-1
 261 431 l 1,8,-1
 261 240 l 1,9,-1
 326 240 l 1,10,-1
 326 431 l 1,11,-1
 514 431 l 1,0,-1
514 89 m 1,12,-1
 514 165 l 1,13,-1
 73 165 l 1,14,-1
 73 89 l 1,15,-1
 514 89 l 1,12,-1
EndSplineSet
EndChar

StartChar: twosuperior
Encoding: 178 178 150
Width: 587
Flags: W
LayerCount: 2
Fore
SplineSet
460 206 m 1,0,-1
 460 277 l 1,1,-1
 204 277 l 1,2,3
 211 298 211 298 223 314 c 128,-1,4
 235 330 235 330 250 343.5 c 128,-1,5
 265 357 265 357 282.5 369 c 128,-1,6
 300 381 300 381 320 394 c 2,7,-1
 355 416 l 2,8,9
 411 451 411 451 435.5 489.5 c 128,-1,10
 460 528 460 528 460 584 c 0,11,12
 460 657 460 657 415.5 700 c 128,-1,13
 371 743 371 743 299 743 c 0,14,15
 226 743 226 743 182 694.5 c 128,-1,16
 138 646 138 646 138 560 c 2,17,-1
 138 550 l 1,18,-1
 207 550 l 1,19,-1
 207 556 l 2,20,21
 207 613 207 613 231.5 644 c 128,-1,22
 256 675 256 675 301 675 c 0,23,24
 340 675 340 675 364 650 c 128,-1,25
 388 625 388 625 388 581 c 0,26,27
 388 548 388 548 371.5 521.5 c 128,-1,28
 355 495 355 495 325 475 c 2,29,-1
 274 443 l 2,30,31
 236 419 236 419 208.5 394 c 128,-1,32
 181 369 181 369 163 341 c 128,-1,33
 145 313 145 313 136 280.5 c 128,-1,34
 127 248 127 248 127 209 c 2,35,-1
 127 206 l 1,36,-1
 460 206 l 1,0,-1
EndSplineSet
EndChar

StartChar: threesuperior
Encoding: 179 179 151
Width: 587
Flags: W
LayerCount: 2
Fore
SplineSet
465 367 m 0,0,1
 465 467 465 467 385 496 c 1,2,3
 416 510 416 510 431.5 537.5 c 128,-1,4
 447 565 447 565 447 603 c 0,5,6
 447 668 447 668 406.5 707 c 128,-1,7
 366 746 366 746 294 746 c 0,8,9
 218 746 218 746 175.5 700.5 c 128,-1,10
 133 655 133 655 133 575 c 2,11,-1
 133 570 l 1,12,-1
 201 570 l 1,13,-1
 201 573 l 2,14,15
 201 624 201 624 224 650.5 c 128,-1,16
 247 677 247 677 288 677 c 0,17,18
 374 677 374 677 374 598 c 0,19,20
 374 561 374 561 353.5 540.5 c 128,-1,21
 333 520 333 520 291 520 c 2,22,-1
 270 520 l 1,23,-1
 259 520 l 1,24,-1
 259 454 l 1,25,26
 270 455 270 455 278 456 c 128,-1,27
 286 457 286 457 292 457 c 0,28,29
 341 457 341 457 366 432.5 c 128,-1,30
 391 408 391 408 391 366 c 0,31,32
 391 321 391 321 364.5 294.5 c 128,-1,33
 338 268 338 268 289 268 c 0,34,35
 244 268 244 268 218.5 298.5 c 128,-1,36
 193 329 193 329 193 369 c 2,37,-1
 193 380 l 1,38,-1
 122 380 l 1,39,-1
 122 375 l 2,40,41
 122 294 122 294 167 246.5 c 128,-1,42
 212 199 212 199 288 199 c 0,43,44
 330 199 330 199 363 211.5 c 128,-1,45
 396 224 396 224 418.5 246.5 c 128,-1,46
 441 269 441 269 453 300 c 128,-1,47
 465 331 465 331 465 367 c 0,0,1
EndSplineSet
EndChar

StartChar: acute
Encoding: 180 180 152
Width: 587
Flags: W
LayerCount: 2
Fore
SplineSet
388 825 m 1,0,-1
 295 825 l 1,1,-1
 200 637 l 1,2,-1
 256 637 l 1,3,-1
 388 825 l 1,0,-1
EndSplineSet
EndChar

StartChar: mu
Encoding: 181 181 153
Width: 587
Flags: W
LayerCount: 2
Fore
SplineSet
531 491 m 0,0,1
 531 520 531 520 499 520 c 0,2,3
 476 520 476 520 469 512 c 128,-1,4
 462 504 462 504 458 482 c 2,5,-1
 415 232 l 2,6,7
 409 202 409 202 394 175.5 c 128,-1,8
 379 149 379 149 357.5 129.5 c 128,-1,9
 336 110 336 110 309 98.5 c 128,-1,10
 282 87 282 87 254 87 c 0,11,12
 180 87 180 87 180 159 c 0,13,14
 180 177 180 177 187 208 c 2,15,-1
 241 494 l 2,16,17
 242 498 242 498 242 503 c 0,18,19
 242 520 242 520 219 520 c 2,20,-1
 138 520 l 2,21,22
 96 520 96 520 96 477 c 0,23,24
 96 446 96 446 125 446 c 2,25,-1
 162 446 l 1,26,-1
 61 -120 l 2,27,28
 59 -134 59 -134 57.5 -146 c 128,-1,29
 56 -158 56 -158 56 -166 c 0,30,31
 56 -183 56 -183 63.5 -190 c 128,-1,32
 71 -197 71 -197 90 -197 c 0,33,34
 107 -197 107 -197 114.5 -182.5 c 128,-1,35
 122 -168 122 -168 127 -135 c 2,36,-1
 154 44 l 1,37,38
 183 11 183 11 232 11 c 0,39,40
 317 11 317 11 389 88 c 1,41,-1
 379 50 l 2,42,43
 378 45 378 45 378 40 c 0,44,45
 378 23 378 23 400 23 c 2,46,-1
 474 23 l 2,47,48
 515 23 515 23 515 66 c 0,49,50
 515 97 515 97 488 97 c 2,51,-1
 458 97 l 1,52,-1
 530 481 l 2,53,54
 531 484 531 484 531 491 c 0,0,1
EndSplineSet
EndChar

StartChar: paragraph
Encoding: 182 182 154
Width: 587
Flags: W
LayerCount: 2
Fore
SplineSet
501 744 m 1,0,-1
 501 791 l 1,1,-1
 269 791 l 2,2,3
 227 791 227 791 193 777 c 128,-1,4
 159 763 159 763 135 738 c 128,-1,5
 111 713 111 713 98.5 678.5 c 128,-1,6
 86 644 86 644 86 603 c 0,7,8
 86 563 86 563 98 529.5 c 128,-1,9
 110 496 110 496 132.5 471.5 c 128,-1,10
 155 447 155 447 187 432.5 c 128,-1,11
 219 418 219 418 259 417 c 1,12,-1
 259 0 l 1,13,-1
 312 0 l 1,14,-1
 312 744 l 1,15,-1
 393 744 l 1,16,-1
 393 0 l 1,17,-1
 445 0 l 1,18,-1
 445 744 l 1,19,-1
 501 744 l 1,0,-1
EndSplineSet
EndChar

StartChar: periodcentered
Encoding: 183 183 155
AltUni2: 002219.ffffffff.0
Width: 587
Flags: W
LayerCount: 2
Fore
SplineSet
362 375 m 0,0,1
 362 391 362 391 356.5 405.5 c 128,-1,2
 351 420 351 420 341.5 431 c 128,-1,3
 332 442 332 442 319.5 448.5 c 128,-1,4
 307 455 307 455 293 455 c 0,5,6
 264 455 264 455 244.5 431 c 128,-1,7
 225 407 225 407 225 375 c 0,8,9
 225 340 225 340 244.5 318 c 128,-1,10
 264 296 264 296 293 296 c 256,11,12
 322 296 322 296 342 319 c 128,-1,13
 362 342 362 342 362 375 c 0,0,1
EndSplineSet
EndChar

StartChar: cedilla
Encoding: 184 184 156
Width: 587
Flags: W
LayerCount: 2
Fore
SplineSet
412 -104 m 0,0,1
 412 -57 412 -57 386 -32 c 128,-1,2
 360 -7 360 -7 309 -7 c 2,3,-1
 295 -7 l 1,4,-1
 295 48 l 1,5,-1
 259 48 l 1,6,-1
 259 -59 l 1,7,8
 269 -58 269 -58 276 -58 c 256,9,10
 283 -58 283 -58 288 -58 c 0,11,12
 346 -58 346 -58 346 -104 c 0,13,14
 346 -148 346 -148 291 -148 c 0,15,16
 277 -148 277 -148 248.5 -144 c 128,-1,17
 220 -140 220 -140 176 -127 c 1,18,-1
 176 -181 l 1,19,20
 214 -194 214 -194 244 -200 c 128,-1,21
 274 -206 274 -206 295 -206 c 0,22,23
 353 -206 353 -206 382.5 -179 c 128,-1,24
 412 -152 412 -152 412 -104 c 0,0,1
EndSplineSet
EndChar

StartChar: onesuperior
Encoding: 185 185 157
Width: 587
Flags: W
LayerCount: 2
Fore
SplineSet
387 205 m 1,0,-1
 387 746 l 1,1,-1
 335 746 l 1,2,3
 330 690 330 690 296 667 c 128,-1,4
 262 644 262 644 198 643 c 1,5,-1
 198 589 l 1,6,-1
 314 589 l 1,7,-1
 314 205 l 1,8,-1
 387 205 l 1,0,-1
EndSplineSet
EndChar

StartChar: ordmasculine
Encoding: 186 186 158
Width: 587
Flags: W
LayerCount: 2
Fore
SplineSet
460 560 m 256,0,1
 460 663 460 663 416 718.5 c 128,-1,2
 372 774 372 774 293 774 c 0,3,4
 216 774 216 774 171.5 718.5 c 128,-1,5
 127 663 127 663 127 560 c 0,6,7
 127 458 127 458 171.5 401.5 c 128,-1,8
 216 345 216 345 293 345 c 0,9,10
 371 345 371 345 415.5 401 c 128,-1,11
 460 457 460 457 460 560 c 256,0,1
443 218 m 1,12,-1
 443 276 l 1,13,-1
 144 276 l 1,14,-1
 144 218 l 1,15,-1
 443 218 l 1,12,-1
397 560 m 0,16,17
 397 485 397 485 370.5 446 c 128,-1,18
 344 407 344 407 294 407 c 256,19,20
 244 407 244 407 217 446 c 128,-1,21
 190 485 190 485 190 560 c 0,22,23
 190 636 190 636 217 675 c 128,-1,24
 244 714 244 714 294 714 c 0,25,26
 343 714 343 714 370 675 c 128,-1,27
 397 636 397 636 397 560 c 0,16,17
EndSplineSet
EndChar

StartChar: guillemotright
Encoding: 187 187 159
Width: 587
Flags: W
LayerCount: 2
Fore
SplineSet
464 246 m 1,0,-1
 464 363 l 1,1,-1
 313 506 l 1,2,-1
 313 403 l 1,3,-1
 412 305 l 1,4,-1
 313 206 l 1,5,-1
 313 103 l 1,6,-1
 464 246 l 1,0,-1
274 246 m 1,7,-1
 274 363 l 1,8,-1
 123 506 l 1,9,-1
 123 403 l 1,10,-1
 222 305 l 1,11,-1
 123 206 l 1,12,-1
 123 103 l 1,13,-1
 274 246 l 1,7,-1
EndSplineSet
EndChar

StartChar: onequarter
Encoding: 188 188 160
Width: 587
Flags: W
LayerCount: 2
Fore
SplineSet
251 434 m 1,0,-1
 251 893 l 1,1,-1
 200 893 l 1,2,3
 194 846 194 846 161 826.5 c 128,-1,4
 128 807 128 807 63 806 c 1,5,-1
 63 760 l 1,6,-1
 186 760 l 1,7,-1
 186 434 l 1,8,-1
 251 434 l 1,0,-1
552 407 m 1,9,-1
 539 467 l 1,10,-1
 36 325 l 1,11,-1
 46 263 l 1,12,-1
 552 407 l 1,9,-1
545 -22 m 1,13,-1
 545 32 l 1,14,-1
 481 32 l 1,15,-1
 481 319 l 1,16,-1
 423 319 l 1,17,-1
 230 37 l 1,18,-1
 230 -22 l 1,19,-1
 417 -22 l 1,20,-1
 417 -138 l 1,21,-1
 481 -138 l 1,22,-1
 481 -22 l 1,23,-1
 545 -22 l 1,13,-1
417 32 m 1,24,-1
 286 32 l 1,25,-1
 417 228 l 1,26,-1
 417 32 l 1,24,-1
EndSplineSet
EndChar

StartChar: onehalf
Encoding: 189 189 161
Width: 587
Flags: W
LayerCount: 2
Fore
SplineSet
251 434 m 1,0,-1
 251 893 l 1,1,-1
 200 893 l 1,2,3
 194 846 194 846 161 826.5 c 128,-1,4
 128 807 128 807 63 806 c 1,5,-1
 63 760 l 1,6,-1
 186 760 l 1,7,-1
 186 434 l 1,8,-1
 251 434 l 1,0,-1
552 414 m 1,9,-1
 539 474 l 1,10,-1
 36 332 l 1,11,-1
 46 270 l 1,12,-1
 552 414 l 1,9,-1
549 -136 m 1,13,-1
 549 -79 l 1,14,-1
 324 -79 l 1,15,16
 332 -46 332 -46 358.5 -23.5 c 128,-1,17
 385 -1 385 -1 425 24 c 2,18,-1
 456 42 l 2,19,20
 505 73 505 73 527 105 c 128,-1,21
 549 137 549 137 549 185 c 0,22,23
 549 247 549 247 510.5 284.5 c 128,-1,24
 472 322 472 322 407 322 c 0,25,26
 344 322 344 322 305 280 c 128,-1,27
 266 238 266 238 266 166 c 2,28,-1
 266 157 l 1,29,-1
 325 157 l 1,30,-1
 325 162 l 2,31,32
 325 210 325 210 347 236 c 128,-1,33
 369 262 369 262 405 262 c 0,34,35
 443 262 443 262 464.5 240.5 c 128,-1,36
 486 219 486 219 486 182 c 0,37,38
 486 155 486 155 472 131.5 c 128,-1,39
 458 108 458 108 430 92 c 2,40,-1
 385 67 l 2,41,42
 316 28 316 28 285.5 -18 c 128,-1,43
 255 -64 255 -64 255 -132 c 2,44,-1
 255 -136 l 1,45,-1
 549 -136 l 1,13,-1
EndSplineSet
EndChar

StartChar: threequarters
Encoding: 190 190 162
Width: 587
Flags: W
LayerCount: 2
Fore
SplineSet
338 573 m 0,0,1
 338 657 338 657 266 682 c 1,2,3
 322 705 322 705 322 772 c 0,4,5
 322 828 322 828 286 860.5 c 128,-1,6
 250 893 250 893 186 893 c 0,7,8
 117 893 117 893 79.5 854.5 c 128,-1,9
 42 816 42 816 42 747 c 2,10,-1
 42 744 l 1,11,-1
 105 744 l 1,12,-1
 105 752 l 2,13,14
 105 793 105 793 125 815 c 128,-1,15
 145 837 145 837 183 837 c 0,16,17
 218 837 218 837 237 819 c 128,-1,18
 256 801 256 801 256 773 c 0,19,20
 256 704 256 704 182 704 c 2,21,-1
 155 704 l 1,22,-1
 155 646 l 1,23,24
 166 646 166 646 172.5 647 c 128,-1,25
 179 648 179 648 181 648 c 0,26,27
 227 648 227 648 249.5 628 c 128,-1,28
 272 608 272 608 272 572 c 0,29,30
 272 533 272 533 248.5 510.5 c 128,-1,31
 225 488 225 488 184 488 c 0,32,33
 163 488 163 488 146.5 495 c 128,-1,34
 130 502 130 502 118.5 514 c 128,-1,35
 107 526 107 526 101.5 541.5 c 128,-1,36
 96 557 96 557 96 573 c 0,37,38
 96 575 96 575 95.5 577.5 c 128,-1,39
 95 580 95 580 95 583 c 2,40,-1
 32 583 l 1,41,-1
 32 576 l 2,42,43
 32 510 32 510 71.5 469.5 c 128,-1,44
 111 429 111 429 180 429 c 0,45,46
 255 429 255 429 296.5 469.5 c 128,-1,47
 338 510 338 510 338 573 c 0,0,1
555 407 m 1,48,-1
 542 467 l 1,49,-1
 39 325 l 1,50,-1
 49 263 l 1,51,-1
 555 407 l 1,48,-1
548 -22 m 1,52,-1
 548 32 l 1,53,-1
 484 32 l 1,54,-1
 484 319 l 1,55,-1
 427 319 l 1,56,-1
 233 37 l 1,57,-1
 233 -22 l 1,58,-1
 420 -22 l 1,59,-1
 420 -138 l 1,60,-1
 484 -138 l 1,61,-1
 484 -22 l 1,62,-1
 548 -22 l 1,52,-1
420 32 m 1,63,-1
 289 32 l 1,64,-1
 420 228 l 1,65,-1
 420 32 l 1,63,-1
EndSplineSet
EndChar

StartChar: questiondown
Encoding: 191 191 163
Width: 587
Flags: W
LayerCount: 2
Fore
SplineSet
365 621 m 1,0,-1
 365 785 l 1,1,-1
 234 785 l 1,2,-1
 234 621 l 1,3,-1
 365 621 l 1,0,-1
498 229 m 2,4,-1
 498 242 l 1,5,-1
 415 242 l 1,6,7
 410 86 410 86 289 86 c 0,8,9
 237 86 237 86 208 116.5 c 128,-1,10
 179 147 179 147 179 198 c 0,11,12
 179 231 179 231 191.5 259 c 128,-1,13
 204 287 204 287 231 315 c 2,14,-1
 268 353 l 2,15,16
 304 391 304 391 322.5 432.5 c 128,-1,17
 341 474 341 474 341 529 c 0,18,19
 341 537 341 537 340.5 543.5 c 128,-1,20
 340 550 340 550 340 557 c 1,21,-1
 257 557 l 1,22,23
 258 550 258 550 258 543 c 0,24,25
 258 537 258 537 258 532 c 0,26,27
 258 507 258 507 254.5 488.5 c 128,-1,28
 251 470 251 470 243.5 454.5 c 128,-1,29
 236 439 236 439 224.5 425.5 c 128,-1,30
 213 412 213 412 198 396 c 2,31,-1
 160 357 l 2,32,33
 89 285 89 285 89 193 c 0,34,35
 89 151 89 151 102.5 115.5 c 128,-1,36
 116 80 116 80 141.5 54.5 c 128,-1,37
 167 29 167 29 203.5 14.5 c 128,-1,38
 240 0 240 0 285 0 c 0,39,40
 388 0 388 0 443 60 c 128,-1,41
 498 120 498 120 498 229 c 2,4,-1
EndSplineSet
EndChar

StartChar: Agrave
Encoding: 192 192 164
Width: 587
Flags: W
LayerCount: 2
Fore
SplineSet
379 810 m 1,0,-1
 284 997 l 1,1,-1
 191 997 l 1,2,-1
 323 810 l 1,3,-1
 379 810 l 1,0,-1
575 1 m 1,4,-1
 333 766 l 1,5,-1
 237 766 l 1,6,-1
 -4 1 l 1,7,-1
 84 1 l 1,8,-1
 153 226 l 1,9,-1
 416 226 l 1,10,-1
 485 1 l 1,11,-1
 575 1 l 1,4,-1
387 319 m 1,12,-1
 183 319 l 1,13,-1
 285 656 l 1,14,-1
 387 319 l 1,12,-1
EndSplineSet
EndChar

StartChar: Aacute
Encoding: 193 193 165
Width: 587
Flags: W
LayerCount: 2
Fore
SplineSet
380 997 m 1,0,-1
 287 997 l 1,1,-1
 192 810 l 1,2,-1
 248 810 l 1,3,-1
 380 997 l 1,0,-1
575 1 m 1,4,-1
 333 766 l 1,5,-1
 237 766 l 1,6,-1
 -4 1 l 1,7,-1
 84 1 l 1,8,-1
 153 226 l 1,9,-1
 416 226 l 1,10,-1
 485 1 l 1,11,-1
 575 1 l 1,4,-1
387 319 m 1,12,-1
 183 319 l 1,13,-1
 285 656 l 1,14,-1
 387 319 l 1,12,-1
EndSplineSet
EndChar

StartChar: Acircumflex
Encoding: 194 194 166
Width: 587
Flags: W
LayerCount: 2
Fore
SplineSet
422 810 m 1,0,-1
 332 997 l 1,1,-1
 240 997 l 1,2,-1
 149 810 l 1,3,-1
 205 810 l 1,4,-1
 286 932 l 1,5,-1
 366 810 l 1,6,-1
 422 810 l 1,0,-1
575 1 m 1,7,-1
 333 766 l 1,8,-1
 237 766 l 1,9,-1
 -4 1 l 1,10,-1
 84 1 l 1,11,-1
 153 226 l 1,12,-1
 416 226 l 1,13,-1
 485 1 l 1,14,-1
 575 1 l 1,7,-1
387 319 m 1,15,-1
 183 319 l 1,16,-1
 285 656 l 1,17,-1
 387 319 l 1,15,-1
EndSplineSet
EndChar

StartChar: Atilde
Encoding: 195 195 167
Width: 587
Flags: W
LayerCount: 2
Fore
SplineSet
421 958 m 1,0,-1
 380 958 l 1,1,2
 367 921 367 921 337 921 c 0,3,4
 333 921 333 921 326.5 922 c 128,-1,5
 320 923 320 923 312 925 c 2,6,-1
 267 941 l 2,7,8
 255 945 255 945 239 945 c 0,9,10
 205 945 205 945 182 917 c 128,-1,11
 159 889 159 889 150 835 c 1,12,-1
 191 835 l 1,13,14
 205 873 205 873 233 873 c 0,15,16
 239 873 239 873 256 868 c 2,17,-1
 300 854 l 2,18,19
 316 848 316 848 331 848 c 0,20,21
 401 848 401 848 421 958 c 1,0,-1
575 1 m 1,22,-1
 333 766 l 1,23,-1
 237 766 l 1,24,-1
 -4 1 l 1,25,-1
 84 1 l 1,26,-1
 153 226 l 1,27,-1
 416 226 l 1,28,-1
 485 1 l 1,29,-1
 575 1 l 1,22,-1
387 319 m 1,30,-1
 183 319 l 1,31,-1
 285 656 l 1,32,-1
 387 319 l 1,30,-1
EndSplineSet
EndChar

StartChar: Adieresis
Encoding: 196 196 168
Width: 587
Flags: W
LayerCount: 2
Fore
SplineSet
404 842 m 1,0,-1
 404 955 l 1,1,-1
 320 955 l 1,2,-1
 320 842 l 1,3,-1
 404 842 l 1,0,-1
251 842 m 1,4,-1
 251 955 l 1,5,-1
 167 955 l 1,6,-1
 167 842 l 1,7,-1
 251 842 l 1,4,-1
575 1 m 1,8,-1
 333 766 l 1,9,-1
 237 766 l 1,10,-1
 -4 1 l 1,11,-1
 84 1 l 1,12,-1
 153 226 l 1,13,-1
 416 226 l 1,14,-1
 485 1 l 1,15,-1
 575 1 l 1,8,-1
387 319 m 1,16,-1
 183 319 l 1,17,-1
 285 656 l 1,18,-1
 387 319 l 1,16,-1
EndSplineSet
EndChar

StartChar: Aring
Encoding: 197 197 169
Width: 587
Flags: W
LayerCount: 2
Fore
SplineSet
411 912 m 0,0,1
 411 940 411 940 402 965 c 128,-1,2
 393 990 393 990 377 1008 c 128,-1,3
 361 1026 361 1026 340 1036.5 c 128,-1,4
 319 1047 319 1047 294 1047 c 256,5,6
 269 1047 269 1047 247.5 1036.5 c 128,-1,7
 226 1026 226 1026 210.5 1007.5 c 128,-1,8
 195 989 195 989 186 964.5 c 128,-1,9
 177 940 177 940 177 912 c 0,10,11
 177 883 177 883 186 858.5 c 128,-1,12
 195 834 195 834 210.5 815 c 128,-1,13
 226 796 226 796 247.5 785.5 c 128,-1,14
 269 775 269 775 294 775 c 256,15,16
 319 775 319 775 340 785.5 c 128,-1,17
 361 796 361 796 377 815 c 128,-1,18
 393 834 393 834 402 858.5 c 128,-1,19
 411 883 411 883 411 912 c 0,0,1
583 -12 m 1,20,-1
 341 752 l 1,21,-1
 245 752 l 1,22,-1
 4 -12 l 1,23,-1
 92 -12 l 1,24,-1
 161 212 l 1,25,-1
 424 212 l 1,26,-1
 493 -12 l 1,27,-1
 583 -12 l 1,20,-1
357 912 m 0,28,29
 357 881 357 881 338.5 860 c 128,-1,30
 320 839 320 839 294 839 c 256,31,32
 268 839 268 839 249.5 860 c 128,-1,33
 231 881 231 881 231 912 c 0,34,35
 231 941 231 941 249.5 962.5 c 128,-1,36
 268 984 268 984 294 984 c 256,37,38
 320 984 320 984 338.5 962.5 c 128,-1,39
 357 941 357 941 357 912 c 0,28,29
395 306 m 1,40,-1
 191 306 l 1,41,-1
 293 642 l 1,42,-1
 395 306 l 1,40,-1
EndSplineSet
EndChar

StartChar: AE
Encoding: 198 198 170
Width: 587
Flags: W
LayerCount: 2
Fore
SplineSet
612 1 m 1,0,-1
 612 97 l 1,1,-1
 369 97 l 1,2,-1
 369 353 l 1,3,-1
 584 353 l 1,4,-1
 584 442 l 1,5,-1
 369 442 l 1,6,-1
 369 671 l 1,7,-1
 609 671 l 1,8,-1
 609 766 l 1,9,-1
 200 766 l 1,10,-1
 -26 1 l 1,11,-1
 56 1 l 1,12,-1
 125 230 l 1,13,-1
 280 230 l 1,14,-1
 280 1 l 1,15,-1
 612 1 l 1,0,-1
280 319 m 1,16,-1
 152 319 l 1,17,-1
 258 678 l 1,18,-1
 280 678 l 1,19,-1
 280 319 l 1,16,-1
EndSplineSet
EndChar

StartChar: Ccedilla
Encoding: 199 199 171
Width: 587
Flags: W
LayerCount: 2
Fore
SplineSet
522 285 m 1,0,-1
 430 285 l 1,1,2
 419 180 419 180 380 126.5 c 128,-1,3
 341 73 341 73 285 73 c 0,4,5
 218 73 218 73 175 152 c 128,-1,6
 132 231 132 231 132 383 c 256,7,8
 132 535 132 535 174.5 614.5 c 128,-1,9
 217 694 217 694 285 694 c 0,10,11
 334 694 334 694 370 653.5 c 128,-1,12
 406 613 406 613 421 535 c 1,13,-1
 511 535 l 1,14,15
 503 594 503 594 483 640.5 c 128,-1,16
 463 687 463 687 434 719.5 c 128,-1,17
 405 752 405 752 367 769 c 128,-1,18
 329 786 329 786 285 786 c 0,19,20
 229 786 229 786 184 759.5 c 128,-1,21
 139 733 139 733 107.5 681.5 c 128,-1,22
 76 630 76 630 58.5 555 c 128,-1,23
 41 480 41 480 41 383 c 0,24,25
 41 206 41 206 96.5 103.5 c 128,-1,26
 152 1 152 1 247 -16 c 1,27,-1
 247 -59 l 1,28,29
 256 -58 256 -58 263 -58 c 256,30,31
 270 -58 270 -58 275 -58 c 0,32,33
 333 -58 333 -58 333 -104 c 0,34,35
 333 -148 333 -148 278 -148 c 0,36,37
 264 -148 264 -148 235.5 -144 c 128,-1,38
 207 -140 207 -140 163 -127 c 1,39,-1
 163 -181 l 1,40,41
 238 -206 238 -206 283 -206 c 0,42,43
 341 -206 341 -206 370.5 -179 c 128,-1,44
 400 -152 400 -152 400 -104 c 0,45,46
 400 -31 400 -31 338 -13 c 1,47,48
 413 7 413 7 462 83.5 c 128,-1,49
 511 160 511 160 522 285 c 1,0,-1
EndSplineSet
EndChar

StartChar: Egrave
Encoding: 200 200 172
Width: 587
Flags: W
LayerCount: 2
Fore
SplineSet
370 810 m 1,0,-1
 275 997 l 1,1,-1
 181 997 l 1,2,-1
 313 810 l 1,3,-1
 370 810 l 1,0,-1
485 1 m 1,4,-1
 485 94 l 1,5,-1
 155 94 l 1,6,-1
 155 352 l 1,7,-1
 449 352 l 1,8,-1
 449 444 l 1,9,-1
 155 444 l 1,10,-1
 155 672 l 1,11,-1
 478 672 l 1,12,-1
 478 765 l 1,13,-1
 67 765 l 1,14,-1
 67 1 l 1,15,-1
 485 1 l 1,4,-1
EndSplineSet
EndChar

StartChar: Eacute
Encoding: 201 201 173
Width: 587
Flags: W
LayerCount: 2
Fore
SplineSet
371 997 m 1,0,-1
 278 997 l 1,1,-1
 183 810 l 1,2,-1
 239 810 l 1,3,-1
 371 997 l 1,0,-1
485 1 m 1,4,-1
 485 94 l 1,5,-1
 155 94 l 1,6,-1
 155 352 l 1,7,-1
 449 352 l 1,8,-1
 449 444 l 1,9,-1
 155 444 l 1,10,-1
 155 672 l 1,11,-1
 478 672 l 1,12,-1
 478 765 l 1,13,-1
 67 765 l 1,14,-1
 67 1 l 1,15,-1
 485 1 l 1,4,-1
EndSplineSet
EndChar

StartChar: Ecircumflex
Encoding: 202 202 174
Width: 587
Flags: W
LayerCount: 2
Fore
SplineSet
413 810 m 1,0,-1
 322 997 l 1,1,-1
 231 997 l 1,2,-1
 140 810 l 1,3,-1
 196 810 l 1,4,-1
 277 932 l 1,5,-1
 356 810 l 1,6,-1
 413 810 l 1,0,-1
485 1 m 1,7,-1
 485 94 l 1,8,-1
 155 94 l 1,9,-1
 155 352 l 1,10,-1
 449 352 l 1,11,-1
 449 444 l 1,12,-1
 155 444 l 1,13,-1
 155 672 l 1,14,-1
 478 672 l 1,15,-1
 478 765 l 1,16,-1
 67 765 l 1,17,-1
 67 1 l 1,18,-1
 485 1 l 1,7,-1
EndSplineSet
EndChar

StartChar: Edieresis
Encoding: 203 203 175
Width: 587
Flags: W
LayerCount: 2
Fore
SplineSet
395 842 m 1,0,-1
 395 955 l 1,1,-1
 310 955 l 1,2,-1
 310 842 l 1,3,-1
 395 842 l 1,0,-1
242 842 m 1,4,-1
 242 955 l 1,5,-1
 157 955 l 1,6,-1
 157 842 l 1,7,-1
 242 842 l 1,4,-1
485 1 m 1,8,-1
 485 94 l 1,9,-1
 155 94 l 1,10,-1
 155 352 l 1,11,-1
 449 352 l 1,12,-1
 449 444 l 1,13,-1
 155 444 l 1,14,-1
 155 672 l 1,15,-1
 478 672 l 1,16,-1
 478 765 l 1,17,-1
 67 765 l 1,18,-1
 67 1 l 1,19,-1
 485 1 l 1,8,-1
EndSplineSet
EndChar

StartChar: Igrave
Encoding: 204 204 176
Width: 587
Flags: W
LayerCount: 2
Fore
SplineSet
379 810 m 1,0,-1
 284 997 l 1,1,-1
 191 997 l 1,2,-1
 323 810 l 1,3,-1
 379 810 l 1,0,-1
451 1 m 1,4,-1
 451 94 l 1,5,-1
 330 94 l 1,6,-1
 330 672 l 1,7,-1
 451 672 l 1,8,-1
 451 765 l 1,9,-1
 121 765 l 1,10,-1
 121 672 l 1,11,-1
 242 672 l 1,12,-1
 242 94 l 1,13,-1
 121 94 l 1,14,-1
 121 1 l 1,15,-1
 451 1 l 1,4,-1
EndSplineSet
EndChar

StartChar: Iacute
Encoding: 205 205 177
Width: 587
Flags: W
LayerCount: 2
Fore
SplineSet
381 997 m 1,0,-1
 288 997 l 1,1,-1
 193 810 l 1,2,-1
 249 810 l 1,3,-1
 381 997 l 1,0,-1
451 1 m 1,4,-1
 451 94 l 1,5,-1
 330 94 l 1,6,-1
 330 672 l 1,7,-1
 451 672 l 1,8,-1
 451 765 l 1,9,-1
 121 765 l 1,10,-1
 121 672 l 1,11,-1
 242 672 l 1,12,-1
 242 94 l 1,13,-1
 121 94 l 1,14,-1
 121 1 l 1,15,-1
 451 1 l 1,4,-1
EndSplineSet
EndChar

StartChar: Icircumflex
Encoding: 206 206 178
Width: 587
Flags: W
LayerCount: 2
Fore
SplineSet
422 810 m 1,0,-1
 332 997 l 1,1,-1
 241 997 l 1,2,-1
 150 810 l 1,3,-1
 206 810 l 1,4,-1
 286 932 l 1,5,-1
 366 810 l 1,6,-1
 422 810 l 1,0,-1
451 1 m 1,7,-1
 451 94 l 1,8,-1
 330 94 l 1,9,-1
 330 672 l 1,10,-1
 451 672 l 1,11,-1
 451 765 l 1,12,-1
 121 765 l 1,13,-1
 121 672 l 1,14,-1
 242 672 l 1,15,-1
 242 94 l 1,16,-1
 121 94 l 1,17,-1
 121 1 l 1,18,-1
 451 1 l 1,7,-1
EndSplineSet
EndChar

StartChar: Idieresis
Encoding: 207 207 179
Width: 587
Flags: W
LayerCount: 2
Fore
SplineSet
405 842 m 1,0,-1
 405 955 l 1,1,-1
 320 955 l 1,2,-1
 320 842 l 1,3,-1
 405 842 l 1,0,-1
252 842 m 1,4,-1
 252 955 l 1,5,-1
 167 955 l 1,6,-1
 167 842 l 1,7,-1
 252 842 l 1,4,-1
451 1 m 1,8,-1
 451 94 l 1,9,-1
 330 94 l 1,10,-1
 330 672 l 1,11,-1
 451 672 l 1,12,-1
 451 765 l 1,13,-1
 121 765 l 1,14,-1
 121 672 l 1,15,-1
 242 672 l 1,16,-1
 242 94 l 1,17,-1
 121 94 l 1,18,-1
 121 1 l 1,19,-1
 451 1 l 1,8,-1
EndSplineSet
EndChar

StartChar: Eth
Encoding: 208 208 180
Width: 587
Flags: W
LayerCount: 2
Fore
SplineSet
558 383 m 256,0,1
 558 473 558 473 541.5 544 c 128,-1,2
 525 615 525 615 494 664 c 128,-1,3
 463 713 463 713 417 739 c 128,-1,4
 371 765 371 765 313 765 c 2,5,-1
 93 765 l 1,6,-1
 93 446 l 1,7,-1
 28 446 l 1,8,-1
 28 371 l 1,9,-1
 93 371 l 1,10,-1
 93 1 l 1,11,-1
 313 1 l 2,12,13
 370 1 370 1 415.5 27 c 128,-1,14
 461 53 461 53 492.5 102.5 c 128,-1,15
 524 152 524 152 541 222.5 c 128,-1,16
 558 293 558 293 558 383 c 256,0,1
467 383 m 0,17,18
 467 242 467 242 426.5 167.5 c 128,-1,19
 386 93 386 93 306 93 c 2,20,-1
 182 93 l 1,21,-1
 182 371 l 1,22,-1
 324 371 l 1,23,-1
 324 446 l 1,24,-1
 182 446 l 1,25,-1
 182 673 l 1,26,-1
 306 673 l 2,27,28
 467 673 467 673 467 383 c 0,17,18
EndSplineSet
EndChar

StartChar: Ntilde
Encoding: 209 209 181
Width: 587
Flags: W
LayerCount: 2
Fore
SplineSet
421 958 m 1,0,-1
 380 958 l 1,1,2
 368 921 368 921 338 921 c 0,3,4
 333 921 333 921 326.5 922 c 128,-1,5
 320 923 320 923 312 925 c 2,6,-1
 267 941 l 2,7,8
 256 945 256 945 240 945 c 0,9,10
 205 945 205 945 182 917 c 128,-1,11
 159 889 159 889 151 835 c 1,12,-1
 191 835 l 1,13,14
 205 873 205 873 233 873 c 0,15,16
 238 873 238 873 243 871.5 c 128,-1,17
 248 870 248 870 256 868 c 2,18,-1
 301 854 l 2,19,20
 316 848 316 848 331 848 c 0,21,22
 403 848 403 848 421 958 c 1,0,-1
503 1 m 1,23,-1
 503 765 l 1,24,-1
 423 765 l 1,25,-1
 423 139 l 1,26,-1
 173 765 l 1,27,-1
 69 765 l 1,28,-1
 69 1 l 1,29,-1
 148 1 l 1,30,-1
 148 627 l 1,31,-1
 401 1 l 1,32,-1
 503 1 l 1,23,-1
EndSplineSet
EndChar

StartChar: Ograve
Encoding: 210 210 182
Width: 587
Flags: W
LayerCount: 2
Fore
SplineSet
379 810 m 1,0,-1
 284 997 l 1,1,-1
 191 997 l 1,2,-1
 323 810 l 1,3,-1
 379 810 l 1,0,-1
530 383 m 256,4,5
 530 479 530 479 512.5 554 c 128,-1,6
 495 629 495 629 463.5 680.5 c 128,-1,7
 432 732 432 732 386.5 759 c 128,-1,8
 341 786 341 786 286 786 c 0,9,10
 230 786 230 786 185 759.5 c 128,-1,11
 140 733 140 733 108 681.5 c 128,-1,12
 76 630 76 630 59 555 c 128,-1,13
 42 480 42 480 42 383 c 0,14,15
 42 287 42 287 59.5 212 c 128,-1,16
 77 137 77 137 108.5 85.5 c 128,-1,17
 140 34 140 34 185 7 c 128,-1,18
 230 -20 230 -20 286 -20 c 0,19,20
 341 -20 341 -20 386.5 7 c 128,-1,21
 432 34 432 34 463.5 85.5 c 128,-1,22
 495 137 495 137 512.5 212 c 128,-1,23
 530 287 530 287 530 383 c 256,4,5
439 383 m 256,24,25
 439 232 439 232 396.5 152.5 c 128,-1,26
 354 73 354 73 286 73 c 256,27,28
 218 73 218 73 175.5 152 c 128,-1,29
 133 231 133 231 133 383 c 256,30,31
 133 535 133 535 175.5 614.5 c 128,-1,32
 218 694 218 694 286 694 c 0,33,34
 355 694 355 694 397 614 c 128,-1,35
 439 534 439 534 439 383 c 256,24,25
EndSplineSet
EndChar

StartChar: Oacute
Encoding: 211 211 183
Width: 587
Flags: W
LayerCount: 2
Fore
SplineSet
381 997 m 1,0,-1
 288 997 l 1,1,-1
 193 810 l 1,2,-1
 249 810 l 1,3,-1
 381 997 l 1,0,-1
530 383 m 256,4,5
 530 479 530 479 512.5 554 c 128,-1,6
 495 629 495 629 463.5 680.5 c 128,-1,7
 432 732 432 732 386.5 759 c 128,-1,8
 341 786 341 786 286 786 c 0,9,10
 230 786 230 786 185 759.5 c 128,-1,11
 140 733 140 733 108 681.5 c 128,-1,12
 76 630 76 630 59 555 c 128,-1,13
 42 480 42 480 42 383 c 0,14,15
 42 287 42 287 59.5 212 c 128,-1,16
 77 137 77 137 108.5 85.5 c 128,-1,17
 140 34 140 34 185 7 c 128,-1,18
 230 -20 230 -20 286 -20 c 0,19,20
 341 -20 341 -20 386.5 7 c 128,-1,21
 432 34 432 34 463.5 85.5 c 128,-1,22
 495 137 495 137 512.5 212 c 128,-1,23
 530 287 530 287 530 383 c 256,4,5
439 383 m 256,24,25
 439 232 439 232 396.5 152.5 c 128,-1,26
 354 73 354 73 286 73 c 256,27,28
 218 73 218 73 175.5 152 c 128,-1,29
 133 231 133 231 133 383 c 256,30,31
 133 535 133 535 175.5 614.5 c 128,-1,32
 218 694 218 694 286 694 c 0,33,34
 355 694 355 694 397 614 c 128,-1,35
 439 534 439 534 439 383 c 256,24,25
EndSplineSet
EndChar

StartChar: Ocircumflex
Encoding: 212 212 184
Width: 587
Flags: W
LayerCount: 2
Fore
SplineSet
422 810 m 1,0,-1
 332 997 l 1,1,-1
 241 997 l 1,2,-1
 150 810 l 1,3,-1
 206 810 l 1,4,-1
 286 932 l 1,5,-1
 366 810 l 1,6,-1
 422 810 l 1,0,-1
530 383 m 256,7,8
 530 479 530 479 512.5 554 c 128,-1,9
 495 629 495 629 463.5 680.5 c 128,-1,10
 432 732 432 732 386.5 759 c 128,-1,11
 341 786 341 786 286 786 c 0,12,13
 230 786 230 786 185 759.5 c 128,-1,14
 140 733 140 733 108 681.5 c 128,-1,15
 76 630 76 630 59 555 c 128,-1,16
 42 480 42 480 42 383 c 0,17,18
 42 287 42 287 59.5 212 c 128,-1,19
 77 137 77 137 108.5 85.5 c 128,-1,20
 140 34 140 34 185 7 c 128,-1,21
 230 -20 230 -20 286 -20 c 0,22,23
 341 -20 341 -20 386.5 7 c 128,-1,24
 432 34 432 34 463.5 85.5 c 128,-1,25
 495 137 495 137 512.5 212 c 128,-1,26
 530 287 530 287 530 383 c 256,7,8
439 383 m 256,27,28
 439 232 439 232 396.5 152.5 c 128,-1,29
 354 73 354 73 286 73 c 256,30,31
 218 73 218 73 175.5 152 c 128,-1,32
 133 231 133 231 133 383 c 256,33,34
 133 535 133 535 175.5 614.5 c 128,-1,35
 218 694 218 694 286 694 c 0,36,37
 355 694 355 694 397 614 c 128,-1,38
 439 534 439 534 439 383 c 256,27,28
EndSplineSet
EndChar

StartChar: Otilde
Encoding: 213 213 185
Width: 587
Flags: W
LayerCount: 2
Fore
SplineSet
421 958 m 1,0,-1
 380 958 l 1,1,2
 368 921 368 921 338 921 c 0,3,4
 333 921 333 921 326.5 922 c 128,-1,5
 320 923 320 923 312 925 c 2,6,-1
 267 941 l 2,7,8
 256 945 256 945 240 945 c 0,9,10
 205 945 205 945 182 917 c 128,-1,11
 159 889 159 889 151 835 c 1,12,-1
 191 835 l 1,13,14
 205 873 205 873 233 873 c 0,15,16
 238 873 238 873 243 871.5 c 128,-1,17
 248 870 248 870 256 868 c 2,18,-1
 301 854 l 2,19,20
 316 848 316 848 331 848 c 0,21,22
 403 848 403 848 421 958 c 1,0,-1
530 383 m 256,23,24
 530 479 530 479 512.5 554 c 128,-1,25
 495 629 495 629 463.5 680.5 c 128,-1,26
 432 732 432 732 386.5 759 c 128,-1,27
 341 786 341 786 286 786 c 0,28,29
 230 786 230 786 185 759.5 c 128,-1,30
 140 733 140 733 108 681.5 c 128,-1,31
 76 630 76 630 59 555 c 128,-1,32
 42 480 42 480 42 383 c 0,33,34
 42 287 42 287 59.5 212 c 128,-1,35
 77 137 77 137 108.5 85.5 c 128,-1,36
 140 34 140 34 185 7 c 128,-1,37
 230 -20 230 -20 286 -20 c 0,38,39
 341 -20 341 -20 386.5 7 c 128,-1,40
 432 34 432 34 463.5 85.5 c 128,-1,41
 495 137 495 137 512.5 212 c 128,-1,42
 530 287 530 287 530 383 c 256,23,24
439 383 m 256,43,44
 439 232 439 232 396.5 152.5 c 128,-1,45
 354 73 354 73 286 73 c 256,46,47
 218 73 218 73 175.5 152 c 128,-1,48
 133 231 133 231 133 383 c 256,49,50
 133 535 133 535 175.5 614.5 c 128,-1,51
 218 694 218 694 286 694 c 0,52,53
 355 694 355 694 397 614 c 128,-1,54
 439 534 439 534 439 383 c 256,43,44
EndSplineSet
EndChar

StartChar: Odieresis
Encoding: 214 214 186
Width: 587
Flags: W
LayerCount: 2
Fore
SplineSet
405 842 m 1,0,-1
 405 955 l 1,1,-1
 320 955 l 1,2,-1
 320 842 l 1,3,-1
 405 842 l 1,0,-1
252 842 m 1,4,-1
 252 955 l 1,5,-1
 167 955 l 1,6,-1
 167 842 l 1,7,-1
 252 842 l 1,4,-1
530 383 m 256,8,9
 530 479 530 479 512.5 554 c 128,-1,10
 495 629 495 629 463.5 680.5 c 128,-1,11
 432 732 432 732 386.5 759 c 128,-1,12
 341 786 341 786 286 786 c 0,13,14
 230 786 230 786 185 759.5 c 128,-1,15
 140 733 140 733 108 681.5 c 128,-1,16
 76 630 76 630 59 555 c 128,-1,17
 42 480 42 480 42 383 c 0,18,19
 42 287 42 287 59.5 212 c 128,-1,20
 77 137 77 137 108.5 85.5 c 128,-1,21
 140 34 140 34 185 7 c 128,-1,22
 230 -20 230 -20 286 -20 c 0,23,24
 341 -20 341 -20 386.5 7 c 128,-1,25
 432 34 432 34 463.5 85.5 c 128,-1,26
 495 137 495 137 512.5 212 c 128,-1,27
 530 287 530 287 530 383 c 256,8,9
439 383 m 256,28,29
 439 232 439 232 396.5 152.5 c 128,-1,30
 354 73 354 73 286 73 c 256,31,32
 218 73 218 73 175.5 152 c 128,-1,33
 133 231 133 231 133 383 c 256,34,35
 133 535 133 535 175.5 614.5 c 128,-1,36
 218 694 218 694 286 694 c 0,37,38
 355 694 355 694 397 614 c 128,-1,39
 439 534 439 534 439 383 c 256,28,29
EndSplineSet
EndChar

StartChar: multiply
Encoding: 215 215 187
Width: 587
Flags: W
LayerCount: 2
Fore
SplineSet
477 181 m 0,0,1
 477 196 477 196 464 211 c 2,2,-1
 342 354 l 1,3,-1
 461 492 l 2,4,5
 473 506 473 506 473 521 c 0,6,7
 473 538 473 538 463 549.5 c 128,-1,8
 453 561 453 561 439 561 c 0,9,10
 427 561 427 561 413 547 c 2,11,-1
 294 409 l 1,12,-1
 171 552 l 2,13,14
 159 566 159 566 144 566 c 0,15,16
 130 566 130 566 120 554.5 c 128,-1,17
 110 543 110 543 110 528 c 0,18,19
 110 511 110 511 122 496 c 2,20,-1
 245 353 l 1,21,-1
 127 215 l 2,22,23
 116 202 116 202 116 183 c 0,24,25
 116 166 116 166 125 156 c 128,-1,26
 134 146 134 146 148 146 c 0,27,28
 155 146 155 146 162 150 c 128,-1,29
 169 154 169 154 175 160 c 2,30,-1
 293 297 l 1,31,-1
 416 155 l 2,32,33
 428 142 428 142 444 142 c 0,34,35
 458 142 458 142 467.5 153 c 128,-1,36
 477 164 477 164 477 181 c 0,0,1
EndSplineSet
EndChar

StartChar: Oslash
Encoding: 216 216 188
Width: 587
Flags: W
LayerCount: 2
Fore
SplineSet
554 755 m 1,0,-1
 502 791 l 1,1,-1
 451 704 l 1,2,3
 423 744 423 744 383 765 c 128,-1,4
 343 786 343 786 293 786 c 0,5,6
 237 786 237 786 192 759.5 c 128,-1,7
 147 733 147 733 115 681.5 c 128,-1,8
 83 630 83 630 66 555 c 128,-1,9
 49 480 49 480 49 383 c 0,10,11
 49 311 49 311 58.5 248 c 128,-1,12
 68 185 68 185 96 120 c 1,13,-1
 33 17 l 1,14,-1
 83 -23 l 1,15,-1
 134 61 l 1,16,17
 169 18 169 18 206.5 -1 c 128,-1,18
 244 -20 244 -20 293 -20 c 0,19,20
 349 -20 349 -20 394.5 7 c 128,-1,21
 440 34 440 34 472 86.5 c 128,-1,22
 504 139 504 139 521 215.5 c 128,-1,23
 538 292 538 292 538 392 c 0,24,25
 538 461 538 461 527.5 521.5 c 128,-1,26
 517 582 517 582 488 645 c 1,27,-1
 554 755 l 1,0,-1
398 618 m 1,28,-1
 159 218 l 1,29,30
 148 259 148 259 144.5 299.5 c 128,-1,31
 141 340 141 340 141 383 c 0,32,33
 141 535 141 535 182.5 614.5 c 128,-1,34
 224 694 224 694 293 694 c 0,35,36
 327 694 327 694 354.5 674.5 c 128,-1,37
 382 655 382 655 398 618 c 1,28,-1
446 388 m 0,38,39
 446 233 446 233 404 153 c 128,-1,40
 362 73 362 73 293 73 c 0,41,42
 225 73 225 73 186 149 c 1,43,-1
 427 546 l 1,44,45
 438 508 438 508 442 469 c 128,-1,46
 446 430 446 430 446 388 c 0,38,39
EndSplineSet
EndChar

StartChar: Ugrave
Encoding: 217 217 189
Width: 587
Flags: W
LayerCount: 2
Fore
SplineSet
379 810 m 1,0,-1
 284 997 l 1,1,-1
 191 997 l 1,2,-1
 323 810 l 1,3,-1
 379 810 l 1,0,-1
513 293 m 2,4,-1
 513 766 l 1,5,-1
 425 766 l 1,6,-1
 425 287 l 2,7,8
 425 74 425 74 286 74 c 0,9,10
 214 74 214 74 180 126.5 c 128,-1,11
 146 179 146 179 146 287 c 2,12,-1
 146 766 l 1,13,-1
 59 766 l 1,14,-1
 59 293 l 2,15,16
 59 135 59 135 114 58 c 128,-1,17
 169 -19 169 -19 286 -19 c 256,18,19
 403 -19 403 -19 458 57 c 128,-1,20
 513 133 513 133 513 293 c 2,4,-1
EndSplineSet
EndChar

StartChar: Uacute
Encoding: 218 218 190
Width: 587
Flags: W
LayerCount: 2
Fore
SplineSet
381 997 m 1,0,-1
 288 997 l 1,1,-1
 193 810 l 1,2,-1
 249 810 l 1,3,-1
 381 997 l 1,0,-1
513 293 m 2,4,-1
 513 766 l 1,5,-1
 425 766 l 1,6,-1
 425 287 l 2,7,8
 425 74 425 74 286 74 c 0,9,10
 214 74 214 74 180 126.5 c 128,-1,11
 146 179 146 179 146 287 c 2,12,-1
 146 766 l 1,13,-1
 59 766 l 1,14,-1
 59 293 l 2,15,16
 59 135 59 135 114 58 c 128,-1,17
 169 -19 169 -19 286 -19 c 256,18,19
 403 -19 403 -19 458 57 c 128,-1,20
 513 133 513 133 513 293 c 2,4,-1
EndSplineSet
EndChar

StartChar: Ucircumflex
Encoding: 219 219 191
Width: 587
Flags: W
LayerCount: 2
Fore
SplineSet
422 810 m 1,0,-1
 332 997 l 1,1,-1
 241 997 l 1,2,-1
 150 810 l 1,3,-1
 206 810 l 1,4,-1
 286 932 l 1,5,-1
 366 810 l 1,6,-1
 422 810 l 1,0,-1
513 293 m 2,7,-1
 513 766 l 1,8,-1
 425 766 l 1,9,-1
 425 287 l 2,10,11
 425 74 425 74 286 74 c 0,12,13
 214 74 214 74 180 126.5 c 128,-1,14
 146 179 146 179 146 287 c 2,15,-1
 146 766 l 1,16,-1
 59 766 l 1,17,-1
 59 293 l 2,18,19
 59 135 59 135 114 58 c 128,-1,20
 169 -19 169 -19 286 -19 c 256,21,22
 403 -19 403 -19 458 57 c 128,-1,23
 513 133 513 133 513 293 c 2,7,-1
EndSplineSet
EndChar

StartChar: Udieresis
Encoding: 220 220 192
Width: 587
Flags: W
LayerCount: 2
Fore
SplineSet
405 842 m 1,0,-1
 405 955 l 1,1,-1
 320 955 l 1,2,-1
 320 842 l 1,3,-1
 405 842 l 1,0,-1
252 842 m 1,4,-1
 252 955 l 1,5,-1
 167 955 l 1,6,-1
 167 842 l 1,7,-1
 252 842 l 1,4,-1
513 293 m 2,8,-1
 513 766 l 1,9,-1
 425 766 l 1,10,-1
 425 287 l 2,11,12
 425 74 425 74 286 74 c 0,13,14
 214 74 214 74 180 126.5 c 128,-1,15
 146 179 146 179 146 287 c 2,16,-1
 146 766 l 1,17,-1
 59 766 l 1,18,-1
 59 293 l 2,19,20
 59 135 59 135 114 58 c 128,-1,21
 169 -19 169 -19 286 -19 c 256,22,23
 403 -19 403 -19 458 57 c 128,-1,24
 513 133 513 133 513 293 c 2,8,-1
EndSplineSet
EndChar

StartChar: Yacute
Encoding: 221 221 193
Width: 587
Flags: W
LayerCount: 2
Fore
SplineSet
380 997 m 1,0,-1
 287 997 l 1,1,-1
 192 810 l 1,2,-1
 248 810 l 1,3,-1
 380 997 l 1,0,-1
551 766 m 1,4,-1
 452 766 l 1,5,-1
 290 404 l 1,6,-1
 125 766 l 1,7,-1
 20 766 l 1,8,-1
 246 304 l 1,9,-1
 246 1 l 1,10,-1
 334 1 l 1,11,-1
 334 310 l 1,12,-1
 551 766 l 1,4,-1
EndSplineSet
EndChar

StartChar: Thorn
Encoding: 222 222 194
Width: 587
Flags: W
LayerCount: 2
Fore
SplineSet
508 397 m 0,0,1
 508 506 508 506 457.5 562 c 128,-1,2
 407 618 407 618 308 618 c 2,3,-1
 259 618 l 1,4,-1
 167 618 l 1,5,-1
 167 765 l 1,6,-1
 80 765 l 1,7,-1
 80 1 l 1,8,-1
 167 1 l 1,9,-1
 167 176 l 1,10,-1
 264 176 l 2,11,12
 315 176 315 176 353.5 180 c 128,-1,13
 392 184 392 184 424 207 c 0,14,15
 465 236 465 236 486.5 284 c 128,-1,16
 508 332 508 332 508 397 c 0,0,1
416 397 m 0,17,18
 416 359 416 359 407 334 c 128,-1,19
 398 309 398 309 381 295 c 128,-1,20
 364 281 364 281 338 275.5 c 128,-1,21
 312 270 312 270 278 270 c 2,22,-1
 167 270 l 1,23,-1
 167 525 l 1,24,-1
 284 525 l 2,25,26
 350 525 350 525 383 497.5 c 128,-1,27
 416 470 416 470 416 397 c 0,17,18
EndSplineSet
EndChar

StartChar: germandbls
Encoding: 223 223 195
Width: 587
Flags: W
LayerCount: 2
Fore
SplineSet
499 250 m 0,0,1
 499 321 499 321 471.5 372 c 128,-1,2
 444 423 444 423 395 442 c 1,3,4
 469 482 469 482 469 603 c 0,5,6
 469 648 469 648 455.5 684.5 c 128,-1,7
 442 721 442 721 417.5 747 c 128,-1,8
 393 773 393 773 358.5 787.5 c 128,-1,9
 324 802 324 802 281 802 c 0,10,11
 187 802 187 802 138 742 c 128,-1,12
 89 682 89 682 89 564 c 2,13,-1
 89 0 l 1,14,-1
 170 0 l 1,15,-1
 170 549 l 2,16,17
 170 635 170 635 196 676.5 c 128,-1,18
 222 718 222 718 281 718 c 0,19,20
 329 718 329 718 357 684.5 c 128,-1,21
 385 651 385 651 385 594 c 0,22,23
 385 533 385 533 353 501 c 128,-1,24
 321 469 321 469 261 469 c 2,25,-1
 246 469 l 1,26,-1
 246 389 l 1,27,-1
 261 389 l 2,28,29
 337 389 337 389 375 352.5 c 128,-1,30
 413 316 413 316 413 239 c 0,31,32
 413 200 413 200 402.5 169.5 c 128,-1,33
 392 139 392 139 374 117.5 c 128,-1,34
 356 96 356 96 332 84.5 c 128,-1,35
 308 73 308 73 280 73 c 0,36,37
 261 73 261 73 241 80 c 1,38,-1
 241 -11 l 1,39,40
 256 -14 256 -14 269.5 -16 c 128,-1,41
 283 -18 283 -18 296 -18 c 0,42,43
 339 -18 339 -18 376 1 c 128,-1,44
 413 20 413 20 440.5 55 c 128,-1,45
 468 90 468 90 483.5 139.5 c 128,-1,46
 499 189 499 189 499 250 c 0,0,1
EndSplineSet
EndChar

StartChar: agrave
Encoding: 224 224 196
Width: 587
Flags: W
LayerCount: 2
Fore
SplineSet
370 637 m 1,0,-1
 275 825 l 1,1,-1
 181 825 l 1,2,-1
 313 637 l 1,3,-1
 370 637 l 1,0,-1
499 7 m 1,4,-1
 499 82 l 1,5,6
 486 78 486 78 479 78 c 0,7,8
 457 78 457 78 452 93 c 128,-1,9
 447 108 447 108 447 137 c 2,10,-1
 447 442 l 2,11,12
 447 533 447 533 403 577 c 128,-1,13
 359 621 359 621 263 621 c 0,14,15
 174 621 174 621 124.5 571 c 128,-1,16
 75 521 75 521 75 435 c 2,17,-1
 75 428 l 1,18,-1
 150 428 l 1,19,20
 150 535 150 535 260 535 c 0,21,22
 367 535 367 535 367 445 c 0,23,24
 367 414 367 414 364 398.5 c 128,-1,25
 361 383 361 383 348 375.5 c 128,-1,26
 335 368 335 368 309.5 365 c 128,-1,27
 284 362 284 362 238 356 c 0,28,29
 191 349 191 349 156.5 336.5 c 128,-1,30
 122 324 122 324 99 301.5 c 128,-1,31
 76 279 76 279 65 245.5 c 128,-1,32
 54 212 54 212 54 164 c 0,33,34
 54 83 54 83 93.5 37 c 128,-1,35
 133 -9 133 -9 206 -9 c 0,36,37
 302 -9 302 -9 373 86 c 1,38,-1
 373 83 l 2,39,40
 373 -2 373 -2 452 -2 c 0,41,42
 475 -2 475 -2 499 7 c 1,4,-1
364 216 m 2,43,44
 364 184 364 184 353 158.5 c 128,-1,45
 342 133 342 133 322.5 114.5 c 128,-1,46
 303 96 303 96 276.5 86 c 128,-1,47
 250 76 250 76 220 76 c 0,48,49
 138 76 138 76 138 173 c 0,50,51
 138 218 138 218 157 239.5 c 128,-1,52
 176 261 176 261 218 270 c 0,53,54
 258 278 258 278 295 283.5 c 128,-1,55
 332 289 332 289 364 309 c 1,56,-1
 364 216 l 2,43,44
EndSplineSet
EndChar

StartChar: aacute
Encoding: 225 225 197
Width: 587
Flags: W
LayerCount: 2
Fore
SplineSet
371 825 m 1,0,-1
 278 825 l 1,1,-1
 183 637 l 1,2,-1
 239 637 l 1,3,-1
 371 825 l 1,0,-1
499 7 m 1,4,-1
 499 82 l 1,5,6
 486 78 486 78 479 78 c 0,7,8
 457 78 457 78 452 93 c 128,-1,9
 447 108 447 108 447 137 c 2,10,-1
 447 442 l 2,11,12
 447 533 447 533 403 577 c 128,-1,13
 359 621 359 621 263 621 c 0,14,15
 174 621 174 621 124.5 571 c 128,-1,16
 75 521 75 521 75 435 c 2,17,-1
 75 428 l 1,18,-1
 150 428 l 1,19,20
 150 535 150 535 260 535 c 0,21,22
 367 535 367 535 367 445 c 0,23,24
 367 414 367 414 364 398.5 c 128,-1,25
 361 383 361 383 348 375.5 c 128,-1,26
 335 368 335 368 309.5 364.5 c 128,-1,27
 284 361 284 361 238 355 c 0,28,29
 191 349 191 349 156.5 336.5 c 128,-1,30
 122 324 122 324 99 301.5 c 128,-1,31
 76 279 76 279 65 245.5 c 128,-1,32
 54 212 54 212 54 164 c 0,33,34
 54 83 54 83 93.5 37 c 128,-1,35
 133 -9 133 -9 206 -9 c 0,36,37
 302 -9 302 -9 373 86 c 1,38,-1
 373 83 l 2,39,40
 373 -2 373 -2 452 -2 c 0,41,42
 475 -2 475 -2 499 7 c 1,4,-1
364 216 m 2,43,44
 364 184 364 184 353 158.5 c 128,-1,45
 342 133 342 133 322.5 114.5 c 128,-1,46
 303 96 303 96 276.5 86 c 128,-1,47
 250 76 250 76 220 76 c 0,48,49
 138 76 138 76 138 173 c 0,50,51
 138 218 138 218 157 239.5 c 128,-1,52
 176 261 176 261 218 270 c 0,53,54
 258 278 258 278 295 283.5 c 128,-1,55
 332 289 332 289 364 309 c 1,56,-1
 364 216 l 2,43,44
EndSplineSet
EndChar

StartChar: acircumflex
Encoding: 226 226 198
Width: 587
Flags: W
LayerCount: 2
Fore
SplineSet
413 637 m 1,0,-1
 322 825 l 1,1,-1
 231 825 l 1,2,-1
 140 637 l 1,3,-1
 196 637 l 1,4,-1
 277 760 l 1,5,-1
 356 637 l 1,6,-1
 413 637 l 1,0,-1
499 7 m 1,7,-1
 499 82 l 1,8,9
 486 78 486 78 479 78 c 0,10,11
 457 78 457 78 452 93 c 128,-1,12
 447 108 447 108 447 137 c 2,13,-1
 447 442 l 2,14,15
 447 533 447 533 403 577 c 128,-1,16
 359 621 359 621 263 621 c 0,17,18
 174 621 174 621 124.5 571 c 128,-1,19
 75 521 75 521 75 435 c 2,20,-1
 75 428 l 1,21,-1
 150 428 l 1,22,23
 150 535 150 535 260 535 c 0,24,25
 367 535 367 535 367 445 c 0,26,27
 367 414 367 414 364 398.5 c 128,-1,28
 361 383 361 383 348 375.5 c 128,-1,29
 335 368 335 368 309.5 364.5 c 128,-1,30
 284 361 284 361 238 355 c 0,31,32
 191 349 191 349 156.5 336.5 c 128,-1,33
 122 324 122 324 99 301.5 c 128,-1,34
 76 279 76 279 65 245.5 c 128,-1,35
 54 212 54 212 54 164 c 0,36,37
 54 83 54 83 93.5 37 c 128,-1,38
 133 -9 133 -9 206 -9 c 0,39,40
 302 -9 302 -9 373 86 c 1,41,-1
 373 83 l 2,42,43
 373 -2 373 -2 452 -2 c 0,44,45
 475 -2 475 -2 499 7 c 1,7,-1
364 216 m 2,46,47
 364 184 364 184 353 158.5 c 128,-1,48
 342 133 342 133 322.5 114.5 c 128,-1,49
 303 96 303 96 276.5 86 c 128,-1,50
 250 76 250 76 220 76 c 0,51,52
 138 76 138 76 138 173 c 0,53,54
 138 218 138 218 157 239.5 c 128,-1,55
 176 261 176 261 218 270 c 0,56,57
 258 278 258 278 295 283.5 c 128,-1,58
 332 289 332 289 364 309 c 1,59,-1
 364 216 l 2,46,47
EndSplineSet
EndChar

StartChar: atilde
Encoding: 227 227 199
Width: 587
Flags: W
LayerCount: 2
Fore
SplineSet
412 786 m 1,0,-1
 371 786 l 1,1,2
 358 748 358 748 328 748 c 0,3,4
 323 748 323 748 316.5 749 c 128,-1,5
 310 750 310 750 302 753 c 2,6,-1
 258 768 l 2,7,8
 246 772 246 772 230 772 c 0,9,10
 196 772 196 772 172.5 744 c 128,-1,11
 149 716 149 716 141 662 c 1,12,-1
 182 662 l 1,13,14
 194 700 194 700 223 700 c 0,15,16
 231 700 231 700 246 695 c 2,17,-1
 291 681 l 2,18,19
 308 676 308 676 321 676 c 0,20,21
 392 676 392 676 412 786 c 1,0,-1
499 7 m 1,22,-1
 499 82 l 1,23,24
 486 78 486 78 479 78 c 0,25,26
 457 78 457 78 452 93 c 128,-1,27
 447 108 447 108 447 137 c 2,28,-1
 447 442 l 2,29,30
 447 533 447 533 403 577 c 128,-1,31
 359 621 359 621 263 621 c 0,32,33
 174 621 174 621 124.5 571 c 128,-1,34
 75 521 75 521 75 435 c 2,35,-1
 75 428 l 1,36,-1
 150 428 l 1,37,38
 150 535 150 535 260 535 c 0,39,40
 367 535 367 535 367 445 c 0,41,42
 367 414 367 414 364 398.5 c 128,-1,43
 361 383 361 383 348 375.5 c 128,-1,44
 335 368 335 368 309.5 365 c 128,-1,45
 284 362 284 362 238 356 c 0,46,47
 191 349 191 349 156.5 336.5 c 128,-1,48
 122 324 122 324 99 301.5 c 128,-1,49
 76 279 76 279 65 245.5 c 128,-1,50
 54 212 54 212 54 164 c 0,51,52
 54 83 54 83 93.5 37 c 128,-1,53
 133 -9 133 -9 206 -9 c 0,54,55
 302 -9 302 -9 373 86 c 1,56,-1
 373 83 l 2,57,58
 373 -2 373 -2 452 -2 c 0,59,60
 475 -2 475 -2 499 7 c 1,22,-1
364 216 m 2,61,62
 364 184 364 184 353 158.5 c 128,-1,63
 342 133 342 133 322.5 114.5 c 128,-1,64
 303 96 303 96 276.5 86 c 128,-1,65
 250 76 250 76 220 76 c 0,66,67
 138 76 138 76 138 173 c 0,68,69
 138 218 138 218 157 239.5 c 128,-1,70
 176 261 176 261 218 270 c 0,71,72
 258 278 258 278 295 283.5 c 128,-1,73
 332 289 332 289 364 309 c 1,74,-1
 364 216 l 2,61,62
EndSplineSet
EndChar

StartChar: adieresis
Encoding: 228 228 200
Width: 587
Flags: W
LayerCount: 2
Fore
SplineSet
395 669 m 1,0,-1
 395 782 l 1,1,-1
 310 782 l 1,2,-1
 310 669 l 1,3,-1
 395 669 l 1,0,-1
242 669 m 1,4,-1
 242 782 l 1,5,-1
 157 782 l 1,6,-1
 157 669 l 1,7,-1
 242 669 l 1,4,-1
499 7 m 1,8,-1
 499 82 l 1,9,10
 486 78 486 78 479 78 c 0,11,12
 457 78 457 78 452 93 c 128,-1,13
 447 108 447 108 447 137 c 2,14,-1
 447 442 l 2,15,16
 447 533 447 533 403 577 c 128,-1,17
 359 621 359 621 263 621 c 0,18,19
 174 621 174 621 124.5 571 c 128,-1,20
 75 521 75 521 75 435 c 2,21,-1
 75 428 l 1,22,-1
 150 428 l 1,23,24
 150 535 150 535 260 535 c 0,25,26
 367 535 367 535 367 445 c 0,27,28
 367 414 367 414 364 398.5 c 128,-1,29
 361 383 361 383 348 375.5 c 128,-1,30
 335 368 335 368 309.5 365 c 128,-1,31
 284 362 284 362 238 356 c 0,32,33
 191 349 191 349 156.5 336.5 c 128,-1,34
 122 324 122 324 99 301.5 c 128,-1,35
 76 279 76 279 65 245.5 c 128,-1,36
 54 212 54 212 54 164 c 0,37,38
 54 83 54 83 93.5 37 c 128,-1,39
 133 -9 133 -9 206 -9 c 0,40,41
 302 -9 302 -9 373 86 c 1,42,-1
 373 83 l 2,43,44
 373 -2 373 -2 452 -2 c 0,45,46
 475 -2 475 -2 499 7 c 1,8,-1
364 216 m 2,47,48
 364 184 364 184 353 158.5 c 128,-1,49
 342 133 342 133 322.5 114.5 c 128,-1,50
 303 96 303 96 276.5 86 c 128,-1,51
 250 76 250 76 220 76 c 0,52,53
 138 76 138 76 138 173 c 0,54,55
 138 218 138 218 157 239.5 c 128,-1,56
 176 261 176 261 218 270 c 0,57,58
 258 278 258 278 295 283.5 c 128,-1,59
 332 289 332 289 364 309 c 1,60,-1
 364 216 l 2,47,48
EndSplineSet
EndChar

StartChar: aring
Encoding: 229 229 201
Width: 587
Flags: W
LayerCount: 2
Fore
SplineSet
402 791 m 0,0,1
 402 819 402 819 393 844 c 128,-1,2
 384 869 384 869 368 887 c 128,-1,3
 352 905 352 905 331 915.5 c 128,-1,4
 310 926 310 926 285 926 c 0,5,6
 261 926 261 926 239.5 915.5 c 128,-1,7
 218 905 218 905 202 886.5 c 128,-1,8
 186 868 186 868 177 843.5 c 128,-1,9
 168 819 168 819 168 791 c 0,10,11
 168 762 168 762 177 737.5 c 128,-1,12
 186 713 186 713 202 694 c 128,-1,13
 218 675 218 675 239.5 664.5 c 128,-1,14
 261 654 261 654 285 654 c 0,15,16
 310 654 310 654 331 664.5 c 128,-1,17
 352 675 352 675 368 694 c 128,-1,18
 384 713 384 713 393 737.5 c 128,-1,19
 402 762 402 762 402 791 c 0,0,1
516 -8 m 1,20,-1
 516 67 l 1,21,22
 502 64 502 64 496 64 c 0,23,24
 475 64 475 64 470 79 c 128,-1,25
 465 94 465 94 465 122 c 2,26,-1
 465 428 l 2,27,28
 465 519 465 519 421 562.5 c 128,-1,29
 377 606 377 606 280 606 c 0,30,31
 192 606 192 606 142 556.5 c 128,-1,32
 92 507 92 507 92 420 c 2,33,-1
 92 414 l 1,34,-1
 167 414 l 1,35,36
 167 520 167 520 278 520 c 0,37,38
 332 520 332 520 358 498.5 c 128,-1,39
 384 477 384 477 384 430 c 0,40,41
 384 400 384 400 381 384.5 c 128,-1,42
 378 369 378 369 365.5 361.5 c 128,-1,43
 353 354 353 354 327 350.5 c 128,-1,44
 301 347 301 347 256 341 c 0,45,46
 209 335 209 335 174 322 c 128,-1,47
 139 309 139 309 116 287 c 128,-1,48
 93 265 93 265 82 231.5 c 128,-1,49
 71 198 71 198 71 150 c 0,50,51
 71 69 71 69 111 23 c 128,-1,52
 151 -23 151 -23 223 -23 c 0,53,54
 318 -23 318 -23 391 71 c 1,55,-1
 391 68 l 2,56,57
 391 -17 391 -17 469 -17 c 0,58,59
 482 -17 482 -17 493 -14.5 c 128,-1,60
 504 -12 504 -12 516 -8 c 1,20,-1
348 791 m 0,61,62
 348 760 348 760 329.5 739 c 128,-1,63
 311 718 311 718 285 718 c 256,64,65
 259 718 259 718 240.5 739 c 128,-1,66
 222 760 222 760 222 791 c 0,67,68
 222 820 222 820 240.5 841.5 c 128,-1,69
 259 863 259 863 285 863 c 256,70,71
 311 863 311 863 329.5 841.5 c 128,-1,72
 348 820 348 820 348 791 c 0,61,62
381 201 m 2,73,74
 381 170 381 170 370 144.5 c 128,-1,75
 359 119 359 119 339.5 100.5 c 128,-1,76
 320 82 320 82 294 72 c 128,-1,77
 268 62 268 62 238 62 c 0,78,79
 155 62 155 62 155 158 c 0,80,81
 155 204 155 204 174 225 c 128,-1,82
 193 246 193 246 235 255 c 0,83,84
 275 263 275 263 312 268.5 c 128,-1,85
 349 274 349 274 381 295 c 1,86,-1
 381 201 l 2,73,74
EndSplineSet
EndChar

StartChar: ae
Encoding: 230 230 202
Width: 587
Flags: W
LayerCount: 2
Fore
SplineSet
585 320 m 0,0,1
 585 466 585 466 539 543.5 c 128,-1,2
 493 621 493 621 415 621 c 0,3,4
 347 621 347 621 299 547 c 1,5,6
 285 582 285 582 251.5 601.5 c 128,-1,7
 218 621 218 621 169 621 c 0,8,9
 100 621 100 621 59.5 571.5 c 128,-1,10
 19 522 19 522 19 436 c 2,11,-1
 19 428 l 1,12,-1
 88 428 l 1,13,-1
 88 432 l 2,14,15
 88 482 88 482 110.5 509 c 128,-1,16
 133 536 133 536 172 536 c 256,17,18
 211 536 211 536 232 513.5 c 128,-1,19
 253 491 253 491 253 449 c 0,20,21
 253 418 253 418 251 402 c 128,-1,22
 249 386 249 386 239 378 c 128,-1,23
 229 370 229 370 208 366 c 128,-1,24
 187 362 187 362 149 356 c 0,25,26
 111 349 111 349 83 336.5 c 128,-1,27
 55 324 55 324 37 301.5 c 128,-1,28
 19 279 19 279 10.5 245.5 c 128,-1,29
 2 212 2 212 2 164 c 0,30,31
 2 82 2 82 34.5 35 c 128,-1,32
 67 -12 67 -12 127 -12 c 0,33,34
 177 -12 177 -12 212.5 20 c 128,-1,35
 248 52 248 52 274 116 c 1,36,37
 294 53 294 53 330.5 20.5 c 128,-1,38
 367 -12 367 -12 413 -12 c 0,39,40
 477 -12 477 -12 520.5 37 c 128,-1,41
 564 86 564 86 577 179 c 1,42,-1
 501 179 l 1,43,44
 493 129 493 129 471 102 c 128,-1,45
 449 75 449 75 420 75 c 0,46,47
 378 75 378 75 352 126.5 c 128,-1,48
 326 178 326 178 326 276 c 1,49,-1
 584 276 l 1,50,51
 585 288 585 288 585 298 c 0,52,53
 585 309 585 309 585 320 c 0,0,1
504 358 m 1,54,-1
 326 358 l 1,55,56
 328 446 328 446 352.5 491 c 128,-1,57
 377 536 377 536 415 536 c 0,58,59
 458 536 458 536 481 491 c 128,-1,60
 504 446 504 446 504 358 c 1,54,-1
241 216 m 2,61,62
 241 183 241 183 232.5 157 c 128,-1,63
 224 131 224 131 209.5 113 c 128,-1,64
 195 95 195 95 176.5 85 c 128,-1,65
 158 75 158 75 137 75 c 0,66,67
 78 75 78 75 78 173 c 0,68,69
 78 248 78 248 137 270 c 0,70,71
 162 279 162 279 189.5 283.5 c 128,-1,72
 217 288 217 288 241 309 c 1,73,-1
 241 216 l 2,61,62
EndSplineSet
EndChar

StartChar: ccedilla
Encoding: 231 231 203
Width: 587
Flags: W
LayerCount: 2
Fore
SplineSet
499 220 m 1,0,-1
 419 220 l 1,1,2
 412 151 412 151 378.5 113 c 128,-1,3
 345 75 345 75 294 75 c 0,4,5
 228 75 228 75 194 133 c 128,-1,6
 160 191 160 191 160 306 c 0,7,8
 160 420 160 420 195.5 478 c 128,-1,9
 231 536 231 536 294 536 c 0,10,11
 350 536 350 536 381 501.5 c 128,-1,12
 412 467 412 467 415 404 c 1,13,-1
 498 404 l 1,14,15
 496 453 496 453 481 493 c 128,-1,16
 466 533 466 533 439.5 561.5 c 128,-1,17
 413 590 413 590 376 605.5 c 128,-1,18
 339 621 339 621 294 621 c 0,19,20
 244 621 244 621 203 599.5 c 128,-1,21
 162 578 162 578 133.5 537.5 c 128,-1,22
 105 497 105 497 89.5 437.5 c 128,-1,23
 74 378 74 378 74 303 c 0,24,25
 74 169 74 169 120.5 88 c 128,-1,26
 167 7 167 7 252 -8 c 1,27,-1
 252 -59 l 1,28,29
 262 -58 262 -58 269 -58 c 256,30,31
 276 -58 276 -58 281 -58 c 0,32,33
 339 -58 339 -58 339 -104 c 0,34,35
 339 -148 339 -148 284 -148 c 0,36,37
 270 -148 270 -148 241.5 -144 c 128,-1,38
 213 -140 213 -140 169 -127 c 1,39,-1
 169 -181 l 1,40,41
 207 -194 207 -194 237 -200 c 128,-1,42
 267 -206 267 -206 288 -206 c 0,43,44
 346 -206 346 -206 375.5 -179 c 128,-1,45
 405 -152 405 -152 405 -104 c 0,46,47
 405 -20 405 -20 326 -9 c 1,48,49
 401 3 401 3 447.5 63.5 c 128,-1,50
 494 124 494 124 499 220 c 1,0,-1
EndSplineSet
EndChar

StartChar: egrave
Encoding: 232 232 204
Width: 587
Flags: W
LayerCount: 2
Fore
SplineSet
379 637 m 1,0,-1
 284 825 l 1,1,-1
 191 825 l 1,2,-1
 323 637 l 1,3,-1
 379 637 l 1,0,-1
497 322 m 0,4,5
 497 466 497 466 440.5 543.5 c 128,-1,6
 384 621 384 621 285 621 c 0,7,8
 238 621 238 621 199 599.5 c 128,-1,9
 160 578 160 578 132.5 537.5 c 128,-1,10
 105 497 105 497 89.5 438 c 128,-1,11
 74 379 74 379 74 305 c 0,12,13
 74 230 74 230 89 171 c 128,-1,14
 104 112 104 112 131.5 71.5 c 128,-1,15
 159 31 159 31 197 9.5 c 128,-1,16
 235 -12 235 -12 282 -12 c 0,17,18
 363 -12 363 -12 418 39.5 c 128,-1,19
 473 91 473 91 487 179 c 1,20,-1
 405 179 l 1,21,22
 393 129 393 129 364 102 c 128,-1,23
 335 75 335 75 293 75 c 0,24,25
 234 75 234 75 198 126.5 c 128,-1,26
 162 178 162 178 162 273 c 2,27,-1
 162 276 l 1,28,-1
 496 276 l 1,29,30
 497 288 497 288 497 299 c 256,31,32
 497 310 497 310 497 322 c 0,4,5
409 358 m 1,33,-1
 162 358 l 1,34,35
 165 445 165 445 198 490.5 c 128,-1,36
 231 536 231 536 288 536 c 256,37,38
 345 536 345 536 377 490 c 128,-1,39
 409 444 409 444 409 358 c 1,33,-1
EndSplineSet
EndChar

StartChar: eacute
Encoding: 233 233 205
Width: 587
Flags: W
LayerCount: 2
Fore
SplineSet
380 825 m 1,0,-1
 287 825 l 1,1,-1
 192 637 l 1,2,-1
 248 637 l 1,3,-1
 380 825 l 1,0,-1
497 322 m 0,4,5
 497 466 497 466 440.5 543.5 c 128,-1,6
 384 621 384 621 285 621 c 0,7,8
 238 621 238 621 199 599.5 c 128,-1,9
 160 578 160 578 132.5 537.5 c 128,-1,10
 105 497 105 497 89.5 438 c 128,-1,11
 74 379 74 379 74 305 c 0,12,13
 74 230 74 230 89 171 c 128,-1,14
 104 112 104 112 131.5 71.5 c 128,-1,15
 159 31 159 31 197 9.5 c 128,-1,16
 235 -12 235 -12 282 -12 c 0,17,18
 363 -12 363 -12 418 39.5 c 128,-1,19
 473 91 473 91 487 179 c 1,20,-1
 405 179 l 1,21,22
 393 129 393 129 364 102 c 128,-1,23
 335 75 335 75 293 75 c 0,24,25
 234 75 234 75 198 126.5 c 128,-1,26
 162 178 162 178 162 273 c 2,27,-1
 162 276 l 1,28,-1
 496 276 l 1,29,30
 497 288 497 288 497 299 c 256,31,32
 497 310 497 310 497 322 c 0,4,5
409 358 m 1,33,-1
 162 358 l 1,34,35
 165 445 165 445 198 490.5 c 128,-1,36
 231 536 231 536 288 536 c 256,37,38
 345 536 345 536 377 490 c 128,-1,39
 409 444 409 444 409 358 c 1,33,-1
EndSplineSet
EndChar

StartChar: ecircumflex
Encoding: 234 234 206
Width: 587
Flags: W
LayerCount: 2
Fore
SplineSet
422 637 m 1,0,-1
 332 825 l 1,1,-1
 240 825 l 1,2,-1
 149 637 l 1,3,-1
 205 637 l 1,4,-1
 286 760 l 1,5,-1
 366 637 l 1,6,-1
 422 637 l 1,0,-1
497 322 m 0,7,8
 497 466 497 466 440.5 543.5 c 128,-1,9
 384 621 384 621 285 621 c 0,10,11
 238 621 238 621 199 599.5 c 128,-1,12
 160 578 160 578 132.5 537.5 c 128,-1,13
 105 497 105 497 89.5 438 c 128,-1,14
 74 379 74 379 74 305 c 0,15,16
 74 230 74 230 89 171 c 128,-1,17
 104 112 104 112 131.5 71.5 c 128,-1,18
 159 31 159 31 197 9.5 c 128,-1,19
 235 -12 235 -12 282 -12 c 0,20,21
 363 -12 363 -12 418 39.5 c 128,-1,22
 473 91 473 91 487 179 c 1,23,-1
 405 179 l 1,24,25
 393 129 393 129 364 102 c 128,-1,26
 335 75 335 75 293 75 c 0,27,28
 234 75 234 75 198 126.5 c 128,-1,29
 162 178 162 178 162 273 c 2,30,-1
 162 276 l 1,31,-1
 496 276 l 1,32,33
 497 288 497 288 497 299 c 256,34,35
 497 310 497 310 497 322 c 0,7,8
409 358 m 1,36,-1
 162 358 l 1,37,38
 165 445 165 445 198 490.5 c 128,-1,39
 231 536 231 536 288 536 c 256,40,41
 345 536 345 536 377 490 c 128,-1,42
 409 444 409 444 409 358 c 1,36,-1
EndSplineSet
EndChar

StartChar: edieresis
Encoding: 235 235 207
Width: 587
Flags: W
LayerCount: 2
Fore
SplineSet
404 669 m 1,0,-1
 404 782 l 1,1,-1
 320 782 l 1,2,-1
 320 669 l 1,3,-1
 404 669 l 1,0,-1
251 669 m 1,4,-1
 251 782 l 1,5,-1
 167 782 l 1,6,-1
 167 669 l 1,7,-1
 251 669 l 1,4,-1
497 322 m 0,8,9
 497 466 497 466 440.5 543.5 c 128,-1,10
 384 621 384 621 285 621 c 0,11,12
 238 621 238 621 199 599.5 c 128,-1,13
 160 578 160 578 132.5 537.5 c 128,-1,14
 105 497 105 497 89.5 438 c 128,-1,15
 74 379 74 379 74 305 c 0,16,17
 74 230 74 230 89 171 c 128,-1,18
 104 112 104 112 131.5 71.5 c 128,-1,19
 159 31 159 31 197 9.5 c 128,-1,20
 235 -12 235 -12 282 -12 c 0,21,22
 363 -12 363 -12 418 39.5 c 128,-1,23
 473 91 473 91 487 179 c 1,24,-1
 405 179 l 1,25,26
 393 129 393 129 364 102 c 128,-1,27
 335 75 335 75 293 75 c 0,28,29
 234 75 234 75 198 126.5 c 128,-1,30
 162 178 162 178 162 273 c 2,31,-1
 162 276 l 1,32,-1
 496 276 l 1,33,34
 497 288 497 288 497 299 c 256,35,36
 497 310 497 310 497 322 c 0,8,9
409 358 m 1,37,-1
 162 358 l 1,38,39
 165 445 165 445 198 490.5 c 128,-1,40
 231 536 231 536 288 536 c 256,41,42
 345 536 345 536 377 490 c 128,-1,43
 409 444 409 444 409 358 c 1,37,-1
EndSplineSet
EndChar

StartChar: igrave
Encoding: 236 236 208
Width: 587
Flags: W
LayerCount: 2
Fore
SplineSet
361 637 m 1,0,-1
 266 825 l 1,1,-1
 173 825 l 1,2,-1
 305 637 l 1,3,-1
 361 637 l 1,0,-1
482 10 m 1,4,-1
 482 91 l 1,5,-1
 309 91 l 1,6,-1
 309 581 l 1,7,-1
 226 581 l 1,8,-1
 226 498 l 1,9,-1
 225 498 l 1,10,-1
 225 91 l 1,11,-1
 54 91 l 1,12,-1
 54 10 l 1,13,-1
 482 10 l 1,4,-1
EndSplineSet
EndChar

StartChar: iacute
Encoding: 237 237 209
Width: 587
Flags: W
LayerCount: 2
Fore
SplineSet
362 825 m 1,0,-1
 269 825 l 1,1,-1
 174 637 l 1,2,-1
 230 637 l 1,3,-1
 362 825 l 1,0,-1
482 10 m 1,4,-1
 482 91 l 1,5,-1
 309 91 l 1,6,-1
 309 581 l 1,7,-1
 226 581 l 1,8,-1
 226 498 l 1,9,-1
 225 498 l 1,10,-1
 225 91 l 1,11,-1
 54 91 l 1,12,-1
 54 10 l 1,13,-1
 482 10 l 1,4,-1
EndSplineSet
EndChar

StartChar: icircumflex
Encoding: 238 238 210
Width: 587
Flags: W
LayerCount: 2
Fore
SplineSet
404 637 m 1,0,-1
 314 825 l 1,1,-1
 222 825 l 1,2,-1
 131 637 l 1,3,-1
 187 637 l 1,4,-1
 268 760 l 1,5,-1
 348 637 l 1,6,-1
 404 637 l 1,0,-1
482 10 m 1,7,-1
 482 91 l 1,8,-1
 309 91 l 1,9,-1
 309 581 l 1,10,-1
 226 581 l 1,11,-1
 226 498 l 1,12,-1
 225 498 l 1,13,-1
 225 91 l 1,14,-1
 54 91 l 1,15,-1
 54 10 l 1,16,-1
 482 10 l 1,7,-1
EndSplineSet
EndChar

StartChar: idieresis
Encoding: 239 239 211
Width: 587
Flags: W
LayerCount: 2
Fore
SplineSet
386 669 m 1,0,-1
 386 782 l 1,1,-1
 302 782 l 1,2,-1
 302 669 l 1,3,-1
 386 669 l 1,0,-1
233 669 m 1,4,-1
 233 782 l 1,5,-1
 149 782 l 1,6,-1
 149 669 l 1,7,-1
 233 669 l 1,4,-1
482 10 m 1,8,-1
 482 91 l 1,9,-1
 309 91 l 1,10,-1
 309 581 l 1,11,-1
 226 581 l 1,12,-1
 226 498 l 1,13,-1
 225 498 l 1,14,-1
 225 91 l 1,15,-1
 54 91 l 1,16,-1
 54 10 l 1,17,-1
 482 10 l 1,8,-1
EndSplineSet
EndChar

StartChar: eth
Encoding: 240 240 212
Width: 587
Flags: W
LayerCount: 2
Fore
SplineSet
515 272 m 0,0,1
 515 507 515 507 390 688 c 1,2,-1
 487 729 l 1,3,-1
 470 782 l 1,4,-1
 357 734 l 1,5,6
 331 763 331 763 309.5 781 c 128,-1,7
 288 799 288 799 271 810 c 1,8,-1
 235 756 l 1,9,10
 256 741 256 741 270 726.5 c 128,-1,11
 284 712 284 712 293 699 c 1,12,-1
 192 658 l 1,13,-1
 208 606 l 1,14,-1
 323 655 l 1,15,16
 363 596 363 596 379 546 c 1,17,18
 358 557 358 557 337 560.5 c 128,-1,19
 316 564 316 564 293 564 c 0,20,21
 189 564 189 564 130.5 488 c 128,-1,22
 72 412 72 412 72 272 c 256,23,24
 72 132 72 132 130 55.5 c 128,-1,25
 188 -21 188 -21 293 -21 c 256,26,27
 398 -21 398 -21 456.5 56.5 c 128,-1,28
 515 134 515 134 515 272 c 0,0,1
429 272 m 256,29,30
 429 166 429 166 393.5 112 c 128,-1,31
 358 58 358 58 293 58 c 0,32,33
 229 58 229 58 193 112.5 c 128,-1,34
 157 167 157 167 157 272 c 0,35,36
 157 378 157 378 192.5 432 c 128,-1,37
 228 486 228 486 293 486 c 256,38,39
 358 486 358 486 393.5 432 c 128,-1,40
 429 378 429 378 429 272 c 256,29,30
EndSplineSet
EndChar

StartChar: ntilde
Encoding: 241 241 213
Width: 587
Flags: W
LayerCount: 2
Fore
SplineSet
420 786 m 1,0,-1
 379 786 l 1,1,2
 366 748 366 748 336 748 c 0,3,4
 332 748 332 748 325.5 749 c 128,-1,5
 319 750 319 750 311 753 c 2,6,-1
 266 768 l 2,7,8
 254 772 254 772 238 772 c 0,9,10
 204 772 204 772 181 744 c 128,-1,11
 158 716 158 716 149 662 c 1,12,-1
 190 662 l 1,13,14
 204 700 204 700 232 700 c 0,15,16
 238 700 238 700 255 695 c 2,17,-1
 299 681 l 2,18,19
 317 676 317 676 330 676 c 0,20,21
 365 676 365 676 388 703.5 c 128,-1,22
 411 731 411 731 420 786 c 1,0,-1
483 8 m 1,23,-1
 483 367 l 1,24,-1
 483 397 l 2,25,26
 483 440 483 440 480 475 c 128,-1,27
 477 510 477 510 462 540 c 0,28,29
 442 578 442 578 406.5 599 c 128,-1,30
 371 620 371 620 318 620 c 0,31,32
 218 620 218 620 166 509 c 1,33,-1
 166 599 l 1,34,-1
 86 599 l 1,35,-1
 86 8 l 1,36,-1
 170 8 l 1,37,-1
 170 349 l 2,38,39
 170 438 170 438 206 485.5 c 128,-1,40
 242 533 242 533 306 533 c 0,41,42
 362 533 362 533 380.5 493 c 128,-1,43
 399 453 399 453 399 377 c 2,44,-1
 399 8 l 1,45,-1
 483 8 l 1,23,-1
EndSplineSet
EndChar

StartChar: ograve
Encoding: 242 242 214
Width: 587
Flags: W
LayerCount: 2
Fore
SplineSet
379 637 m 1,0,-1
 284 825 l 1,1,-1
 191 825 l 1,2,-1
 323 637 l 1,3,-1
 379 637 l 1,0,-1
507 304 m 256,4,5
 507 456 507 456 448.5 538.5 c 128,-1,6
 390 621 390 621 286 621 c 256,7,8
 182 621 182 621 123.5 538.5 c 128,-1,9
 65 456 65 456 65 304 c 0,10,11
 65 153 65 153 123.5 70.5 c 128,-1,12
 182 -12 182 -12 286 -12 c 256,13,14
 390 -12 390 -12 448.5 70 c 128,-1,15
 507 152 507 152 507 304 c 256,4,5
422 305 m 0,16,17
 422 191 422 191 386 132.5 c 128,-1,18
 350 74 350 74 286 74 c 0,19,20
 221 74 221 74 185.5 132.5 c 128,-1,21
 150 191 150 191 150 305 c 256,22,23
 150 419 150 419 185.5 477 c 128,-1,24
 221 535 221 535 286 535 c 0,25,26
 350 535 350 535 386 477.5 c 128,-1,27
 422 420 422 420 422 305 c 0,16,17
EndSplineSet
EndChar

StartChar: oacute
Encoding: 243 243 215
Width: 587
Flags: W
LayerCount: 2
Fore
SplineSet
381 825 m 1,0,-1
 288 825 l 1,1,-1
 193 637 l 1,2,-1
 249 637 l 1,3,-1
 381 825 l 1,0,-1
507 304 m 256,4,5
 507 456 507 456 448.5 538.5 c 128,-1,6
 390 621 390 621 286 621 c 256,7,8
 182 621 182 621 123.5 538.5 c 128,-1,9
 65 456 65 456 65 304 c 0,10,11
 65 153 65 153 123.5 70.5 c 128,-1,12
 182 -12 182 -12 286 -12 c 256,13,14
 390 -12 390 -12 448.5 70 c 128,-1,15
 507 152 507 152 507 304 c 256,4,5
422 305 m 0,16,17
 422 191 422 191 386 132.5 c 128,-1,18
 350 74 350 74 286 74 c 0,19,20
 221 74 221 74 185.5 132.5 c 128,-1,21
 150 191 150 191 150 305 c 256,22,23
 150 419 150 419 185.5 477 c 128,-1,24
 221 535 221 535 286 535 c 0,25,26
 350 535 350 535 386 477.5 c 128,-1,27
 422 420 422 420 422 305 c 0,16,17
EndSplineSet
EndChar

StartChar: ocircumflex
Encoding: 244 244 216
Width: 587
Flags: W
LayerCount: 2
Fore
SplineSet
422 637 m 1,0,-1
 332 825 l 1,1,-1
 241 825 l 1,2,-1
 150 637 l 1,3,-1
 206 637 l 1,4,-1
 286 760 l 1,5,-1
 366 637 l 1,6,-1
 422 637 l 1,0,-1
507 304 m 256,7,8
 507 456 507 456 448.5 538.5 c 128,-1,9
 390 621 390 621 286 621 c 256,10,11
 182 621 182 621 123.5 538.5 c 128,-1,12
 65 456 65 456 65 304 c 0,13,14
 65 153 65 153 123.5 70.5 c 128,-1,15
 182 -12 182 -12 286 -12 c 256,16,17
 390 -12 390 -12 448.5 70 c 128,-1,18
 507 152 507 152 507 304 c 256,7,8
422 305 m 0,19,20
 422 191 422 191 386 132.5 c 128,-1,21
 350 74 350 74 286 74 c 0,22,23
 221 74 221 74 185.5 132.5 c 128,-1,24
 150 191 150 191 150 305 c 256,25,26
 150 419 150 419 185.5 477 c 128,-1,27
 221 535 221 535 286 535 c 0,28,29
 350 535 350 535 386 477.5 c 128,-1,30
 422 420 422 420 422 305 c 0,19,20
EndSplineSet
EndChar

StartChar: otilde
Encoding: 245 245 217
Width: 587
Flags: W
LayerCount: 2
Fore
SplineSet
421 786 m 1,0,-1
 380 786 l 1,1,2
 368 748 368 748 338 748 c 0,3,4
 333 748 333 748 326.5 749 c 128,-1,5
 320 750 320 750 312 753 c 2,6,-1
 267 768 l 2,7,8
 256 772 256 772 240 772 c 0,9,10
 205 772 205 772 182 744 c 128,-1,11
 159 716 159 716 151 662 c 1,12,-1
 191 662 l 1,13,14
 205 700 205 700 233 700 c 0,15,16
 238 700 238 700 243 698.5 c 128,-1,17
 248 697 248 697 256 695 c 2,18,-1
 301 681 l 2,19,20
 318 676 318 676 331 676 c 0,21,22
 403 676 403 676 421 786 c 1,0,-1
507 304 m 256,23,24
 507 456 507 456 448.5 538.5 c 128,-1,25
 390 621 390 621 286 621 c 256,26,27
 182 621 182 621 123.5 538.5 c 128,-1,28
 65 456 65 456 65 304 c 0,29,30
 65 153 65 153 123.5 70.5 c 128,-1,31
 182 -12 182 -12 286 -12 c 256,32,33
 390 -12 390 -12 448.5 70 c 128,-1,34
 507 152 507 152 507 304 c 256,23,24
422 305 m 0,35,36
 422 191 422 191 386 132.5 c 128,-1,37
 350 74 350 74 286 74 c 0,38,39
 221 74 221 74 185.5 132.5 c 128,-1,40
 150 191 150 191 150 305 c 256,41,42
 150 419 150 419 185.5 477 c 128,-1,43
 221 535 221 535 286 535 c 0,44,45
 350 535 350 535 386 477.5 c 128,-1,46
 422 420 422 420 422 305 c 0,35,36
EndSplineSet
EndChar

StartChar: odieresis
Encoding: 246 246 218
Width: 587
Flags: W
LayerCount: 2
Fore
SplineSet
405 669 m 1,0,-1
 405 782 l 1,1,-1
 320 782 l 1,2,-1
 320 669 l 1,3,-1
 405 669 l 1,0,-1
252 669 m 1,4,-1
 252 782 l 1,5,-1
 167 782 l 1,6,-1
 167 669 l 1,7,-1
 252 669 l 1,4,-1
507 304 m 256,8,9
 507 456 507 456 448.5 538.5 c 128,-1,10
 390 621 390 621 286 621 c 256,11,12
 182 621 182 621 123.5 538.5 c 128,-1,13
 65 456 65 456 65 304 c 0,14,15
 65 153 65 153 123.5 70.5 c 128,-1,16
 182 -12 182 -12 286 -12 c 256,17,18
 390 -12 390 -12 448.5 70 c 128,-1,19
 507 152 507 152 507 304 c 256,8,9
422 305 m 0,20,21
 422 191 422 191 386 132.5 c 128,-1,22
 350 74 350 74 286 74 c 0,23,24
 221 74 221 74 185.5 132.5 c 128,-1,25
 150 191 150 191 150 305 c 256,26,27
 150 419 150 419 185.5 477 c 128,-1,28
 221 535 221 535 286 535 c 0,29,30
 350 535 350 535 386 477.5 c 128,-1,31
 422 420 422 420 422 305 c 0,20,21
EndSplineSet
EndChar

StartChar: divide
Encoding: 247 247 219
Width: 587
Flags: W
LayerCount: 2
Fore
SplineSet
345 512 m 0,0,1
 345 537 345 537 329.5 555 c 128,-1,2
 314 573 314 573 294 573 c 0,3,4
 273 573 273 573 258 555.5 c 128,-1,5
 243 538 243 538 243 512 c 0,6,7
 243 487 243 487 257.5 469.5 c 128,-1,8
 272 452 272 452 294 452 c 0,9,10
 315 452 315 452 330 470 c 128,-1,11
 345 488 345 488 345 512 c 0,0,1
530 344 m 256,12,13
 530 384 530 384 501 384 c 2,14,-1
 86 384 l 2,15,16
 56 384 56 384 56 344 c 256,17,18
 56 304 56 304 86 304 c 2,19,-1
 501 304 l 2,20,21
 530 304 530 304 530 344 c 256,12,13
345 175 m 0,22,23
 345 200 345 200 330 217.5 c 128,-1,24
 315 235 315 235 294 235 c 256,25,26
 273 235 273 235 258 218 c 128,-1,27
 243 201 243 201 243 175 c 0,28,29
 243 150 243 150 257.5 132.5 c 128,-1,30
 272 115 272 115 294 115 c 256,31,32
 316 115 316 115 330.5 133 c 128,-1,33
 345 151 345 151 345 175 c 0,22,23
EndSplineSet
EndChar

StartChar: oslash
Encoding: 248 248 220
Width: 587
Flags: W
LayerCount: 2
Fore
SplineSet
531 587 m 1,0,-1
 492 626 l 1,1,-1
 440 554 l 1,2,3
 414 589 414 589 378.5 605 c 128,-1,4
 343 621 343 621 295 621 c 0,5,6
 191 621 191 621 132.5 538.5 c 128,-1,7
 74 456 74 456 74 304 c 0,8,9
 74 180 74 180 115 104 c 1,10,-1
 55 19 l 1,11,-1
 92 -24 l 1,12,-1
 150 57 l 1,13,14
 180 20 180 20 214.5 4.5 c 128,-1,15
 249 -11 249 -11 295 -11 c 0,16,17
 399 -11 399 -11 457.5 70.5 c 128,-1,18
 516 152 516 152 516 304 c 0,19,20
 516 441 516 441 474 507 c 1,21,-1
 531 587 l 1,0,-1
389 483 m 1,22,-1
 172 184 l 1,23,24
 159 239 159 239 159 305 c 0,25,26
 159 419 159 419 194.5 477 c 128,-1,27
 230 535 230 535 295 535 c 0,28,29
 323 535 323 535 348.5 521.5 c 128,-1,30
 374 508 374 508 389 483 c 1,22,-1
431 320 m 0,31,32
 431 74 431 74 295 74 c 0,33,34
 263 74 263 74 239.5 88 c 128,-1,35
 216 102 216 102 201 128 c 1,36,-1
 414 424 l 1,37,38
 425 400 425 400 428 374.5 c 128,-1,39
 431 349 431 349 431 320 c 0,31,32
EndSplineSet
EndChar

StartChar: ugrave
Encoding: 249 249 221
Width: 587
Flags: W
LayerCount: 2
Fore
SplineSet
381 637 m 1,0,-1
 286 825 l 1,1,-1
 193 825 l 1,2,-1
 325 637 l 1,3,-1
 381 637 l 1,0,-1
485 10 m 1,4,-1
 485 601 l 1,5,-1
 402 601 l 1,6,-1
 402 260 l 2,7,8
 402 171 402 171 366 124 c 128,-1,9
 330 77 330 77 266 77 c 0,10,11
 214 77 214 77 193.5 113 c 128,-1,12
 173 149 173 149 173 221 c 2,13,-1
 173 232 l 1,14,-1
 173 601 l 1,15,-1
 89 601 l 1,16,-1
 89 242 l 1,17,-1
 89 212 l 2,18,19
 89 169 89 169 92 134 c 128,-1,20
 95 99 95 99 110 69 c 0,21,22
 130 31 130 31 165.5 10 c 128,-1,23
 201 -11 201 -11 254 -11 c 0,24,25
 354 -11 354 -11 406 100 c 1,26,-1
 406 10 l 1,27,-1
 485 10 l 1,4,-1
EndSplineSet
EndChar

StartChar: uacute
Encoding: 250 250 222
Width: 587
Flags: W
LayerCount: 2
Fore
SplineSet
382 825 m 1,0,-1
 289 825 l 1,1,-1
 194 637 l 1,2,-1
 250 637 l 1,3,-1
 382 825 l 1,0,-1
485 10 m 1,4,-1
 485 601 l 1,5,-1
 402 601 l 1,6,-1
 402 260 l 2,7,8
 402 171 402 171 366 124 c 128,-1,9
 330 77 330 77 266 77 c 0,10,11
 214 77 214 77 193.5 113 c 128,-1,12
 173 149 173 149 173 221 c 2,13,-1
 173 232 l 1,14,-1
 173 601 l 1,15,-1
 89 601 l 1,16,-1
 89 242 l 1,17,-1
 89 212 l 2,18,19
 89 169 89 169 92 134 c 128,-1,20
 95 99 95 99 110 69 c 0,21,22
 130 31 130 31 165.5 10 c 128,-1,23
 201 -11 201 -11 254 -11 c 0,24,25
 354 -11 354 -11 406 100 c 1,26,-1
 406 10 l 1,27,-1
 485 10 l 1,4,-1
EndSplineSet
EndChar

StartChar: ucircumflex
Encoding: 251 251 223
Width: 587
Flags: W
LayerCount: 2
Fore
SplineSet
424 637 m 1,0,-1
 333 825 l 1,1,-1
 242 825 l 1,2,-1
 151 637 l 1,3,-1
 207 637 l 1,4,-1
 288 760 l 1,5,-1
 368 637 l 1,6,-1
 424 637 l 1,0,-1
485 10 m 1,7,-1
 485 601 l 1,8,-1
 402 601 l 1,9,-1
 402 260 l 2,10,11
 402 171 402 171 366 124 c 128,-1,12
 330 77 330 77 266 77 c 0,13,14
 214 77 214 77 193.5 113 c 128,-1,15
 173 149 173 149 173 221 c 2,16,-1
 173 232 l 1,17,-1
 173 601 l 1,18,-1
 89 601 l 1,19,-1
 89 242 l 1,20,-1
 89 212 l 2,21,22
 89 169 89 169 92 134 c 128,-1,23
 95 99 95 99 110 69 c 0,24,25
 130 31 130 31 165.5 10 c 128,-1,26
 201 -11 201 -11 254 -11 c 0,27,28
 354 -11 354 -11 406 100 c 1,29,-1
 406 10 l 1,30,-1
 485 10 l 1,7,-1
EndSplineSet
EndChar

StartChar: udieresis
Encoding: 252 252 224
Width: 587
Flags: W
LayerCount: 2
Fore
SplineSet
406 669 m 1,0,-1
 406 782 l 1,1,-1
 322 782 l 1,2,-1
 322 669 l 1,3,-1
 406 669 l 1,0,-1
253 669 m 1,4,-1
 253 782 l 1,5,-1
 169 782 l 1,6,-1
 169 669 l 1,7,-1
 253 669 l 1,4,-1
485 10 m 1,8,-1
 485 601 l 1,9,-1
 402 601 l 1,10,-1
 402 260 l 2,11,12
 402 171 402 171 366 124 c 128,-1,13
 330 77 330 77 266 77 c 0,14,15
 214 77 214 77 193.5 113 c 128,-1,16
 173 149 173 149 173 221 c 2,17,-1
 173 232 l 1,18,-1
 173 601 l 1,19,-1
 89 601 l 1,20,-1
 89 242 l 1,21,-1
 89 212 l 2,22,23
 89 169 89 169 92 134 c 128,-1,24
 95 99 95 99 110 69 c 0,25,26
 130 31 130 31 165.5 10 c 128,-1,27
 201 -11 201 -11 254 -11 c 0,28,29
 354 -11 354 -11 406 100 c 1,30,-1
 406 10 l 1,31,-1
 485 10 l 1,8,-1
EndSplineSet
EndChar

StartChar: yacute
Encoding: 253 253 225
Width: 587
Flags: W
LayerCount: 2
Fore
SplineSet
380 825 m 1,0,-1
 287 825 l 1,1,-1
 192 637 l 1,2,-1
 248 637 l 1,3,-1
 380 825 l 1,0,-1
521 610 m 1,4,-1
 431 610 l 1,5,-1
 285 124 l 1,6,-1
 142 610 l 1,7,-1
 50 610 l 1,8,-1
 244 -13 l 1,9,-1
 227 -68 l 2,10,11
 219 -95 219 -95 201.5 -106.5 c 128,-1,12
 184 -118 184 -118 156 -118 c 0,13,14
 123 -118 123 -118 79 -107 c 1,15,-1
 79 -200 l 1,16,17
 99 -206 99 -206 119 -207.5 c 128,-1,18
 139 -209 139 -209 160 -209 c 0,19,20
 195 -209 195 -209 218.5 -200.5 c 128,-1,21
 242 -192 242 -192 259 -173 c 128,-1,22
 276 -154 276 -154 288.5 -125.5 c 128,-1,23
 301 -97 301 -97 313 -56 c 2,24,-1
 521 610 l 1,4,-1
EndSplineSet
EndChar

StartChar: thorn
Encoding: 254 254 226
Width: 587
Flags: W
LayerCount: 2
Fore
SplineSet
508 306 m 256,0,1
 508 381 508 381 493.5 439.5 c 128,-1,2
 479 498 479 498 452.5 538.5 c 128,-1,3
 426 579 426 579 389.5 600.5 c 128,-1,4
 353 622 353 622 309 622 c 0,5,6
 260 622 260 622 226 596 c 128,-1,7
 192 570 192 570 163 510 c 1,8,-1
 163 800 l 1,9,-1
 80 800 l 1,10,-1
 80 -218 l 1,11,-1
 163 -218 l 1,12,-1
 163 101 l 1,13,14
 192 42 192 42 226 16 c 128,-1,15
 260 -10 260 -10 309 -10 c 0,16,17
 353 -10 353 -10 389.5 11.5 c 128,-1,18
 426 33 426 33 452.5 73.5 c 128,-1,19
 479 114 479 114 493.5 172.5 c 128,-1,20
 508 231 508 231 508 306 c 256,0,1
423 306 m 256,21,22
 423 194 423 194 387.5 135 c 128,-1,23
 352 76 352 76 292 76 c 256,24,25
 232 76 232 76 198 134.5 c 128,-1,26
 164 193 164 193 164 306 c 0,27,28
 164 420 164 420 198 477.5 c 128,-1,29
 232 535 232 535 295 535 c 0,30,31
 352 535 352 535 387.5 476.5 c 128,-1,32
 423 418 423 418 423 306 c 256,21,22
EndSplineSet
EndChar

StartChar: ydieresis
Encoding: 255 255 227
Width: 587
Flags: W
LayerCount: 2
Fore
SplineSet
404 669 m 1,0,-1
 404 782 l 1,1,-1
 320 782 l 1,2,-1
 320 669 l 1,3,-1
 404 669 l 1,0,-1
251 669 m 1,4,-1
 251 782 l 1,5,-1
 167 782 l 1,6,-1
 167 669 l 1,7,-1
 251 669 l 1,4,-1
521 610 m 1,8,-1
 431 610 l 1,9,-1
 285 124 l 1,10,-1
 142 610 l 1,11,-1
 50 610 l 1,12,-1
 244 -13 l 1,13,-1
 227 -68 l 2,14,15
 219 -95 219 -95 201.5 -106.5 c 128,-1,16
 184 -118 184 -118 156 -118 c 0,17,18
 123 -118 123 -118 79 -107 c 1,19,-1
 79 -200 l 1,20,21
 99 -206 99 -206 119 -207.5 c 128,-1,22
 139 -209 139 -209 160 -209 c 0,23,24
 195 -209 195 -209 218.5 -200.5 c 128,-1,25
 242 -192 242 -192 259 -173 c 128,-1,26
 276 -154 276 -154 288.5 -125.5 c 128,-1,27
 301 -97 301 -97 313 -56 c 2,28,-1
 521 610 l 1,8,-1
EndSplineSet
EndChar

StartChar: minus
Encoding: 57344 57344 228
Width: 587
Flags: W
LayerCount: 2
Fore
SplineSet
514 355 m 1,0,-1
 514 430 l 1,1,-1
 73 430 l 1,2,-1
 73 355 l 1,3,-1
 514 355 l 1,0,-1
EndSplineSet
EndChar

StartChar: apple
Encoding: 57345 57345 229
Width: 589
Flags: W
LayerCount: 2
Fore
SplineSet
621 451 m 1,0,-1
 352 452 l 1,1,-1
 603 765 l 1,2,-1
 488 765 l 1,3,-1
 205 412 l 1,4,-1
 205 765 l 1,5,-1
 118 765 l 1,6,-1
 118 361 l 1,7,-1
 -37 361 l 1,8,-1
 -37 359 l 1,9,-1
 118 359 l 1,10,-1
 118 1 l 1,11,-1
 205 1 l 1,12,-1
 205 273 l 1,13,-1
 283 370 l 1,14,-1
 505 1 l 1,15,-1
 611 1 l 1,16,-1
 345 444 l 1,17,-1
 350 450 l 1,18,-1
 621 449 l 1,19,-1
 621 451 l 1,0,-1
EndSplineSet
EndChar

StartChar: uniF401
Encoding: 62465 62465 231
Width: 587
VWidth: 0
Flags: W
LayerCount: 2
Fore
SplineSet
317 76 m 1,0,-1
 563 76 l 1,1,-1
 563 -100 l 1,2,-1
 317 -100 l 1,3,-1
 317 76 l 1,0,-1
EndSplineSet
EndChar

StartChar: uniF402
Encoding: 62466 62466 232
Width: 587
VWidth: 0
Flags: W
LayerCount: 2
Fore
SplineSet
317 276 m 1,0,-1
 563 276 l 1,1,-1
 563 100 l 1,2,-1
 317 100 l 1,3,-1
 317 276 l 1,0,-1
317 76 m 1,4,-1
 563 76 l 1,5,-1
 563 -100 l 1,6,-1
 317 -100 l 1,7,-1
 317 76 l 1,4,-1
EndSplineSet
EndChar

StartChar: uniF403
Encoding: 62467 62467 233
Width: 587
VWidth: 0
Flags: W
LayerCount: 2
Fore
SplineSet
317 300 m 1,0,-1
 563 300 l 1,1,-1
 563 476 l 1,2,-1
 317 476 l 1,3,-1
 317 300 l 1,0,-1
317 276 m 1,4,-1
 563 276 l 1,5,-1
 563 100 l 1,6,-1
 317 100 l 1,7,-1
 317 276 l 1,4,-1
317 76 m 1,8,-1
 563 76 l 1,9,-1
 563 -100 l 1,10,-1
 317 -100 l 1,11,-1
 317 76 l 1,8,-1
EndSplineSet
EndChar

StartChar: uniF404
Encoding: 62468 62468 234
Width: 587
VWidth: 0
Flags: W
LayerCount: 2
Fore
SplineSet
317 677 m 1,0,-1
 563 677 l 1,1,-1
 563 500 l 1,2,-1
 317 500 l 1,3,-1
 317 677 l 1,0,-1
317 300 m 1,4,-1
 563 300 l 1,5,-1
 563 476 l 1,6,-1
 317 476 l 1,7,-1
 317 300 l 1,4,-1
317 276 m 1,8,-1
 563 276 l 1,9,-1
 563 100 l 1,10,-1
 317 100 l 1,11,-1
 317 276 l 1,8,-1
317 76 m 1,12,-1
 563 76 l 1,13,-1
 563 -100 l 1,14,-1
 317 -100 l 1,15,-1
 317 76 l 1,12,-1
EndSplineSet
EndChar

StartChar: uniF405
Encoding: 62469 62469 235
Width: 587
VWidth: 0
Flags: W
LayerCount: 2
Fore
SplineSet
24 76 m 1,0,-1
 270 76 l 1,1,-1
 270 -100 l 1,2,-1
 24 -100 l 1,3,-1
 24 76 l 1,0,-1
EndSplineSet
EndChar

StartChar: uniF406
Encoding: 62470 62470 236
Width: 587
VWidth: 0
Flags: W
LayerCount: 2
Fore
SplineSet
317 76 m 1,0,-1
 563 76 l 1,1,-1
 563 -100 l 1,2,-1
 317 -100 l 1,3,-1
 317 76 l 1,0,-1
24 76 m 1,4,-1
 270 76 l 1,5,-1
 270 -100 l 1,6,-1
 24 -100 l 1,7,-1
 24 76 l 1,4,-1
EndSplineSet
EndChar

StartChar: uniF407
Encoding: 62471 62471 237
Width: 587
VWidth: 0
Flags: W
LayerCount: 2
Fore
SplineSet
317 276 m 1,0,-1
 563 276 l 1,1,-1
 563 100 l 1,2,-1
 317 100 l 1,3,-1
 317 276 l 1,0,-1
317 76 m 1,4,-1
 563 76 l 1,5,-1
 563 -100 l 1,6,-1
 317 -100 l 1,7,-1
 317 76 l 1,4,-1
24 76 m 1,8,-1
 270 76 l 1,9,-1
 270 -100 l 1,10,-1
 24 -100 l 1,11,-1
 24 76 l 1,8,-1
EndSplineSet
EndChar

StartChar: uniF408
Encoding: 62472 62472 238
Width: 587
VWidth: 0
Flags: W
LayerCount: 2
Fore
SplineSet
317 300 m 1,0,-1
 563 300 l 1,1,-1
 563 476 l 1,2,-1
 317 476 l 1,3,-1
 317 300 l 1,0,-1
317 276 m 1,4,-1
 563 276 l 1,5,-1
 563 100 l 1,6,-1
 317 100 l 1,7,-1
 317 276 l 1,4,-1
317 76 m 1,8,-1
 563 76 l 1,9,-1
 563 -100 l 1,10,-1
 317 -100 l 1,11,-1
 317 76 l 1,8,-1
24 76 m 1,12,-1
 270 76 l 1,13,-1
 270 -100 l 1,14,-1
 24 -100 l 1,15,-1
 24 76 l 1,12,-1
EndSplineSet
EndChar

StartChar: uniF409
Encoding: 62473 62473 239
Width: 587
VWidth: 0
Flags: W
LayerCount: 2
Fore
SplineSet
317 677 m 1,0,-1
 563 677 l 1,1,-1
 563 500 l 1,2,-1
 317 500 l 1,3,-1
 317 677 l 1,0,-1
317 300 m 1,4,-1
 563 300 l 1,5,-1
 563 476 l 1,6,-1
 317 476 l 1,7,-1
 317 300 l 1,4,-1
317 276 m 1,8,-1
 563 276 l 1,9,-1
 563 100 l 1,10,-1
 317 100 l 1,11,-1
 317 276 l 1,8,-1
317 76 m 1,12,-1
 563 76 l 1,13,-1
 563 -100 l 1,14,-1
 317 -100 l 1,15,-1
 317 76 l 1,12,-1
24 76 m 1,16,-1
 270 76 l 1,17,-1
 270 -100 l 1,18,-1
 24 -100 l 1,19,-1
 24 76 l 1,16,-1
EndSplineSet
EndChar

StartChar: uniF40A
Encoding: 62474 62474 240
Width: 587
VWidth: 0
Flags: W
LayerCount: 2
Fore
SplineSet
24 276 m 1,0,-1
 270 276 l 1,1,-1
 270 100 l 1,2,-1
 24 100 l 1,3,-1
 24 276 l 1,0,-1
24 76 m 1,4,-1
 270 76 l 1,5,-1
 270 -100 l 1,6,-1
 24 -100 l 1,7,-1
 24 76 l 1,4,-1
EndSplineSet
EndChar

StartChar: uniF40B
Encoding: 62475 62475 241
Width: 587
VWidth: 0
Flags: W
LayerCount: 2
Fore
SplineSet
317 76 m 1,0,-1
 563 76 l 1,1,-1
 563 -100 l 1,2,-1
 317 -100 l 1,3,-1
 317 76 l 1,0,-1
24 276 m 1,4,-1
 270 276 l 1,5,-1
 270 100 l 1,6,-1
 24 100 l 1,7,-1
 24 276 l 1,4,-1
24 76 m 1,8,-1
 270 76 l 1,9,-1
 270 -100 l 1,10,-1
 24 -100 l 1,11,-1
 24 76 l 1,8,-1
EndSplineSet
EndChar

StartChar: uniF40C
Encoding: 62476 62476 242
Width: 587
VWidth: 0
Flags: W
LayerCount: 2
Fore
SplineSet
317 276 m 1,0,-1
 563 276 l 1,1,-1
 563 100 l 1,2,-1
 317 100 l 1,3,-1
 317 276 l 1,0,-1
317 76 m 1,4,-1
 563 76 l 1,5,-1
 563 -100 l 1,6,-1
 317 -100 l 1,7,-1
 317 76 l 1,4,-1
24 276 m 1,8,-1
 270 276 l 1,9,-1
 270 100 l 1,10,-1
 24 100 l 1,11,-1
 24 276 l 1,8,-1
24 76 m 1,12,-1
 270 76 l 1,13,-1
 270 -100 l 1,14,-1
 24 -100 l 1,15,-1
 24 76 l 1,12,-1
EndSplineSet
EndChar

StartChar: uniF40D
Encoding: 62477 62477 243
Width: 587
VWidth: 0
Flags: W
LayerCount: 2
Fore
SplineSet
317 300 m 1,0,-1
 563 300 l 1,1,-1
 563 476 l 1,2,-1
 317 476 l 1,3,-1
 317 300 l 1,0,-1
317 276 m 1,4,-1
 563 276 l 1,5,-1
 563 100 l 1,6,-1
 317 100 l 1,7,-1
 317 276 l 1,4,-1
317 76 m 1,8,-1
 563 76 l 1,9,-1
 563 -100 l 1,10,-1
 317 -100 l 1,11,-1
 317 76 l 1,8,-1
24 276 m 1,12,-1
 270 276 l 1,13,-1
 270 100 l 1,14,-1
 24 100 l 1,15,-1
 24 276 l 1,12,-1
24 76 m 1,16,-1
 270 76 l 1,17,-1
 270 -100 l 1,18,-1
 24 -100 l 1,19,-1
 24 76 l 1,16,-1
EndSplineSet
EndChar

StartChar: uniF40E
Encoding: 62478 62478 244
Width: 587
VWidth: 0
Flags: W
LayerCount: 2
Fore
SplineSet
317 677 m 1,0,-1
 563 677 l 1,1,-1
 563 500 l 1,2,-1
 317 500 l 1,3,-1
 317 677 l 1,0,-1
317 300 m 1,4,-1
 563 300 l 1,5,-1
 563 476 l 1,6,-1
 317 476 l 1,7,-1
 317 300 l 1,4,-1
317 276 m 1,8,-1
 563 276 l 1,9,-1
 563 100 l 1,10,-1
 317 100 l 1,11,-1
 317 276 l 1,8,-1
317 76 m 1,12,-1
 563 76 l 1,13,-1
 563 -100 l 1,14,-1
 317 -100 l 1,15,-1
 317 76 l 1,12,-1
24 276 m 1,16,-1
 270 276 l 1,17,-1
 270 100 l 1,18,-1
 24 100 l 1,19,-1
 24 276 l 1,16,-1
24 76 m 1,20,-1
 270 76 l 1,21,-1
 270 -100 l 1,22,-1
 24 -100 l 1,23,-1
 24 76 l 1,20,-1
EndSplineSet
EndChar

StartChar: uniF40F
Encoding: 62479 62479 245
Width: 587
VWidth: 0
Flags: W
LayerCount: 2
Fore
SplineSet
24 300 m 1,0,-1
 270 300 l 1,1,-1
 270 476 l 1,2,-1
 24 476 l 1,3,-1
 24 300 l 1,0,-1
24 276 m 1,4,-1
 270 276 l 1,5,-1
 270 100 l 1,6,-1
 24 100 l 1,7,-1
 24 276 l 1,4,-1
24 76 m 1,8,-1
 270 76 l 1,9,-1
 270 -100 l 1,10,-1
 24 -100 l 1,11,-1
 24 76 l 1,8,-1
EndSplineSet
EndChar

StartChar: uniF410
Encoding: 62480 62480 246
Width: 587
VWidth: 0
Flags: W
LayerCount: 2
Fore
SplineSet
317 76 m 1,0,-1
 563 76 l 1,1,-1
 563 -100 l 1,2,-1
 317 -100 l 1,3,-1
 317 76 l 1,0,-1
24 300 m 1,4,-1
 270 300 l 1,5,-1
 270 476 l 1,6,-1
 24 476 l 1,7,-1
 24 300 l 1,4,-1
24 276 m 1,8,-1
 270 276 l 1,9,-1
 270 100 l 1,10,-1
 24 100 l 1,11,-1
 24 276 l 1,8,-1
24 76 m 1,12,-1
 270 76 l 1,13,-1
 270 -100 l 1,14,-1
 24 -100 l 1,15,-1
 24 76 l 1,12,-1
EndSplineSet
EndChar

StartChar: uniF411
Encoding: 62481 62481 247
Width: 587
VWidth: 0
Flags: W
LayerCount: 2
Fore
SplineSet
317 276 m 1,0,-1
 563 276 l 1,1,-1
 563 100 l 1,2,-1
 317 100 l 1,3,-1
 317 276 l 1,0,-1
317 76 m 1,4,-1
 563 76 l 1,5,-1
 563 -100 l 1,6,-1
 317 -100 l 1,7,-1
 317 76 l 1,4,-1
24 300 m 1,8,-1
 270 300 l 1,9,-1
 270 476 l 1,10,-1
 24 476 l 1,11,-1
 24 300 l 1,8,-1
24 276 m 1,12,-1
 270 276 l 1,13,-1
 270 100 l 1,14,-1
 24 100 l 1,15,-1
 24 276 l 1,12,-1
24 76 m 1,16,-1
 270 76 l 1,17,-1
 270 -100 l 1,18,-1
 24 -100 l 1,19,-1
 24 76 l 1,16,-1
EndSplineSet
EndChar

StartChar: uniF412
Encoding: 62482 62482 248
Width: 587
VWidth: 0
Flags: W
LayerCount: 2
Fore
SplineSet
317 300 m 1,0,-1
 563 300 l 1,1,-1
 563 476 l 1,2,-1
 317 476 l 1,3,-1
 317 300 l 1,0,-1
317 276 m 1,4,-1
 563 276 l 1,5,-1
 563 100 l 1,6,-1
 317 100 l 1,7,-1
 317 276 l 1,4,-1
317 76 m 1,8,-1
 563 76 l 1,9,-1
 563 -100 l 1,10,-1
 317 -100 l 1,11,-1
 317 76 l 1,8,-1
24 300 m 1,12,-1
 270 300 l 1,13,-1
 270 476 l 1,14,-1
 24 476 l 1,15,-1
 24 300 l 1,12,-1
24 276 m 1,16,-1
 270 276 l 1,17,-1
 270 100 l 1,18,-1
 24 100 l 1,19,-1
 24 276 l 1,16,-1
24 76 m 1,20,-1
 270 76 l 1,21,-1
 270 -100 l 1,22,-1
 24 -100 l 1,23,-1
 24 76 l 1,20,-1
EndSplineSet
EndChar

StartChar: uniF413
Encoding: 62483 62483 249
Width: 587
VWidth: 0
Flags: W
LayerCount: 2
Fore
SplineSet
317 677 m 1,0,-1
 563 677 l 1,1,-1
 563 500 l 1,2,-1
 317 500 l 1,3,-1
 317 677 l 1,0,-1
317 300 m 1,4,-1
 563 300 l 1,5,-1
 563 476 l 1,6,-1
 317 476 l 1,7,-1
 317 300 l 1,4,-1
317 276 m 1,8,-1
 563 276 l 1,9,-1
 563 100 l 1,10,-1
 317 100 l 1,11,-1
 317 276 l 1,8,-1
317 76 m 1,12,-1
 563 76 l 1,13,-1
 563 -100 l 1,14,-1
 317 -100 l 1,15,-1
 317 76 l 1,12,-1
24 300 m 1,16,-1
 270 300 l 1,17,-1
 270 476 l 1,18,-1
 24 476 l 1,19,-1
 24 300 l 1,16,-1
24 276 m 1,20,-1
 270 276 l 1,21,-1
 270 100 l 1,22,-1
 24 100 l 1,23,-1
 24 276 l 1,20,-1
24 76 m 1,24,-1
 270 76 l 1,25,-1
 270 -100 l 1,26,-1
 24 -100 l 1,27,-1
 24 76 l 1,24,-1
EndSplineSet
EndChar

StartChar: uniF414
Encoding: 62484 62484 250
Width: 587
VWidth: 0
Flags: W
LayerCount: 2
Fore
SplineSet
24 677 m 1,0,-1
 270 677 l 1,1,-1
 270 500 l 1,2,-1
 24 500 l 1,3,-1
 24 677 l 1,0,-1
24 300 m 1,4,-1
 270 300 l 1,5,-1
 270 476 l 1,6,-1
 24 476 l 1,7,-1
 24 300 l 1,4,-1
24 276 m 1,8,-1
 270 276 l 1,9,-1
 270 100 l 1,10,-1
 24 100 l 1,11,-1
 24 276 l 1,8,-1
24 76 m 1,12,-1
 270 76 l 1,13,-1
 270 -100 l 1,14,-1
 24 -100 l 1,15,-1
 24 76 l 1,12,-1
EndSplineSet
EndChar

StartChar: uniF415
Encoding: 62485 62485 251
Width: 587
VWidth: 0
Flags: W
LayerCount: 2
Fore
SplineSet
317 76 m 1,0,-1
 563 76 l 1,1,-1
 563 -100 l 1,2,-1
 317 -100 l 1,3,-1
 317 76 l 1,0,-1
24 677 m 1,4,-1
 270 677 l 1,5,-1
 270 500 l 1,6,-1
 24 500 l 1,7,-1
 24 677 l 1,4,-1
24 300 m 1,8,-1
 270 300 l 1,9,-1
 270 476 l 1,10,-1
 24 476 l 1,11,-1
 24 300 l 1,8,-1
24 276 m 1,12,-1
 270 276 l 1,13,-1
 270 100 l 1,14,-1
 24 100 l 1,15,-1
 24 276 l 1,12,-1
24 76 m 1,16,-1
 270 76 l 1,17,-1
 270 -100 l 1,18,-1
 24 -100 l 1,19,-1
 24 76 l 1,16,-1
EndSplineSet
EndChar

StartChar: uniF416
Encoding: 62486 62486 252
Width: 587
VWidth: 0
Flags: W
LayerCount: 2
Fore
SplineSet
317 276 m 1,0,-1
 563 276 l 1,1,-1
 563 100 l 1,2,-1
 317 100 l 1,3,-1
 317 276 l 1,0,-1
317 76 m 1,4,-1
 563 76 l 1,5,-1
 563 -100 l 1,6,-1
 317 -100 l 1,7,-1
 317 76 l 1,4,-1
24 677 m 1,8,-1
 270 677 l 1,9,-1
 270 500 l 1,10,-1
 24 500 l 1,11,-1
 24 677 l 1,8,-1
24 300 m 1,12,-1
 270 300 l 1,13,-1
 270 476 l 1,14,-1
 24 476 l 1,15,-1
 24 300 l 1,12,-1
24 276 m 1,16,-1
 270 276 l 1,17,-1
 270 100 l 1,18,-1
 24 100 l 1,19,-1
 24 276 l 1,16,-1
24 76 m 1,20,-1
 270 76 l 1,21,-1
 270 -100 l 1,22,-1
 24 -100 l 1,23,-1
 24 76 l 1,20,-1
EndSplineSet
EndChar

StartChar: uniF417
Encoding: 62487 62487 253
Width: 587
VWidth: 0
Flags: W
LayerCount: 2
Fore
SplineSet
317 300 m 1,0,-1
 563 300 l 1,1,-1
 563 476 l 1,2,-1
 317 476 l 1,3,-1
 317 300 l 1,0,-1
317 276 m 1,4,-1
 563 276 l 1,5,-1
 563 100 l 1,6,-1
 317 100 l 1,7,-1
 317 276 l 1,4,-1
317 76 m 1,8,-1
 563 76 l 1,9,-1
 563 -100 l 1,10,-1
 317 -100 l 1,11,-1
 317 76 l 1,8,-1
24 677 m 1,12,-1
 270 677 l 1,13,-1
 270 500 l 1,14,-1
 24 500 l 1,15,-1
 24 677 l 1,12,-1
24 300 m 1,16,-1
 270 300 l 1,17,-1
 270 476 l 1,18,-1
 24 476 l 1,19,-1
 24 300 l 1,16,-1
24 276 m 1,20,-1
 270 276 l 1,21,-1
 270 100 l 1,22,-1
 24 100 l 1,23,-1
 24 276 l 1,20,-1
24 76 m 1,24,-1
 270 76 l 1,25,-1
 270 -100 l 1,26,-1
 24 -100 l 1,27,-1
 24 76 l 1,24,-1
EndSplineSet
EndChar

StartChar: uniF418
Encoding: 62488 62488 254
Width: 587
VWidth: 0
Flags: W
LayerCount: 2
Fore
SplineSet
317 677 m 1,0,-1
 563 677 l 1,1,-1
 563 500 l 1,2,-1
 317 500 l 1,3,-1
 317 677 l 1,0,-1
317 300 m 1,4,-1
 563 300 l 1,5,-1
 563 476 l 1,6,-1
 317 476 l 1,7,-1
 317 300 l 1,4,-1
317 276 m 1,8,-1
 563 276 l 1,9,-1
 563 100 l 1,10,-1
 317 100 l 1,11,-1
 317 276 l 1,8,-1
317 76 m 1,12,-1
 563 76 l 1,13,-1
 563 -100 l 1,14,-1
 317 -100 l 1,15,-1
 317 76 l 1,12,-1
24 677 m 1,16,-1
 270 677 l 1,17,-1
 270 500 l 1,18,-1
 24 500 l 1,19,-1
 24 677 l 1,16,-1
24 300 m 1,20,-1
 270 300 l 1,21,-1
 270 476 l 1,22,-1
 24 476 l 1,23,-1
 24 300 l 1,20,-1
24 276 m 1,24,-1
 270 276 l 1,25,-1
 270 100 l 1,26,-1
 24 100 l 1,27,-1
 24 276 l 1,24,-1
24 76 m 1,28,-1
 270 76 l 1,29,-1
 270 -100 l 1,30,-1
 24 -100 l 1,31,-1
 24 76 l 1,28,-1
EndSplineSet
EndChar

StartChar: uniF421
Encoding: 62497 62497 257
Width: 587
VWidth: 0
Flags: W
LayerCount: 2
Fore
SplineSet
0 0 m 5,0,-1
 0 100 l 1,1,-1
 587 100 l 1,2,-1
 587 0 l 1,3,-1
 0 0 l 5,0,-1
EndSplineSet
EndChar

StartChar: uniF422
Encoding: 62498 62498 258
Width: 587
VWidth: 0
Flags: W
LayerCount: 2
Fore
SplineSet
0 0 m 1,0,-1
 0 200 l 5,1,-1
 587 200 l 5,2,-1
 587 0 l 1,3,-1
 0 0 l 1,0,-1
EndSplineSet
EndChar

StartChar: uniF423
Encoding: 62499 62499 259
Width: 587
VWidth: 0
Flags: W
LayerCount: 2
Fore
SplineSet
0 0 m 1,0,-1
 0 301 l 1,1,-1
 587 301 l 1,2,-1
 587 0 l 1,3,-1
 0 0 l 1,0,-1
EndSplineSet
EndChar

StartChar: uniF424
Encoding: 62500 62500 260
Width: 587
VWidth: 0
Flags: W
LayerCount: 2
Fore
SplineSet
0 0 m 1,0,-1
 0 403 l 5,1,-1
 587 403 l 5,2,-1
 587 0 l 1,3,-1
 0 0 l 1,0,-1
EndSplineSet
EndChar

StartChar: uniF425
Encoding: 62501 62501 261
Width: 587
VWidth: 0
Flags: W
LayerCount: 2
Fore
SplineSet
0 0 m 1,0,-1
 0 499 l 5,1,-1
 587 499 l 5,2,-1
 587 0 l 1,3,-1
 0 0 l 1,0,-1
EndSplineSet
EndChar

StartChar: uniF426
Encoding: 62502 62502 262
Width: 587
VWidth: 0
Flags: W
LayerCount: 2
Fore
SplineSet
0 0 m 1,0,-1
 0 600 l 5,1,-1
 587 600 l 5,2,-1
 587 0 l 1,3,-1
 0 0 l 1,0,-1
EndSplineSet
EndChar

StartChar: uniF427
Encoding: 62503 62503 263
Width: 587
VWidth: 0
Flags: W
LayerCount: 2
Fore
SplineSet
0 0 m 1,0,-1
 0 700 l 5,1,-1
 587 700 l 5,2,-1
 587 0 l 1,3,-1
 0 0 l 1,0,-1
EndSplineSet
EndChar

StartChar: uniF428
Encoding: 62504 62504 264
Width: 587
VWidth: 0
Flags: W
LayerCount: 2
Fore
SplineSet
0 0 m 1,0,-1
 0 800 l 1,1,-1
 587 800 l 1,2,-1
 587 0 l 1,3,-1
 0 0 l 1,0,-1
EndSplineSet
EndChar

StartChar: uniF429
Encoding: 62505 62505 265
Width: 587
VWidth: 0
Flags: W
LayerCount: 2
Fore
SplineSet
0 0 m 1,0,-1
 0 80 l 5,1,-1
 587 80 l 5,2,-1
 587 0 l 1,3,-1
 0 0 l 1,0,-1
EndSplineSet
EndChar

StartChar: uniF42A
Encoding: 62506 62506 266
Width: 587
VWidth: 0
Flags: W
LayerCount: 2
Fore
SplineSet
0 0 m 1,0,-1
 0 160 l 5,1,-1
 587 160 l 5,2,-1
 587 0 l 1,3,-1
 0 0 l 1,0,-1
EndSplineSet
EndChar

StartChar: uniF42B
Encoding: 62507 62507 267
Width: 587
VWidth: 0
Flags: W
LayerCount: 2
Fore
SplineSet
0 0 m 1,0,-1
 0 240 l 5,1,-1
 587 240 l 5,2,-1
 587 0 l 1,3,-1
 0 0 l 1,0,-1
EndSplineSet
EndChar

StartChar: uniF42C
Encoding: 62508 62508 268
Width: 587
VWidth: 0
Flags: W
LayerCount: 2
Fore
SplineSet
0 0 m 1,0,-1
 0 320 l 5,1,-1
 587 320 l 5,2,-1
 587 0 l 1,3,-1
 0 0 l 1,0,-1
EndSplineSet
EndChar

StartChar: uniF42D
Encoding: 62509 62509 269
Width: 587
VWidth: 0
Flags: W
LayerCount: 2
Fore
SplineSet
0 0 m 1,0,-1
 0 480 l 5,1,-1
 587 480 l 5,2,-1
 587 0 l 1,3,-1
 0 0 l 1,0,-1
EndSplineSet
EndChar

StartChar: uniF42E
Encoding: 62510 62510 270
Width: 587
VWidth: 0
Flags: W
LayerCount: 2
Fore
SplineSet
0 0 m 1,0,-1
 0 560 l 5,1,-1
 587 560 l 5,2,-1
 587 0 l 1,3,-1
 0 0 l 1,0,-1
EndSplineSet
EndChar

StartChar: uniF42F
Encoding: 62511 62511 271
Width: 587
VWidth: 0
Flags: W
LayerCount: 2
Fore
SplineSet
0 0 m 1,0,-1
 0 639 l 5,1,-1
 587 639 l 5,2,-1
 587 0 l 1,3,-1
 0 0 l 1,0,-1
EndSplineSet
EndChar

StartChar: uniF430
Encoding: 62512 62512 272
Width: 587
VWidth: 0
Flags: W
LayerCount: 2
Fore
SplineSet
0 0 m 1,0,-1
 0 721 l 5,1,-1
 587 721 l 5,2,-1
 587 0 l 1,3,-1
 0 0 l 1,0,-1
EndSplineSet
EndChar

StartChar: uni22EF
Encoding: 8943 8943 273
Width: 880
VWidth: 0
Flags: W
LayerCount: 2
Fore
SplineSet
799.5 318 m 1,0,-1
 799.5 482 l 1,1,-1
 668.5 482 l 1,2,-1
 668.5 318 l 1,3,-1
 799.5 318 l 1,0,-1
505.5 318 m 1,4,-1
 505.5 482 l 1,5,-1
 374.5 482 l 1,6,-1
 374.5 318 l 1,7,-1
 505.5 318 l 1,4,-1
211.5 318 m 1,8,-1
 211.5 482 l 1,9,-1
 80.5 482 l 1,10,-1
 80.5 318 l 1,11,-1
 211.5 318 l 1,8,-1
EndSplineSet
EndChar

StartChar: uni232C
Encoding: 9004 9004 274
Width: 624
Flags: W
LayerCount: 2
Fore
SplineSet
299 207 m 1,0,-1
 330 153 l 1,1,-1
 530 267.599609375 l 1,2,-1
 499 321.6 l 1,3,-1
 299 207 l 1,0,-1
187 497.4 m 1,4,-1
 124.80078125 497.4 l 1,5,-1
 124.80078125 267.6 l 1,6,-1
 187 267.6 l 1,7,-1
 187 497.4 l 1,4,-1
499 443.4 m 17,8,-1
 530 497.400390625 l 1,9,-1
 330 612 l 1,10,-1
 299 558 l 9,11,-1
 499 443.4 l 17,8,-1
62.400390625 535.700195312 m 25,12,-1
 330 688.5 l 1,13,-1
 598 535.700195312 l 25,14,-1
 598 229.299804688 l 1,15,-1
 330 76.5 l 25,16,-1
 62.400390625 229.299804688 l 1,17,-1
 62.400390625 535.700195312 l 25,12,-1
0 574 m 25,18,-1
 0 191 l 1,19,-1
 330 0 l 25,20,-1
 660 191 l 1,21,-1
 660 574 l 25,22,-1
 330 765 l 1,23,-1
 0 574 l 25,18,-1
EndSplineSet
EndChar

StartChar: uni2BC5
Encoding: 11205 11205 275
Width: 587
Flags: W
LayerCount: 2
Fore
SplineSet
293 765 m 1,0,-1
 537 1 l 1,1,-1
 50 1 l 1,2,-1
 293 765 l 1,0,-1
EndSplineSet
EndChar

